<?xml version="1.0" encoding="UTF-8"?><svg id="Layer_2" xmlns="http://www.w3.org/2000/svg" viewBox="0 0 2364.09 1194.48"><defs><style>.cls-1{stroke-miterlimit:10;stroke-width:10px;}.cls-1,.cls-2,.cls-3{fill:none;}.cls-1,.cls-3,.cls-4{stroke:#33d895;}.cls-5{fill:#a9efd3;}.cls-5,.cls-6,.cls-7,.cls-8,.cls-9{stroke-width:0px;}.cls-2{stroke:#8feac5;stroke-width:6px;}.cls-2,.cls-3,.cls-4{stroke-linecap:round;stroke-linejoin:round;}.cls-3,.cls-4{stroke-width:8px;}.cls-6{fill:#e5faf1;}.cls-4,.cls-8{fill:#fff;}.cls-7{fill:#33d895;}.cls-9{fill:#c4cefe;}</style></defs><g id="_ëîé_1"><path class="cls-8" d="M955.21,1112.67c-38.96-48.77-61.08-121.73-66.35-218.84-5.24-96.56,8.86-171.2,42.32-223.91,33.46-52.71,84.47-80.93,153.06-84.66,68.58-3.72,122.36,18.82,161.32,67.59,38.96,48.79,61.07,121.46,66.31,218.02,5.24,96.57-8.86,171.33-42.3,224.32-33.44,52.99-84.46,81.34-153.03,85.07-68.59,3.72-122.35-18.8-161.32-67.59Z"/><path class="cls-1" d="M955.21,1112.67c-38.96-48.77-61.08-121.73-66.35-218.84-5.24-96.56,8.86-171.2,42.32-223.91,33.46-52.71,84.47-80.93,153.06-84.66,68.58-3.72,122.36,18.82,161.32,67.59,38.96,48.79,61.07,121.46,66.31,218.02,5.24,96.57-8.86,171.33-42.3,224.32-33.44,52.99-84.46,81.34-153.03,85.07-68.59,3.72-122.35-18.8-161.32-67.59Z"/><path class="cls-6" d="M1190.7,1041.29c15.14-35.2,20.7-90.12,16.65-164.74-4.08-75.16-15.55-129.15-34.38-161.97-18.84-32.82-46.92-48.21-84.22-46.19-37.31,2.03-63.55,20.51-78.7,55.44-15.17,34.95-20.72,89.72-16.67,164.33,4.05,74.62,15.5,128.61,34.38,161.97,18.86,33.37,46.95,49.04,84.26,47.01,37.3-2.02,63.53-20.64,78.68-55.86Z"/><path class="cls-1" d="M1190.7,1041.29c15.14-35.2,20.7-90.12,16.65-164.74-4.08-75.16-15.55-129.15-34.38-161.97-18.84-32.82-46.92-48.21-84.22-46.19-37.31,2.03-63.55,20.51-78.7,55.44-15.17,34.95-20.72,89.72-16.67,164.33,4.05,74.62,15.5,128.61,34.38,161.97,18.86,33.37,46.95,49.04,84.26,47.01,37.3-2.02,63.53-20.64,78.68-55.86Z"/><rect class="cls-7" x="746.17" y="885.36" width="681.95" height="9.09"/><rect class="cls-7" x="1801.68" y="887.67" width="84.71" height="6.82" rx=".75" ry=".75"/><rect class="cls-7" x="287.19" y="887.67" width="84.71" height="6.82" rx=".75" ry=".75"/><rect class="cls-9" x="1728.58" y="1028.97" width="84.71" height="4.55" rx=".5" ry=".5"/><path class="cls-6" d="M411.91,304.3c15.89,0,29.7-11.54,31.85-27.28.38-2.82.58-5.71.58-8.63,0-35.05-28.41-63.46-63.46-63.46-1.44,0-2.86.07-4.28.16-2.9-34.56-31.85-61.71-67.16-61.71-37.23,0-67.42,30.18-67.42,67.42,0,1.65.08,3.28.2,4.91-10.57-5.9-22.88-9.06-35.98-8.46-33.86,1.55-61.69,28.64-64.08,62.45-.02.27-.04.54-.05.8-1.09,18.39,13.78,33.81,32.2,33.81h237.6Z"/><path class="cls-6" d="M2070.68,459.93c50.18,0,52.96-75.52,2.84-77.96-1.37-.07-2.75-.1-4.13-.1-8.95,0-17.56,1.42-25.64,4.02-6.71-40.88-42.18-72.07-84.96-72.07s-79.8,32.59-85.35,74.79c-10.37-4.97-21.99-7.76-34.26-7.76-6.85,0-13.51.87-19.85,2.5-43.88,11.3-34.67,76.59,10.64,76.59h240.73Z"/><path class="cls-6" d="M1632.86,146.07c50.17,0,52.94-75.5,2.84-77.94-1.37-.07-2.75-.1-4.13-.1-8.94,0-17.56,1.42-25.64,4.01-6.71-40.87-42.17-72.05-84.93-72.05s-79.78,32.58-85.33,74.77c-10.37-4.97-21.99-7.76-34.25-7.76-6.85,0-13.5.87-19.85,2.5-43.87,11.3-34.66,76.56,10.64,76.56h240.65Z"/><path class="cls-6" d="M1611.38,284.8c26.32,27.79,33.52,27.98,61.31,1.66-27.79,26.32-27.98,33.52-1.66,61.31-26.32-27.79-33.52-27.98-61.31-1.66,27.79-26.32,27.98-33.52,1.66-61.31Z"/><path class="cls-6" d="M649.47,69.55c26.32,27.79,33.52,27.98,61.31,1.66-27.79,26.32-27.98,33.52-1.66,61.31-26.32-27.79-33.52-27.98-61.31-1.66,27.79-26.32,27.98-33.52,1.66-61.31Z"/><path class="cls-6" d="M388.91,466.57c26.32,27.79,33.52,27.98,61.31,1.66-27.79,26.32-27.98,33.52-1.66,61.31-26.32-27.79-33.52-27.98-61.31-1.66,27.79-26.32,27.98-33.52,1.66-61.31Z"/><path class="cls-6" d="M87.71,396.09c26.32,27.79,33.52,27.98,61.31,1.66-27.79,26.32-27.98,33.52-1.66,61.31-26.32-27.79-33.52-27.98-61.31-1.66,27.79-26.32,27.98-33.52,1.66-61.31Z"/><path class="cls-6" d="M1918.46,603.67c26.32,27.79,33.52,27.98,61.31,1.66-27.79,26.32-27.98,33.52-1.66,61.31-26.32-27.79-33.52-27.98-61.31-1.66,27.79-26.32,27.98-33.52,1.66-61.31Z"/><path class="cls-8" d="M970.13,514.42l240.33-70.58c4.5-1.32,7.08-6.04,5.75-10.54l-98.09-334.02c-1.32-4.5-6.04-7.08-10.54-5.75l-164.55,48.32c-2.1.62-3.89,2.02-4.98,3.93l-54.42,95.02c-1.15,2.01-1.43,4.39-.78,6.61l76.72,261.26c1.32,4.5,6.04,7.08,10.54,5.75Z"/><path class="cls-3" d="M970.13,514.42l240.33-70.58c4.5-1.32,7.08-6.04,5.75-10.54l-98.09-334.02c-1.32-4.5-6.04-7.08-10.54-5.75l-164.55,48.32c-2.1.62-3.89,2.02-4.98,3.93l-54.42,95.02c-1.15,2.01-1.43,4.39-.78,6.61l76.72,261.26c1.32,4.5,6.04,7.08,10.54,5.75Z"/><path class="cls-4" d="M941.88,147.03l20.06,68.33c1.41,4.8-1.33,9.84-6.12,11.28l-71.42,21.31"/><rect class="cls-5" x="981.87" y="399.51" width="18.19" height="63.65" rx="2" ry="2" transform="translate(-81.38 296.69) rotate(-16.37)"/><rect class="cls-5" x="1054.23" y="396.83" width="18.19" height="45.46" rx="2" ry="2" transform="translate(-75.13 316.6) rotate(-16.37)"/><rect class="cls-5" x="1086.57" y="368.76" width="18.19" height="63.65" rx="2" ry="2" transform="translate(-68.48 324.94) rotate(-16.37)"/><rect class="cls-5" x="1014.21" y="371.44" width="18.19" height="81.83" rx="2" ry="2" transform="translate(-74.73 305.03) rotate(-16.37)"/><line class="cls-2" x1="938.08" y1="283.5" x2="1099.48" y2="236.11"/><line class="cls-2" x1="945.77" y1="309.68" x2="1107.16" y2="262.28"/><line class="cls-2" x1="953.45" y1="335.85" x2="1114.85" y2="288.45"/><path class="cls-7" d="M1297.96,424.27l5.99-12.73c1.14-2.43-.05-5.31-2.58-6.21l-80.44-28.89-3.53,6.37,74.14,43.46c2.31,1.35,5.28.43,6.41-1.99Z"/><circle class="cls-5" cx="1160.58" cy="357.22" r="65.17"/><circle class="cls-8" cx="1160.58" cy="357.22" r="51.58"/><circle class="cls-3" cx="1160.58" cy="357.22" r="65.17"/><line class="cls-3" x1="1160.89" y1="332.21" x2="1160.5" y2="364.03"/><line class="cls-3" x1="1160.27" y1="382.21" x2="1160.27" y2="382.21"/><circle class="cls-3" cx="1160.27" cy="382.21" r=".02"/><path class="cls-7" d="M1852.8,877.56l-64.11,12.88,25.76,128.23-137.27,27.58-25.76-128.23-251.52,50.54-19.98-99.46,153.72-392.62,165.21-33.2,66.06,328.79,64.11-12.88,23.78,118.37ZM1591.79,621.29l-72.66,200.16,108.5-21.8-35.84-178.37Z"/><path class="cls-7" d="M794.88,943.94l-64.5-10.75-21.5,129.01-138.11-23.02,21.5-129.01-253.06-42.18,16.68-100.07,283.25-312.32,166.22,27.71-55.14,330.8,64.5,10.75-19.85,119.09ZM642.02,611.63l-139.07,161.26,109.16,18.19,29.91-179.45Z"/><rect class="cls-8" y="894.48" width="2364.09" height="300"/><rect class="cls-5" x="313.1" y="1035.21" width="84.71" height="4.55" rx=".5" ry=".5"/><rect class="cls-5" x="542.96" y="1035.21" width="84.71" height="4.55" rx=".5" ry=".5"/><rect class="cls-5" x="752.16" y="981.22" width="84.71" height="4.55" rx=".5" ry=".5"/><rect class="cls-5" x="871.14" y="1040.92" width="84.71" height="4.55" rx=".5" ry=".5"/><rect class="cls-5" x="1164.7" y="1040.92" width="84.71" height="4.55" rx=".5" ry=".5"/><rect class="cls-5" x="1493.12" y="1037.55" width="84.71" height="4.55" rx=".5" ry=".5"/><rect class="cls-5" x="449.8" y="972.47" width="84.71" height="4.55" rx=".5" ry=".5"/><rect class="cls-5" x="1034.29" y="970.26" width="84.71" height="4.55" rx=".5" ry=".5"/><rect class="cls-5" x="1629.81" y="969.9" width="84.71" height="4.55" rx=".5" ry=".5"/><rect class="cls-5" x="1336.69" y="948.73" width="84.71" height="4.55" rx=".5" ry=".5"/></g></svg>