<?xml version="1.0" encoding="UTF-8"?><svg id="Layer_2" xmlns="http://www.w3.org/2000/svg" viewBox="0 0 41.65 41.65"><defs><style>.cls-1{fill:#1f1757;}</style></defs><g id="OBJECTS"><path class="cls-1" d="m37.32,25.33c-1.45-.16-2.89-.46-4.29-.89-1.74-.53-3.62-.07-4.9,1.21l-2.66,2.66c-5.1-2.79-9.35-7.04-12.13-12.14l2.66-2.66c1.28-1.28,1.74-3.16,1.21-4.9-.43-1.39-.72-2.83-.89-4.29-.28-2.47-2.37-4.33-4.86-4.33h-6.57c-1.37,0-2.69.58-3.61,1.59-.83.91-1.28,2.09-1.28,3.31,0,.15,0,.3.02.45.43,4.71,1.68,9.26,3.71,13.53,1.97,4.14,4.63,7.9,7.88,11.15,3.26,3.26,7.01,5.91,11.15,7.88,4.26,2.03,8.81,3.28,13.53,3.71,1.37.13,2.74-.33,3.76-1.26,1.01-.92,1.59-2.24,1.59-3.61v-6.57c0-2.49-1.86-4.58-4.33-4.86Z"/></g></svg>