<?xml version="1.0" encoding="UTF-8"?><svg id="Layer_2" xmlns="http://www.w3.org/2000/svg" xmlns:xlink="http://www.w3.org/1999/xlink" viewBox="0 0 751.06 500"><defs><style>.cls-1,.cls-2,.cls-3{fill:#fff;}.cls-2{opacity:.12;}.cls-4{opacity:.88;}.cls-5{opacity:.35;}.cls-5,.cls-6{fill:#ecf1f7;}.cls-7{opacity:.33;}.cls-7,.cls-8{fill:#af9cda;}.cls-9,.cls-10{fill:#c5d9ff;}.cls-11{opacity:.29;}.cls-11,.cls-12{fill:#243762;}.cls-13{clip-path:url(#clippath);}.cls-10{opacity:.31;}.cls-3{opacity:.2;}.cls-14{fill:none;}.cls-15{opacity:.41;}.cls-16{opacity:.89;}.cls-17{fill:#f7a9b4;}</style><clipPath id="clippath"><polygon class="cls-14" points="751.02 .26 751.06 496.24 1.06 500 1.06 347.67 1.45 0 751.02 .26"/></clipPath></defs><g id="OBJECTS"><rect class="cls-1" width="750" height="500"/><g class="cls-16"><g class="cls-13"><path class="cls-2" d="m224.88,376.39c0-14.78-2.42-28.71-7.32-40.79-11.38-28.09-29.33-42.25-42.38-49.18-22.37-11.88-43.7-14.55-60.07-7.53-17.47,7.49-23.64,23-30.18,39.42-5.96,14.96-12.12,30.44-27.44,40.24-13.8,8.84-27.29,4-41.57-1.11-14.15-5.07-28.78-10.31-44.94-2.59-17.16,8.2-31.13,27.24-32.5,44.29-1,12.43,4.16,27.41,14.91,43.34,10.61,15.71,25.65,30.89,43.52,43.92,48.08,35.06,102.17,45.1,144.7,26.84,30.84-13.24,56.92-41.82,71.55-78.39,7.77-19.44,11.71-39.63,11.71-58.46Z"/><path class="cls-2" d="m585.96,113.38c0-14.78-2.42-28.72-7.32-40.79-11.38-28.09-29.33-42.25-42.38-49.18-22.37-11.88-43.7-14.55-60.07-7.53-17.47,7.49-23.64,23-30.18,39.42-5.96,14.96-12.12,30.44-27.44,40.24-13.8,8.84-27.29,4-41.57-1.11-14.15-5.07-28.78-10.31-44.94-2.59-17.16,8.2-31.13,27.24-32.5,44.29-1,12.43,4.16,27.41,14.91,43.34,10.61,15.7,25.65,30.89,43.52,43.92,48.08,35.06,102.17,45.1,144.7,26.84,30.84-13.24,56.92-41.82,71.55-78.39,7.77-19.44,11.71-39.63,11.71-58.46Z"/><path class="cls-2" d="m840.08,240.06c0-14.78-2.42-28.71-7.32-40.79-11.38-28.09-29.33-42.25-42.38-49.18-22.37-11.88-43.7-14.55-60.07-7.53-17.47,7.49-23.64,23-30.18,39.42-5.96,14.96-12.12,30.44-27.44,40.24-13.8,8.84-27.29,4-41.57-1.11-14.15-5.07-28.78-10.31-44.94-2.59-17.16,8.2-31.13,27.24-32.5,44.29-1,12.43,4.16,27.41,14.91,43.34,10.61,15.7,25.65,30.89,43.52,43.92,48.08,35.06,102.17,45.1,144.7,26.84,30.84-13.24,56.92-41.82,71.55-78.39,7.77-19.44,11.71-39.63,11.71-58.46Z"/><path class="cls-2" d="m212.96,53.5c0-14.78-2.42-28.72-7.32-40.79-11.38-28.09-29.33-42.25-42.38-49.18-22.37-11.88-43.7-14.55-60.07-7.53-17.47,7.49-23.64,23-30.18,39.42-5.96,14.96-12.12,30.44-27.44,40.24-13.8,8.84-27.29,4-41.57-1.11-14.15-5.07-28.78-10.31-44.94-2.59-17.16,8.2-31.13,27.24-32.5,44.29-1,12.43,4.16,27.41,14.91,43.34,10.61,15.7,25.65,30.89,43.52,43.92,48.08,35.06,102.17,45.1,144.7,26.84,30.84-13.24,56.92-41.82,71.55-78.39,7.77-19.44,11.71-39.63,11.71-58.46Z"/><path class="cls-3" d="m208.43,349.14c-1.05,0-2.07-.04-3.09-.12-17.06-1.4-36.1-15.67-44.3-33.18-7.74-16.55-2.52-31.45,2.54-45.86,5.01-14.29,9.75-27.79,1.16-41.5-9.6-15.32-24.83-21.51-39.55-27.5-16.36-6.65-31.82-12.94-39.33-30.81-7.02-16.71-4.36-38.44,7.47-61.21,6.9-13.28,21-31.53,48.96-43.1h0c27.3-11.3,64.17-9.64,98.64,4.44,36.33,14.84,64.72,41.31,77.88,72.63,9.71,23.11,11.57,48.82,5.51,76.44-5.25,23.95-16.36,48.29-32.13,70.37-25.72,36.02-58.9,59.42-83.77,59.42Zm-25.55-290.14c-14.62,0-28.41,2.45-40.36,7.39-27.79,11.5-41.8,29.64-48.66,42.83-11.75,22.6-14.4,44.16-7.45,60.7,7.41,17.65,22.76,23.89,39.01,30.5,14.81,6.02,30.12,12.25,39.82,27.73,8.74,13.95,3.96,27.58-1.1,42.01-5.02,14.3-10.21,29.09-2.56,45.42,8.11,17.34,26.95,31.46,43.82,32.84,12.3,1.01,27.12-4.2,42.88-15.07,15.54-10.72,30.57-25.93,43.46-43.98,34.7-48.59,44.62-103.26,26.56-146.23-13.1-31.17-41.38-57.53-77.57-72.31-19.23-7.86-39.21-11.83-57.84-11.83Z"/><path class="cls-3" d="m435.65,513.96c-.92.51-1.84.97-2.77,1.39-15.63,7.06-39.11,3.8-54.63-7.58-14.66-10.75-17.16-26.36-19.58-41.46-2.4-14.97-4.66-29.11-18.72-36.95-15.71-8.77-32-6.81-47.76-4.9-17.51,2.11-34.06,4.11-49.14-7.92-14.1-11.24-22.11-31.59-22.55-57.3-.26-15,3.42-37.85,22.44-61.58h0c18.57-23.17,51.69-39.63,88.61-44.02,38.92-4.63,76.4,4.8,102.84,25.86,19.51,15.54,33.36,37.2,41.18,64.36,6.78,23.56,8.61,50.29,5.29,77.31-5.42,44.08-23.4,80.71-45.21,92.79Zm-160.38-242.02c-12.82,7.1-23.75,15.95-31.88,26.09-18.9,23.59-22.56,46.3-22.31,61.2.44,25.53,8.37,45.72,22.33,56.85,14.9,11.88,31.32,9.9,48.71,7.8,15.85-1.91,32.23-3.89,48.11,4.97,14.3,7.99,16.59,22.26,19.01,37.38,2.4,14.98,4.88,30.47,19.35,41.07,15.36,11.26,38.6,14.5,54.05,7.52,11.27-5.09,21.79-16.86,30.44-34.04,8.53-16.95,14.48-37.58,17.19-59.68,7.32-59.46-9.97-112.23-46.25-141.14-26.31-20.97-63.64-30.35-102.41-25.74-20.6,2.45-40.01,8.67-56.35,17.72Z"/><path class="cls-3" d="m711,604.44c-.92.51-1.84.97-2.77,1.39-15.63,7.06-39.11,3.8-54.63-7.58-14.66-10.75-17.16-26.36-19.58-41.46-2.4-14.97-4.66-29.11-18.72-36.95-15.71-8.77-32-6.81-47.76-4.9-17.51,2.11-34.06,4.11-49.14-7.92-14.1-11.24-22.11-31.59-22.55-57.3-.26-15,3.42-37.85,22.44-61.58h0c18.57-23.17,51.69-39.63,88.61-44.02,38.92-4.63,76.4,4.8,102.84,25.86,19.51,15.54,33.36,37.2,41.18,64.36,6.78,23.56,8.61,50.29,5.29,77.31-5.42,44.08-23.4,80.71-45.21,92.79Zm-160.38-242.02c-12.82,7.1-23.75,15.95-31.88,26.09-18.9,23.59-22.56,46.3-22.31,61.2.44,25.53,8.37,45.72,22.33,56.85,14.9,11.88,31.32,9.9,48.71,7.8,15.85-1.91,32.23-3.89,48.11,4.97,14.3,7.99,16.59,22.26,19.01,37.38,2.4,14.98,4.88,30.47,19.35,41.07,15.36,11.26,38.6,14.5,54.05,7.52,11.27-5.09,21.79-16.86,30.44-34.04,8.53-16.95,14.48-37.58,17.19-59.68,7.32-59.46-9.97-112.23-46.25-141.14-26.31-20.97-63.64-30.35-102.41-25.74-20.6,2.45-40.01,8.67-56.35,17.72Z"/><path class="cls-3" d="m728.09,216.77c-.92.51-1.84.97-2.77,1.39-15.63,7.06-39.11,3.8-54.63-7.58-14.66-10.75-17.16-26.36-19.58-41.45-2.4-14.97-4.66-29.11-18.72-36.95-15.71-8.77-32-6.81-47.76-4.9-17.51,2.11-34.06,4.11-49.14-7.92-14.1-11.24-22.11-31.59-22.55-57.3-.26-15,3.42-37.85,22.44-61.58h0c18.57-23.17,51.69-39.63,88.61-44.02,38.92-4.63,76.4,4.8,102.84,25.86,19.51,15.54,33.36,37.2,41.18,64.36,6.78,23.56,8.61,50.29,5.29,77.31-5.42,44.08-23.4,80.71-45.21,92.79ZM567.71-25.25c-12.82,7.1-23.75,15.95-31.88,26.09-18.9,23.59-22.56,46.3-22.31,61.2.44,25.53,8.37,45.72,22.33,56.85,14.9,11.88,31.32,9.9,48.71,7.8,15.85-1.91,32.23-3.89,48.11,4.97,14.3,7.99,16.59,22.26,19.01,37.38,2.4,14.98,4.88,30.47,19.35,41.07,15.36,11.26,38.6,14.5,54.05,7.52,11.27-5.09,21.79-16.86,30.44-34.04,8.53-16.95,14.48-37.58,17.2-59.68,7.32-59.46-9.97-112.23-46.25-141.14-26.31-20.97-63.64-30.35-102.41-25.74-20.6,2.45-40.01,8.67-56.35,17.72Z"/></g></g><g class="cls-15"><path class="cls-9" d="m415.09,289.61c.3-5.2.17-10.42-.42-15.6-2.75-24.31-15.22-47.23-33.58-63.4-6.55-5.77-14-10.94-18.26-18.55-7.18-12.83-6.63-27.56-15.54-40.23-8.92-12.68-21.91-22.56-36.56-27.64-43.69-15.14-104.86,9.51-99.35,62.15.02.19.04.46.06.81.73,10.93-7.85,20.13-18.77,20.39-40.31.96-75.01,32.04-82.44,71.41-4.77,25.32,3.04,53.07,21.56,70.98,13.82,13.37,32.37,20.71,50.93,25.76,37.21,10.12,76.37,12.24,114.73,8.37,35.91-3.62,73.8-13.95,97.02-41.58,12.39-14.74,19.49-33.64,20.61-52.87Z"/></g><g class="cls-4"><path class="cls-9" d="m381.94,292.09c.24-4.07.13-8.17-.33-12.22-2.16-19.04-11.93-37-26.3-49.66-5.13-4.52-10.97-8.57-14.3-14.53-5.62-10.05-5.2-21.59-12.17-31.51-6.99-9.93-17.16-17.68-28.64-21.65-34.23-11.86-82.15,7.45-77.83,48.69.02.15.03.36.05.64.57,8.57-6.15,15.77-14.71,15.97-31.58.75-58.76,25.1-64.58,55.94-3.74,19.83,2.38,41.57,16.89,55.61,10.83,10.47,25.36,16.23,39.9,20.18,29.15,7.93,59.82,9.59,89.88,6.56,28.13-2.84,57.81-10.93,76.01-32.57,9.71-11.55,15.27-26.35,16.14-41.42Z"/></g><circle class="cls-10" cx="396.58" cy="159.06" r="9.86" transform="translate(150.31 508.24) rotate(-76.66)"/><circle class="cls-10" cx="180.05" cy="147.63" r="11.43" transform="translate(-51.65 170.55) rotate(-45)"/><circle class="cls-10" cx="111.59" cy="367.22" r="14.76"/><circle class="cls-8" cx="228.09" cy="198.39" r="52.33"/><path class="cls-12" d="m264.42,236.08c-.13,0-.26-.05-.35-.15-.2-.2-.2-.51,0-.71,9.79-9.79,15.18-22.81,15.18-36.65s-5.39-26.86-15.18-36.65c-9.79-9.79-22.81-15.18-36.65-15.18s-26.86,5.39-36.65,15.18c-.2.2-.51.2-.71,0-.2-.2-.2-.51,0-.71,9.98-9.98,23.25-15.47,37.36-15.47s27.38,5.5,37.36,15.47c9.98,9.98,15.47,23.25,15.47,37.36s-5.5,27.38-15.47,37.36c-.1.1-.23.15-.35.15Z"/><circle class="cls-1" cx="228.09" cy="198.39" r="39.82"/><path class="cls-12" d="m228.09,238.71c-22.23,0-40.32-18.09-40.32-40.32s18.09-40.32,40.32-40.32c.28,0,.5.22.5.5s-.22.5-.5.5c-21.68,0-39.32,17.64-39.32,39.32s17.64,39.32,39.32,39.32c.28,0,.5.22.5.5s-.22.5-.5.5Z"/><path class="cls-12" d="m238.4,206h-10.83c-2.22,0-4.03-1.81-4.03-4.03v-15.02c0-1.93,1.57-3.5,3.5-3.5s3.5,1.57,3.5,3.5v12.05h7.86c1.93,0,3.5,1.57,3.5,3.5s-1.57,3.5-3.5,3.5Z"/><path class="cls-12" d="m146.84,216.57l56.37,56.37c11.03,11.03,28.91,11.03,39.93,0l6.74-6.74c2.54-2.54,2.54-6.67,0-9.22l-23-23c-2.54-2.54-6.67-2.54-9.22,0l-11.5,11.5c-.9.9-2.36.9-3.26,0l-27.9-27.9c-.89-.89-.89-2.33,0-3.22l11.34-11.34c2.54-2.54,2.54-6.67,0-9.22l-23.63-23.63c-2.51-2.51-6.58-2.55-9.13-.08l-6.4,6.18c-11.36,10.97-11.51,29.11-.35,40.28Z"/><path class="cls-6" d="m148.61,177.43l31.68,31.68,1.09-1.09,4.99-4.99c2.54-2.54,2.54-6.67,0-9.22l-23.63-23.63c-2.51-2.51-6.58-2.55-9.13-.08l-6.4,6.18,1.41,1.14Z"/><path class="cls-12" d="m180.28,209.81l-32.01-32.01-1.83-1.47,6.81-6.58c2.73-2.64,7.15-2.6,9.83.09l23.63,23.63c2.74,2.74,2.74,7.19,0,9.92l-6.42,6.42Zm-32.33-33.55l1.01.82,31.32,31.32,5.72-5.72c1.14-1.14,1.76-2.65,1.76-4.25s-.63-3.12-1.76-4.25l-23.63-23.63c-2.31-2.31-6.09-2.34-8.43-.07l-5.99,5.79Z"/><path class="cls-6" d="m213.04,240.78l31.68,31.68,1.09-1.09,4.99-4.99c2.54-2.54,2.54-6.67,0-9.22l-23.63-23.63c-2.51-2.51-6.58-2.55-9.13-.08l-6.4,6.18,1.41,1.14Z"/><path class="cls-12" d="m244.72,273.16l-32.01-32.01-1.83-1.47,6.81-6.58c2.74-2.64,7.15-2.6,9.83.09l23.63,23.63c1.33,1.33,2.05,3.09,2.05,4.96s-.73,3.64-2.05,4.96l-6.43,6.42Zm-32.33-33.55l1.01.82,31.32,31.32,5.72-5.72c1.14-1.14,1.76-2.65,1.76-4.25s-.63-3.12-1.76-4.25l-23.63-23.63c-2.31-2.3-6.09-2.34-8.43-.07l-5.99,5.79Z"/><line class="cls-6" x1="151.03" y1="173.69" x2="170.33" y2="192.99"/><path class="cls-12" d="m170.33,193.49c-.13,0-.26-.05-.35-.15l-19.3-19.3c-.2-.2-.2-.51,0-.71.2-.2.51-.2.71,0l19.3,19.3c.2.2.2.51,0,.71-.1.1-.23.15-.35.15Z"/><line class="cls-6" x1="227.81" y1="250.47" x2="247.11" y2="269.77"/><path class="cls-12" d="m247.11,270.27c-.13,0-.26-.05-.35-.15l-19.3-19.3c-.2-.2-.2-.51,0-.71.2-.2.51-.2.71,0l19.3,19.3c.2.2.2.51,0,.71-.1.1-.23.15-.35.15Z"/><path class="cls-12" d="m331.8,368.93l-73.9-10.93c-8.36-1.24-14.13-9.01-12.89-17.37l26.5-179.18c1.24-8.36,9.01-14.13,17.37-12.89l73.9,10.93c8.36,1.24,14.13,9.01,12.89,17.37l-26.5,179.18c-1.24,8.36-9.01,14.13-17.37,12.89Z"/><rect class="cls-6" x="225.12" y="210.3" width="171.05" height="92.75" transform="translate(11.28 526.42) rotate(-81.59)"/><rect class="cls-8" x="315.8" y="132.04" width="12.84" height="92.75" transform="translate(98.58 471.06) rotate(-81.59)"/><path class="cls-6" d="m296.58,357.77c-.29,0-.58-.02-.88-.07-1.58-.23-2.98-1.07-3.93-2.35-.95-1.29-1.35-2.86-1.12-4.45.23-1.58,1.07-2.98,2.35-3.93,1.28-.95,2.87-1.35,4.44-1.11,1.58.23,2.98,1.07,3.93,2.35.95,1.28,1.35,2.86,1.12,4.45-.44,2.97-3,5.11-5.92,5.11Zm-.02-10.98c-1.06,0-2.09.34-2.96.98-1.07.79-1.77,1.96-1.96,3.28-.2,1.32.13,2.63.93,3.7.79,1.07,1.96,1.77,3.28,1.96,2.72.4,5.26-1.48,5.66-4.21.19-1.32-.14-2.63-.93-3.7-.79-1.07-1.96-1.77-3.28-1.96-.25-.04-.5-.05-.74-.05Z"/><path class="cls-6" d="m309.84,163.67c-.09,0-.19,0-.28-.02-.51-.08-.96-.34-1.26-.76-.31-.41-.43-.92-.36-1.43s.34-.96.76-1.26c.41-.31.92-.44,1.43-.36.51.07.96.34,1.26.76.31.41.43.92.36,1.43h0c-.14.96-.97,1.64-1.9,1.64Zm0-2.85c-.2,0-.39.06-.55.18-.2.15-.33.36-.36.61-.04.24.02.49.17.69.15.2.36.33.61.36.25.04.49-.03.69-.17.2-.15.33-.36.36-.61h0c.04-.25-.03-.49-.17-.69-.15-.2-.36-.33-.61-.36-.05,0-.09-.01-.14-.01Z"/><path class="cls-6" d="m339.64,168.07c-.1,0-.19,0-.29-.02l-23.41-3.46c-.51-.08-.96-.34-1.26-.76-.31-.41-.43-.92-.36-1.43s.34-.96.76-1.26c.41-.31.92-.43,1.43-.36l23.41,3.46c.51.08.96.34,1.26.76.31.41.43.92.36,1.43s-.34.96-.76,1.26c-.34.25-.73.38-1.14.38Zm-23.41-6.31c-.45,0-.85.33-.92.79-.04.24.02.49.17.69.15.2.36.33.61.36l23.41,3.46c.5.08.98-.27,1.05-.78.04-.24-.02-.49-.17-.69-.15-.2-.36-.33-.61-.36l-23.41-3.46s-.09-.01-.14-.01Z"/><path class="cls-9" d="m344.39,296.29l-64-9.47c-1.04-.15-2.01.57-2.17,1.61l-2.46,16.6c-.15,1.04.57,2.01,1.61,2.17l54.72,8.09,5.64,7.78,1-6.79,2.64.39c1.04.15,2.01-.57,2.17-1.61l2.46-16.6c.15-1.04-.57-2.01-1.61-2.17Z"/><path class="cls-12" d="m332.09,315.79s-.05,0-.07,0l-54.72-8.09c-.64-.09-1.2-.43-1.58-.95-.38-.52-.54-1.15-.45-1.79l2.46-16.6c.19-1.31,1.42-2.24,2.73-2.03l14.79,2.19c.27.04.46.29.42.57-.04.27-.3.46-.57.42l-14.79-2.19c-.77-.11-1.48.42-1.6,1.19l-2.46,16.6c-.05.37.04.74.26,1.04.22.3.55.5.92.55l54.72,8.09c.27.04.46.29.42.57-.04.25-.25.43-.49.43Z"/><path class="cls-9" d="m354.56,227.49l-64-9.47c-1.04-.15-2.01.57-2.17,1.61l-2.46,16.6c-.15,1.04.57,2.01,1.61,2.17l54.72,8.09,5.64,7.78,1-6.79,2.64.39c1.04.15,2.01-.57,2.17-1.61l2.46-16.6c.15-1.04-.57-2.01-1.61-2.17Z"/><path class="cls-12" d="m348.22,255.55l-6.23-8.6-54.51-8.06c-1.31-.19-2.22-1.42-2.03-2.73.04-.27.29-.45.57-.42.27.04.46.29.42.57-.06.37.04.74.26,1.04.22.3.55.5.92.55l54.93,8.12,5.04,6.95.9-6.07,3.14.46c.37.05.74-.04,1.04-.26.3-.22.5-.55.55-.92l1.63-11.05c.04-.27.29-.46.57-.42.27.04.46.29.42.57l-1.63,11.05c-.09.64-.43,1.2-.95,1.58-.52.38-1.15.54-1.79.45l-2.15-.32-1.11,7.51Z"/><path class="cls-8" d="m273.55,248.88l64,9.47c1.04.15,1.76,1.12,1.61,2.17l-2.46,16.6c-.15,1.04-1.12,1.76-2.17,1.61l-54.72-8.09-7.65,5.81,1-6.79-2.64-.39c-1.04-.15-1.76-1.12-1.61-2.17l2.46-16.6c.15-1.04,1.12-1.76,2.17-1.61Z"/><path class="cls-12" d="m334.82,279.25c-.12,0-.24,0-.36-.03l-34.16-5.05c-.27-.04-.46-.29-.42-.57.04-.27.29-.46.57-.42l34.16,5.05c.37.05.74-.04,1.04-.26.3-.22.5-.55.55-.92l2.46-16.6c.11-.77-.42-1.48-1.19-1.6-.27-.04-.46-.29-.42-.57.04-.27.29-.46.57-.42,1.31.19,2.22,1.42,2.03,2.73l-2.46,16.6c-.09.64-.43,1.2-.95,1.58-.42.31-.92.47-1.43.47Z"/><rect class="cls-1" x="291.42" y="287.12" width="15.74" height="92.75" transform="translate(-74.41 580.76) rotate(-81.59)"/><path class="cls-9" d="m268.1,328.74c-.45,3.05-3.29,5.15-6.34,4.7-3.05-.45-5.15-3.29-4.7-6.34.45-3.05,3.29-5.15,6.34-4.7,3.05.45,5.15,3.29,4.7,6.34Z"/><path class="cls-7" d="m335.77,343.86c-.24,0-.49-.02-.73-.05l-59.46-8.8c-1.31-.19-2.47-.89-3.27-1.96-.79-1.07-1.12-2.38-.93-3.69.4-2.71,2.94-4.6,5.65-4.19l59.46,8.79c2.71.4,4.6,2.93,4.19,5.65-.37,2.47-2.5,4.25-4.92,4.25Zm-.58-1.04c2.17.32,4.19-1.18,4.52-3.35.16-1.05-.11-2.1-.74-2.95-.63-.85-1.56-1.41-2.61-1.56l-59.46-8.8c-2.17-.32-4.19,1.18-4.51,3.35-.16,1.05.11,2.1.74,2.95.63.85,1.56,1.41,2.61,1.56l59.46,8.8Z"/><path class="cls-1" d="m282.99,174.41c-.09,0-.19,0-.29-.02-1.07-.16-1.81-1.15-1.65-2.22.08-.52.35-.97.77-1.29.42-.31.94-.44,1.45-.36,1.07.16,1.81,1.15,1.65,2.22h0c-.14.97-.98,1.67-1.94,1.67Zm0-2.92c-.2,0-.4.06-.57.19-.21.15-.34.38-.38.63-.04.25.03.51.18.71.15.21.38.34.63.38.52.08,1.01-.28,1.09-.81h0c.04-.25-.03-.51-.18-.71-.15-.21-.38-.34-.63-.38-.05,0-.1-.01-.14-.01Z"/><path class="cls-1" d="m288.41,175.21c-.1,0-.19,0-.29-.02-1.07-.16-1.81-1.15-1.65-2.22.16-1.07,1.16-1.8,2.22-1.65.52.08.97.35,1.29.77.31.42.44.94.36,1.45-.08.52-.35.97-.77,1.29-.34.25-.75.39-1.16.39Zm0-2.92c-.47,0-.88.34-.95.82-.04.25.03.51.18.71.15.21.38.34.63.38.25.04.51-.03.71-.18.21-.15.34-.38.38-.63h0c.04-.25-.03-.51-.18-.71-.15-.21-.38-.34-.63-.38-.05,0-.09-.01-.14-.01Z"/><path class="cls-1" d="m293.72,176c-.09,0-.19,0-.29-.02-1.07-.16-1.81-1.16-1.65-2.22.16-1.07,1.16-1.81,2.22-1.65,1.07.16,1.81,1.16,1.65,2.22-.14.97-.98,1.67-1.94,1.67Zm0-2.92c-.2,0-.4.07-.57.19-.21.15-.34.38-.38.63-.04.25.03.51.18.71.15.21.38.34.63.38.52.07,1.01-.29,1.09-.81.08-.52-.29-1.01-.81-1.09-.05,0-.09-.01-.14-.01Z"/><path class="cls-12" d="m368.4,192.23s-.05,0-.07,0l-84.93-12.56c-.27-.04-.46-.29-.42-.57.04-.27.29-.46.57-.42l84.93,12.56c.27.04.46.29.42.57-.04.25-.25.43-.49.43Z"/><path class="cls-1" d="m333,300.11s-.05,0-.07,0l-45.31-6.7c-.27-.04-.46-.29-.42-.57.04-.27.29-.47.57-.42l45.31,6.7c.27.04.46.29.42.57-.04.25-.25.43-.49.43Z"/><path class="cls-1" d="m306.17,301.67s-.05,0-.07,0l-19.29-2.85c-.27-.04-.46-.29-.42-.57.04-.27.29-.46.57-.42l19.29,2.85c.27.04.46.29.42.57-.04.25-.25.43-.49.43Z"/><path class="cls-1" d="m299.67,305.88s-.05,0-.07,0l-13.54-2c-.27-.04-.46-.29-.42-.57.04-.27.3-.46.57-.42l13.54,2c.27.04.46.29.42.57-.04.25-.25.43-.49.43Z"/><path class="cls-1" d="m332.2,305.52s-.05,0-.07,0l-19.93-2.95c-.27-.04-.46-.29-.42-.57.04-.27.29-.46.57-.42l19.93,2.95c.27.04.46.29.42.57-.04.25-.25.43-.49.43Z"/><path class="cls-1" d="m327.46,262.51s-.05,0-.07,0l-45.31-6.7c-.27-.04-.46-.29-.42-.57.04-.27.29-.47.57-.42l45.31,6.7c.27.04.46.29.42.57-.04.25-.25.43-.49.43Z"/><path class="cls-1" d="m300.64,264.07s-.05,0-.07,0l-19.29-2.85c-.27-.04-.46-.29-.42-.57.04-.27.29-.46.57-.42l19.29,2.85c.27.04.46.29.42.57-.04.25-.25.43-.49.43Z"/><path class="cls-1" d="m320.68,272.2s-.05,0-.08,0l-39.11-6.07c-.27-.04-.46-.3-.42-.57.04-.27.3-.46.57-.42l39.11,6.07c.27.04.46.3.42.57-.04.25-.25.42-.49.42Z"/><path class="cls-1" d="m326.66,267.92s-.05,0-.07,0l-19.93-2.95c-.27-.04-.46-.29-.42-.57.04-.27.29-.46.57-.42l19.93,2.95c.27.04.46.29.42.57-.04.25-.25.43-.49.43Z"/><path class="cls-8" d="m281.77,186.46l64,9.47c1.04.15,1.76,1.12,1.61,2.17l-2.46,16.6c-.15,1.04-1.12,1.76-2.17,1.61l-54.72-8.09-7.65,5.81,1-6.79-2.64-.39c-1.04-.15-1.76-1.12-1.61-2.17l2.46-16.6c.15-1.04,1.12-1.76,2.17-1.61Z"/><path class="cls-12" d="m344.92,215.2s-.05,0-.07,0c-.27-.04-.46-.29-.42-.57l2.46-16.6c.06-.37-.04-.74-.26-1.04-.22-.3-.55-.5-.92-.55l-39.74-5.88c-.27-.04-.46-.29-.42-.57.04-.27.3-.46.57-.42l39.74,5.88c.64.09,1.2.43,1.58.95.38.52.54,1.15.45,1.79l-2.46,16.6c-.04.25-.25.43-.49.43Z"/><path class="cls-1" d="m335.68,200.09s-.05,0-.07,0l-45.31-6.7c-.27-.04-.46-.29-.42-.57.04-.27.29-.46.57-.42l45.31,6.7c.27.04.46.29.42.57-.04.25-.25.43-.49.43Z"/><path class="cls-1" d="m308.86,201.65s-.05,0-.07,0l-19.29-2.85c-.27-.04-.46-.29-.42-.57.04-.27.29-.46.57-.42l19.29,2.85c.27.04.46.29.42.57-.04.25-.25.43-.49.43Z"/><path class="cls-1" d="m328.9,209.78s-.05,0-.08,0l-39.11-6.07c-.27-.04-.46-.3-.42-.57.04-.27.3-.46.57-.42l39.11,6.07c.27.04.46.3.42.57-.04.25-.25.42-.49.42Z"/><path class="cls-1" d="m334.88,205.5s-.05,0-.07,0l-19.93-2.95c-.27-.04-.46-.29-.42-.57.04-.27.29-.46.57-.42l19.93,2.95c.27.04.46.29.42.57-.04.25-.25.43-.49.43Z"/><path class="cls-1" d="m343.21,231.95s-.05,0-.07,0l-45.31-6.7c-.27-.04-.46-.29-.42-.57.04-.27.29-.46.57-.42l45.31,6.7c.27.04.46.29.42.57-.04.25-.25.43-.49.43Z"/><path class="cls-1" d="m316.39,233.51s-.05,0-.07,0l-19.29-2.85c-.27-.04-.46-.29-.42-.57.04-.27.3-.46.57-.42l19.29,2.85c.27.04.46.29.42.57-.04.25-.25.43-.49.43Z"/><path class="cls-1" d="m309.89,237.71s-.05,0-.07,0l-13.54-2c-.27-.04-.46-.29-.42-.57.04-.27.29-.46.57-.42l13.54,2c.27.04.46.29.42.57-.04.25-.25.43-.49.43Z"/><path class="cls-1" d="m342.41,237.35s-.05,0-.07,0l-19.93-2.95c-.27-.04-.46-.29-.42-.57.04-.27.29-.46.57-.42l19.93,2.95c.27.04.46.29.42.57-.04.25-.25.43-.49.43Z"/><path class="cls-17" d="m251.07,353.56l-102.65,11.57c-1.97.22-3.75-1.2-3.97-3.17l-7.41-65.76c-.01-.1.06-.2.17-.21l109.4-12.33c.1-.01.2.06.21.17l7.41,65.79c.22,1.96-1.19,3.73-3.15,3.95Z"/><path class="cls-12" d="m148.01,365.65c-2.05,0-3.83-1.55-4.06-3.64l-7.41-65.76c-.04-.38.23-.72.61-.76l109.4-12.33c.38-.04.72.23.76.61l7.41,65.79c.12,1.08-.18,2.14-.86,2.99-.68.85-1.65,1.38-2.73,1.51l-102.66,11.57c-.15.02-.31.03-.46.03Zm-10.45-69.2l7.37,65.46c.19,1.69,1.72,2.92,3.42,2.73l102.65-11.57.06.5-.06-.5c.81-.09,1.54-.5,2.06-1.14.51-.64.74-1.44.65-2.26l-7.38-65.48-108.78,12.26Z"/><path class="cls-11" d="m246.26,353.56l-92.82,11.57c-1.97.22,28.76-39.2,28.54-41.17l-44.94-27.76c-.01-.1.06-.2.17-.21l109.4-12.33c.1-.01.2.06.21.17l-37.42,37.04c.22,1.96,38.84,32.48,36.88,32.7Z"/><path class="cls-17" d="m137.2,295.98l45.24-44.74c2.7-2.68,6.88-3.15,10.11-1.15l53.77,33.39c.09.06.06.2-.05.21l-109.26,12.31"/><path class="cls-12" d="m137.07,296.5l-.08-.74-.14-.14.11-.11h0s.02-.01.02-.01l45.12-44.62c2.87-2.85,7.28-3.35,10.72-1.22l53.77,33.4c.22.14.33.4.28.65-.06.25-.27.45-.53.48l-109.26,12.31Zm51.15-47.15c-1.98,0-3.94.76-5.43,2.24l-44.21,43.73,106.53-12-52.83-32.81c-1.26-.78-2.67-1.16-4.06-1.16Z"/><path class="cls-11" d="m137.2,295.98l45.24-44.74c2.7-2.68,6.88-3.15,10.11-1.15l53.77,33.39c.09.06.06.2-.05.21l-109.26,12.31"/><path class="cls-17" d="m187.44,317.05l-34.01,47.31,92.82-10.46-43.68-38.56c-4.56-4.02-11.59-3.23-15.14,1.71Z"/><path class="cls-12" d="m152.37,364.99l34.66-48.23.41.29-.41-.29c1.77-2.47,4.52-4.08,7.54-4.42,3.02-.34,6.06.62,8.33,2.63l44.53,39.31-95.06,10.71Zm43.4-51.71c-.36,0-.73.02-1.09.06-2.74.31-5.23,1.77-6.84,4.01l-33.35,46.4,90.59-10.21-42.84-37.81c-1.79-1.58-4.1-2.45-6.47-2.45Z"/><path class="cls-1" d="m142.72,263.57l71.5-8.06c4.69-.53,8.86,2.34,9.32,6.41l4.6,40.79-19.88,18.28-26.27,2.96-25.95-16.23-4.45-39.52-8.85-4.63Z"/><path class="cls-12" d="m181.86,324.47l-26.31-16.45-4.45-39.49-6.81-5.63,69.87-7.87c2.39-.27,4.72.29,6.58,1.57,1.88,1.29,3.05,3.17,3.29,5.29l4.62,41.04-20.19,18.56-26.61,3Zm-25.37-17.04l25.6,16.01,25.94-2.92,19.58-17.99-4.57-40.54c-.21-1.82-1.22-3.45-2.86-4.57-1.66-1.14-3.76-1.64-5.9-1.4l-69.88,7.87,7.64,3.99,4.45,39.54Z"/><path class="cls-11" d="m187.44,312.97l-34.01,51.4,92.82-10.46-43.68-42.64c-4.56-4.02-11.59-3.23-15.14,1.71Z"/><path class="cls-17" d="m187.44,317.05l-34.01,47.31,92.82-10.46-43.68-38.56c-4.56-4.02-11.59-3.23-15.14,1.71Z"/><path class="cls-12" d="m152.37,364.99l34.66-48.23.41.29-.41-.29c1.77-2.47,4.52-4.08,7.54-4.42,3.02-.34,6.06.62,8.33,2.63l44.53,39.31-95.06,10.71Zm43.4-51.71c-.36,0-.73.02-1.09.06-2.74.31-5.23,1.77-6.84,4.01l-33.35,46.4,90.59-10.21-42.84-37.81c-1.79-1.58-4.1-2.45-6.47-2.45Z"/><path class="cls-5" d="m190.74,327.53l-24.97,34.75,68.17-7.68-32.08-28.32c-3.35-2.95-8.51-2.37-11.12,1.25Z"/><line class="cls-17" x1="137.24" y1="296.07" x2="181.98" y2="323.95"/><rect class="cls-12" x="159.11" y="283.66" width="1" height="52.71" transform="translate(-187.91 281.52) rotate(-58.07)"/><line class="cls-17" x1="246.79" y1="283.73" x2="209.38" y2="320.86"/><rect class="cls-12" x="201.73" y="301.8" width="52.71" height="1" transform="translate(-146.77 248.52) rotate(-44.8)"/><path class="cls-6" d="m153.55,286.41l-12.48,1.41-2.01-17.8c-.37-3.29,2-6.26,5.28-6.63l.57-.06c3.29-.37,6.26,2,6.63,5.28l2.01,17.8Z"/><path class="cls-12" d="m140.63,288.37l-2.06-18.3c-.19-1.72.29-3.42,1.38-4.78,1.08-1.36,2.63-2.21,4.35-2.4l.57-.06c1.73-.19,3.42.29,4.77,1.38,1.36,1.08,2.21,2.63,2.4,4.35l2.06,18.3-13.47,1.52Zm4.97-24.58c-.21,0-.42.01-.63.04l-.57.06c-1.46.16-2.76.89-3.68,2.03-.91,1.15-1.33,2.58-1.16,4.04l1.95,17.31,11.48-1.29-1.95-17.31c-.16-1.46-.89-2.76-2.03-3.68-.98-.78-2.18-1.2-3.41-1.2Z"/><path class="cls-12" d="m162.03,277.14c-.25,0-.47-.19-.5-.44-.03-.27.17-.52.44-.55l51.81-5.84c.28-.03.52.17.55.44.03.27-.17.52-.44.55l-51.81,5.84s-.04,0-.06,0Z"/><path class="cls-12" d="m164.01,294.75c-.25,0-.47-.19-.5-.44-.03-.27.17-.52.44-.55l51.8-5.84c.27-.03.52.17.55.44.03.27-.17.52-.44.55l-51.8,5.84s-.04,0-.06,0Z"/><path class="cls-12" d="m163.01,285.85c-.25,0-.47-.19-.5-.44-.03-.27.17-.52.44-.55l22.39-2.52c.27-.03.52.17.55.44.03.27-.17.52-.44.55l-22.39,2.52s-.04,0-.06,0Z"/><path class="cls-12" d="m191.25,282.66c-.25,0-.47-.19-.5-.44-.03-.27.17-.52.44-.55l23.56-2.65c.28-.03.52.17.55.44.03.27-.17.52-.44.55l-23.56,2.65s-.04,0-.06,0Z"/><path class="cls-12" d="m165.13,304.74c-.25,0-.47-.19-.5-.44-.03-.27.17-.52.44-.55l22.39-2.52c.27-.03.52.17.55.44.03.27-.17.52-.44.55l-22.39,2.52s-.04,0-.06,0Z"/></g></svg>