<?xml version="1.0" encoding="UTF-8"?><svg id="Layer_2" xmlns="http://www.w3.org/2000/svg" viewBox="0 0 21.59 42.68"><defs><style>.cls-1{fill:#cbff4d;}</style></defs><g id="Elements"><path class="cls-1" d="m21,20.86q-3.6-1.28-7.42-9.59c-.46,3.55-.83,6.06-1.09,8.58-.28,2.71-.54,5.42-.67,8.14-.18,3.68-.19,7.37-.38,11.05-.08,1.46.56,3.69-1.88,3.65-2.16-.04-2.16-2.19-2.13-3.69.09-5.44.29-10.87.64-16.3.2-3.02.77-6.01,1.25-9.54-3.82,3.08-4.65,8.13-9.32,10.67.09-1.6-.12-2.72.25-3.61C2.93,13.66,6.32,7.5,10.95,2.09c.41-.48.85-.98,1.37-1.34,1.93-1.34,3.98-.89,4.62,1.32,1.69,5.83,3.13,11.73,4.64,17.61.06.23-.26.55-.58,1.18Z"/></g></svg>