<?xml version="1.0" encoding="UTF-8"?><svg id="Layer_2" xmlns="http://www.w3.org/2000/svg" viewBox="0 0 47.18 32.79"><defs><style>.cls-1{fill:#1f1757;}</style></defs><g id="OBJECTS"><polygon class="cls-1" points="47.18 30.78 47.18 2.15 31.09 16.18 47.18 30.78"/><path class="cls-1" d="m0,1.57s0,.03,0,.05v28.96l16.07-14.59L0,1.57Z"/><path class="cls-1" d="m26.53,16.71L45.68.02s-.07-.02-.11-.02H2.14l18.57,16.67c1.65,1.48,4.15,1.5,5.81.04Z"/><path class="cls-1" d="m28.23,18.67c-1.31,1.14-2.95,1.71-4.58,1.71s-3.34-.59-4.66-1.78l-.98-.88L1.44,32.76c.06,0,.11.03.17.03h43.93l-16.42-14.9-.89.78Z"/></g></svg>