<?xml version="1.0" encoding="UTF-8"?><svg xmlns="http://www.w3.org/2000/svg" xmlns:xlink="http://www.w3.org/1999/xlink" viewBox="0 0 500.33 500"><defs><style>.cls-1{isolation:isolate;}.cls-2{clip-path:url(#clippath);}.cls-3{fill:none;}.cls-4{fill:url(#linear-gradient);}.cls-5{mix-blend-mode:overlay;opacity:.25;}.cls-6{fill:#eee;}</style><linearGradient id="linear-gradient" x1="106.49" y1="395.59" x2="443.97" y2="53.61" gradientUnits="userSpaceOnUse"><stop offset="0" stop-color="#0064e6"/><stop offset=".31" stop-color="#0095d0"/><stop offset=".62" stop-color="#00c0bd"/><stop offset=".86" stop-color="#00dbb2"/><stop offset="1" stop-color="#00e5ae"/></linearGradient><clipPath id="clippath"><rect class="cls-3" width="500.33" height="500"/></clipPath></defs><g class="cls-1"><g id="Layer_2"><g id="BACKGROUND"><rect class="cls-4" width="500.33" height="500"/><g class="cls-2"><g class="cls-5"><path class="cls-6" d="m-19.65,199.65c54.85,4.96,111.19-8.34,158.03-37.31,46.84-28.97,83.9-73.44,103.95-124.74,7.42-18.97,13.04-39.61,27.37-54.08,26.2-26.48,74.88-19.96,99.04,8.39,24.16,28.35,25.64,71.3,10.82,105.48-7.18,16.56-17.68,31.51-25,48s-11.29,35.72-4.67,52.51c8.15,20.71,30.9,32.79,53.09,34.52,22.19,1.74,44.09-5,65.14-12.24,16.31-5.61,32.85-11.64,50.09-12.12,17.24-.48,35.7,5.63,45.48,19.84,16.57,24.08.45,58.59-23.5,75.35-23.95,16.76-53.77,22.58-79.83,35.83-46.36,23.57-77.29,68.39-109.09,109.54-31.8,41.15-70,82.48-120.87,93.26-11.17,2.37-23.55,2.96-33.26-3.03-16.82-10.37-17.65-34.32-14.72-53.86,3.17-21.16,8.46-42.29,7.14-63.65-1.32-21.36-10.78-43.78-29.74-53.7-20.7-10.83-45.82-4.11-68.13,2.82-39.44,12.25-78.88,24.49-118.33,36.74-12.04,3.74-24.33,7.51-36.93,7.35-12.61-.17-25.82-4.94-33.09-15.23-13.03-18.46-2.1-43.7,8.96-63.4,24.96-44.45,49.93-88.89,74.89-133.34"/></g></g></g></g></g></svg>