<?xml version="1.0" encoding="UTF-8"?><svg id="Layer_2" xmlns="http://www.w3.org/2000/svg" xmlns:xlink="http://www.w3.org/1999/xlink" viewBox="0 0 384.63 400.03"><defs><style>.cls-1{fill:#e0b24c;}.cls-1,.cls-2,.cls-3,.cls-4,.cls-5,.cls-6,.cls-7,.cls-8,.cls-9,.cls-10,.cls-11,.cls-12,.cls-13,.cls-14,.cls-15,.cls-16,.cls-17,.cls-18,.cls-19,.cls-20,.cls-21,.cls-22,.cls-23,.cls-24,.cls-25,.cls-26,.cls-27,.cls-28,.cls-29,.cls-30,.cls-31,.cls-32,.cls-33,.cls-34,.cls-35{stroke-width:0px;}.cls-2{fill:url(#Degradado_sin_nombre_8-2);}.cls-3{fill:url(#Degradado_sin_nombre_2-4);}.cls-4{fill:url(#Degradado_sin_nombre_8);}.cls-5{fill:#8677b0;}.cls-6{fill:url(#Degradado_sin_nombre_8-4);}.cls-7{fill:url(#Degradado_sin_nombre_3);}.cls-8,.cls-31{opacity:.42;}.cls-8,.cls-33{fill:#1e124c;}.cls-9{fill:#5da37a;}.cls-10{fill:url(#Degradado_sin_nombre_4-2);}.cls-11{fill:#b91343;}.cls-12{fill:url(#Degradado_sin_nombre_2-2);}.cls-13{fill:#ba1343;}.cls-14{opacity:.5;}.cls-14,.cls-34{fill:#925014;}.cls-15{fill:none;}.cls-16{fill:url(#Degradado_sin_nombre_2-3);}.cls-17{fill:url(#Degradado_sin_nombre_10-2);opacity:.24;}.cls-18{fill:url(#Degradado_sin_nombre_4);}.cls-19{fill:url(#Degradado_sin_nombre_8-3);}.cls-20{fill:url(#Degradado_sin_nombre_9);}.cls-21{fill:#ecb57c;opacity:.86;}.cls-22{fill:url(#Degradado_sin_nombre_4-3);}.cls-23,.cls-29,.cls-31{fill:#790027;}.cls-24{fill:#d3584c;}.cls-25{opacity:.25;}.cls-25,.cls-26{fill:#fff;}.cls-27{fill:url(#Degradado_sin_nombre_2);}.cls-28{fill:url(#Degradado_sin_nombre_10);}.cls-29{opacity:.51;}.cls-30{fill:#c59654;}.cls-32{fill:url(#Degradado_sin_nombre_5);}.cls-35{fill:#c69348;}</style><linearGradient id="Degradado_sin_nombre_8" x1="184.46" y1="234.52" x2="274.47" y2="234.52" gradientTransform="translate(-56.85 91.4) rotate(-19.77)" gradientUnits="userSpaceOnUse"><stop offset="0" stop-color="#fff"/><stop offset="1" stop-color="#dcd0da"/></linearGradient><linearGradient id="Degradado_sin_nombre_10" x1="382.15" y1="-145.27" x2="455.13" y2="-145.27" gradientTransform="translate(-176.85 365.35) rotate(-1.56)" gradientUnits="userSpaceOnUse"><stop offset="0" stop-color="#fff"/><stop offset="1" stop-color="#fff" stop-opacity="0"/></linearGradient><linearGradient id="Degradado_sin_nombre_8-2" x1="200.6" y1="191.33" x2="254.39" y2="191.33" gradientTransform="translate(-60.64 99.49) rotate(-21.33)" xlink:href="#Degradado_sin_nombre_8"/><linearGradient id="Degradado_sin_nombre_10-2" x1="259.16" y1="171.79" x2="259.16" y2="274.94" gradientTransform="translate(-172.9 5.96) rotate(-1.46) scale(1.68 1) skewX(1.57)" xlink:href="#Degradado_sin_nombre_10"/><linearGradient id="Degradado_sin_nombre_8-3" x1="336.2" y1="114.29" x2="336.2" y2="285.23" gradientTransform="translate(89.28 -118.27) rotate(23.57)" xlink:href="#Degradado_sin_nombre_8"/><linearGradient id="Degradado_sin_nombre_8-4" x1="140.39" y1="143.24" x2="140.39" y2="240.51" gradientTransform="matrix(1,0,0,1,0,0)" xlink:href="#Degradado_sin_nombre_8"/><linearGradient id="Degradado_sin_nombre_5" x1="144.87" y1="242.42" x2="216.62" y2="242.42" gradientTransform="translate(-31.94 27.04) rotate(-7.71)" gradientUnits="userSpaceOnUse"><stop offset="0" stop-color="#d4584c"/><stop offset=".19" stop-color="#d55c4e"/><stop offset=".41" stop-color="#d86a55"/><stop offset=".64" stop-color="#de8161"/><stop offset=".88" stop-color="#e6a171"/><stop offset="1" stop-color="#ecb57c"/></linearGradient><linearGradient id="Degradado_sin_nombre_4" x1="47.41" y1="189.97" x2="137.71" y2="189.97" gradientUnits="userSpaceOnUse"><stop offset="0" stop-color="#345c67"/><stop offset="1" stop-color="#2a2f57"/></linearGradient><linearGradient id="Degradado_sin_nombre_4-2" x1="41.01" y1="81.26" x2="68.15" y2="81.26" gradientTransform="translate(-7.65 13.97) rotate(-13.17) scale(.87 .88)" xlink:href="#Degradado_sin_nombre_4"/><linearGradient id="Degradado_sin_nombre_4-3" x1="43.26" y1="78.49" x2="67.92" y2="78.49" xlink:href="#Degradado_sin_nombre_4"/><linearGradient id="Degradado_sin_nombre_3" x1="43.01" y1="316.94" x2="350.31" y2="316.94" gradientUnits="userSpaceOnUse"><stop offset="0" stop-color="#c69348"/><stop offset="1" stop-color="#925014"/></linearGradient><linearGradient id="Degradado_sin_nombre_9" x1="191.49" y1="373.04" x2="191.49" y2="148.55" gradientTransform="translate(30.31 -61.71) rotate(-4.24)" gradientUnits="userSpaceOnUse"><stop offset=".34" stop-color="#ba1343"/><stop offset="1" stop-color="#790027"/></linearGradient><linearGradient id="Degradado_sin_nombre_2" x1="183.2" y1="233.93" x2="228.48" y2="161.37" gradientTransform="translate(65.19 -150.98) rotate(8.41)" gradientUnits="userSpaceOnUse"><stop offset="0" stop-color="#ba1343"/><stop offset="1" stop-color="#790027"/></linearGradient><linearGradient id="Degradado_sin_nombre_2-2" x1="260.47" y1="112.79" x2="248.51" y2="65.51" gradientTransform="matrix(1,0,0,1,0,0)" xlink:href="#Degradado_sin_nombre_2"/><linearGradient id="Degradado_sin_nombre_2-3" x1="204.71" y1="41.79" x2="299.1" y2="41.79" gradientTransform="matrix(1,0,0,1,0,0)" xlink:href="#Degradado_sin_nombre_2"/><linearGradient id="Degradado_sin_nombre_2-4" x1="297.79" y1="71.19" x2="206.5" y2="47.22" gradientTransform="matrix(1,0,0,1,0,0)" xlink:href="#Degradado_sin_nombre_2"/></defs><g id="OBJECTS"><rect class="cls-4" x="201.92" y="192.86" width="72.98" height="83.25" rx="12.24" ry="12.24" transform="translate(-6.29 6.57) rotate(-1.56)"/><path class="cls-28" d="M261.48,192.22l-48.41,1.32c-6.78.18-12.12,5.83-11.94,12.61l.53,19.35c-.34-12.66,9.64-23.2,22.3-23.55l27.11-.74c12.66-.34,23.2,9.64,23.55,22.3l-.53-19.35c-.18-6.78-5.83-12.12-12.61-11.94Z"/><path class="cls-2" d="M264.11,182.61l-53.47,1.46.27,10.09h.03s-.03.05-.03.07c.02.8,12.01,1.12,26.78.72,14.77-.4,26.72-1.38,26.7-2.18,0-.02-.01-.05-.03-.07h.03s-.27-10.09-.27-10.09Z"/><path class="cls-11" d="M262.75,185.96l-50.57,1.38c-2.63.07-4.83-2-4.9-4.64h0c-.07-2.63,2-4.83,4.64-4.9l50.57-1.38c2.63-.07,4.83,2,4.9,4.64h0c.07,2.63-2,4.83-4.64,4.9Z"/><path class="cls-34" d="M328.02,209.56c9.88-14.16,10.91-44.73-.26-53.78,10.51-9.61,4.96-49.09-10.12-53.27,7.21-15.93-19.64-46.36-36.76-39.82-3.81-14.79-42.35-24.34-52.74-12.82-10.8-12.6-42.95-12.84-53.66,0-10.39-11.52-48.93-1.97-52.74,12.82-17.12-6.54-43.97,23.89-36.76,39.82-15.08,4.18-20.62,43.66-10.12,53.27-11.16,9.04-10.14,39.62-.26,53.78-6.88,6.09-6.89,16.73-7.07,26.04-.65,1.24,12.58.26,12.8.56,9.85-15.42,8.38-37.98-.6-53.62,9.87-15.11,9.13-35.86,3.6-52.68,11.37-13.58,16.26-30.22,20.7-46.96,16.47-4.39,31.39-12.44,44.67-23.36,17.44,4.76,35.89,3.74,52.47-4.33.05.02.09,0,.13-.07.04.06.08.09.13.07,16.58,8.07,35.03,9.09,52.47,4.33,13.28,10.91,28.2,18.97,44.67,23.36,4.45,16.75,9.33,33.38,20.7,46.96-5.53,16.83-6.26,37.57,3.6,52.68-8.98,15.64-10.45,38.2-.6,53.62.21-.29,13.45.68,12.8-.56-.18-9.31-.19-19.95-7.07-26.04Z"/><path class="cls-33" d="M323.25,283.4l-69.29-15.61-1.2,5.83s7.34,3.02,7.35,3.02c5.67-.29,11.01,1.95,16.2,3.9,3.26,1.23,7.8,3.89,11.26,3.96,7.61.14,14.04.42,21.18,3.26,4.14,1.65,9.16.1,13.3,1.74l1.2-6.1Z"/><path class="cls-5" d="M259.92,269.13l.8.18-1.56,6.94c-.23-.1-.48-.2-.77-.32l1.52-6.81Z"/><path class="cls-5" d="M267.11,270.75l.8.18-1.42,6.34c-.27-.06-.54-.12-.81-.17l1.42-6.35Z"/><path class="cls-5" d="M274.31,272.37l.8.18-1.56,6.95c-.26-.1-.52-.19-.78-.29l1.53-6.84Z"/><path class="cls-5" d="M281.5,274l.8.18-1.83,8.18c-.26-.11-.51-.23-.77-.34l1.8-8.02Z"/><path class="cls-5" d="M288.69,275.62l.8.18-1.95,8.7c-.27,0-.55-.03-.83-.07l1.98-8.82Z"/><path class="cls-5" d="M295.04,284.8c-.28-.02-.55-.04-.83-.06l1.68-7.5.8.18-1.65,7.38Z"/><path class="cls-5" d="M302.36,285.82c-.27-.06-.54-.11-.81-.17l1.52-6.79.8.18-1.52,6.78Z"/><path class="cls-5" d="M311.08,280.66l-1.64,7.34c-.23-.07-.46-.15-.69-.24-.03-.01-.06-.02-.1-.04l1.62-7.25.8.18Z"/><path class="cls-5" d="M316.84,288.66c-.28,0-.56-.01-.84-.02l1.47-6.54.8.18-1.43,6.38Z"/><path class="cls-5" d="M323.3,283.68l-69.62-15.78s5.49-28.91,22.45-102.08c.1-.42,70.94,14.43,70.88,14.7-16.11,73.69-23.71,103.16-23.71,103.16Z"/><path class="cls-33" d="M313.82,263.72s-41.97-8.92-41.62-11.16c5.07-32.28,14.37-68.3,14.37-68.3,0,0,43.07,8.01,42.92,8.84-10.79,58.12-15.66,70.62-15.66,70.62Z"/><path class="cls-33" d="M346.67,180.41l-70.31-14.48,1.31-5.81s8.02.29,8.02.29c5.1,2.61,10.95,2.79,16.54,3.16,3.51.23,8.8-.32,12.01,1.06,7.07,3.03,13.12,5.43,20.86,5.8,4.49.22,8.48,3.7,12.98,3.93l-1.41,6.05Z"/><path class="cls-5" d="M282.42,167.17l.82.17,1.44-6.97c-.25,0-.53-.02-.84-.03l-1.41,6.83Z"/><path class="cls-5" d="M289.71,168.68l.82.17,1.31-6.36c-.27-.06-.54-.12-.81-.18l-1.31,6.37Z"/><path class="cls-5" d="M297.01,170.18l.82.17,1.44-6.97c-.28-.02-.56-.04-.84-.06l-1.41,6.87Z"/><path class="cls-5" d="M304.31,171.68l.82.17,1.69-8.21c-.28,0-.57,0-.85,0l-1.66,8.05Z"/><path class="cls-5" d="M311.61,173.19l.82.17,1.8-8.74c-.25-.11-.52-.2-.79-.28l-1.82,8.85Z"/><path class="cls-5" d="M321.25,167.45c-.26-.1-.53-.19-.79-.29l-1.55,7.53.82.17,1.53-7.4Z"/><path class="cls-5" d="M328.42,169.56c-.27-.06-.54-.12-.81-.18l-1.4,6.82.82.17,1.4-6.8Z"/><path class="cls-5" d="M334.32,177.87l1.52-7.37c-.24-.03-.49-.06-.73-.07-.04,0-.07,0-.1,0l-1.5,7.28.82.17Z"/><path class="cls-5" d="M342.94,172.96c-.26-.11-.52-.22-.78-.33l-1.35,6.57.82.17,1.32-6.4Z"/><rect class="cls-17" x="269.9" y="167.33" width="15.99" height="103.27" transform="translate(49.89 -51.56) rotate(11.64)"/><path class="cls-26" d="M268.37,263.41l51.26-117.51c7.87-18.05,28.96-26.32,47.01-18.45,15.15,6.61,22.1,24.31,15.49,39.46-5.6,12.83-20.59,18.71-33.42,13.12-3.56-1.55-5.19-5.7-3.63-9.26,1.55-3.56,5.7-5.19,9.26-3.63,5.72,2.5,12.41-.13,14.9-5.85,3.51-8.04-.18-17.44-8.22-20.94-10.94-4.77-23.72.24-28.49,11.18l-51.26,117.51c-1.55,3.56-5.7,5.19-9.26,3.63-3.56-1.55-5.19-5.7-3.63-9.26Z"/><path class="cls-19" d="M274.43,266.05l51.26-117.51c7.41-16.98,26.52-25.31,43.79-19.67-.91-.52-1.86-.99-2.84-1.42-18.05-7.87-39.14.4-47.01,18.45l-51.26,117.51c-1.55,3.56.07,7.7,3.63,9.26,1.09.48,2.24.65,3.36.56-1.56-1.97-2.01-4.72-.94-7.18Z"/><rect class="cls-13" x="272.87" y="253.39" width="8.96" height="14.06" transform="translate(-72.24 410.51) rotate(-66.43)"/><rect class="cls-13" x="280.43" y="236.06" width="8.96" height="14.06" transform="translate(-51.83 407.03) rotate(-66.43)"/><rect class="cls-13" x="287.98" y="218.74" width="8.96" height="14.06" transform="translate(-31.42 403.56) rotate(-66.43)"/><rect class="cls-13" x="295.54" y="201.42" width="8.96" height="14.06" transform="translate(-11 400.09) rotate(-66.43)"/><rect class="cls-13" x="303.1" y="184.09" width="8.96" height="14.06" transform="translate(9.41 396.62) rotate(-66.43)"/><rect class="cls-13" x="310.66" y="166.77" width="8.96" height="14.06" transform="translate(29.83 393.15) rotate(-66.43)"/><rect class="cls-13" x="318.21" y="149.44" width="8.96" height="14.06" transform="translate(50.24 389.68) rotate(-66.43)"/><path class="cls-13" d="M322.93,139.96l11.74,7.73c.45-.64.93-1.25,1.44-1.82.81-.99,1.69-1.91,2.7-2.69l-8.82-10.83c-2.68,2.15-5.07,4.7-7.07,7.61Z"/><path class="cls-13" d="M350.13,124.55c-3.48.22-6.9.96-10.14,2.15l4.77,13.11c1.64-.65,3.39-.97,5.14-1.13.3-.03.6-.06.9-.09l-.67-14.04Z"/><path class="cls-13" d="M363.14,141.48l8.28-11.41c-1.48-1-3.07-1.89-4.77-2.63-1.64-.72-3.31-1.3-4.99-1.75l-4.04,13.48c1.15.29,2.28.67,3.4,1.16.75.33,1.44.72,2.11,1.14Z"/><path class="cls-13" d="M379.89,138.76l-12.07,7.25c1.13,1.68,1.94,3.56,2.37,5.54l13.84-2.56c-.74-3.63-2.14-7.11-4.13-10.23Z"/><path class="cls-13" d="M383.94,161.33l-13.73-3.06c-.22,1.01-.54,2.02-.97,3.01-.37.85-.85,1.63-1.39,2.34l11.54,8.06c1.06-1.46,1.99-3.05,2.74-4.78.8-1.83,1.39-3.69,1.81-5.57Z"/><path class="cls-13" d="M369.63,179.72l-6.59-12.45c-1.64.65-3.42.91-5.21.75l.89,14.12c3.79.02,7.52-.83,10.91-2.41Z"/><path class="cls-9" d="M.05,130.44c.28-1.05,1.64-1.99,2.54-2.18,1.51-.32,3.54-.03,5.49.6,1.95.62,3.8,1.59,5.11,2.41.29.18.55.35.79.51,2.85.67,5.64,1.59,8.33,2.78,1.6.71,3.16,1.52,4.66,2.41,0-.03-.02-.05-.03-.08-.12-.29-.25-.61-.39-.97-.28-.71-.61-1.55-.97-2.46-.37-.88-.75-1.83-1.11-2.79-.35-.98-.7-1.9-.95-2.8-.25-.9-.41-1.75-.4-2.49.02-1.48.74-2.53,2.82-2.58,1.05-.04,1.88.25,2.53.71.65.46,1.13,1.09,1.43,1.85.6,1.55.55,3.52.2,5.43-.35,1.92-1.03,3.82-1.59,5.22-.25.61-.47,1.12-.65,1.51,3.56,2.21,6.83,4.88,9.78,7.87-.04-.33-.07-.71-.12-1.12-.18-1.51-.39-3.57-.56-5.58-.13-2.04-.24-4.01.22-5.43.44-1.41,1.43-2.21,3.41-1.71.99.25,1.68.74,2.18,1.33.24.3.43.63.57.98.13.36.21.75.24,1.15.14,1.61-.43,3.46-1.3,5.23-.86,1.76-1.98,3.4-2.89,4.61-.4.53-.74.97-1.01,1.3.28.29.55.58.82.87,2.56,2.79,4.86,5.8,6.98,8.93.03-.33.06-.7.09-1.12.13-1.52.33-3.55.62-5.52.31-1.97.71-3.9,1.49-5.16.76-1.25,1.91-1.82,3.64-.96.88.43,1.43,1,1.75,1.65.32.65.4,1.38.28,2.15-.22,1.54-1.18,3.22-2.37,4.76-1.19,1.54-2.59,2.95-3.7,3.98-.48.45-.91.82-1.23,1.1,1.19,1.8,2.33,3.63,3.42,5.48,1.02,1.73,2,3.49,2.94,5.27.06-.32.13-.69.21-1.1.29-1.49.71-3.46,1.3-5.36.3-.95.6-1.87.97-2.69.36-.82.77-1.55,1.25-2.11.95-1.11,2.15-1.51,3.71-.53.79.48,1.23,1.08,1.45,1.73.21.65.18,1.36-.03,2.09-.42,1.46-1.57,2.99-2.91,4.38-1.35,1.39-2.91,2.65-4.12,3.55-.53.39-.98.72-1.34.96,1.92,3.69,3.68,7.45,5.3,11.28.09-.31.19-.66.3-1.05.22-.73.48-1.58.79-2.47.31-.89.62-1.82,1-2.73,1.48-3.63,3.56-6.94,6.41-4.73,1.42,1.11,1.63,2.48,1.05,3.88-.57,1.4-1.87,2.82-3.34,4.08-2.11,1.81-4.58,3.31-5.81,4.01.25.59.49,1.19.73,1.78,1.31,3.26,2.53,6.56,3.67,9.88.11-.31.24-.66.39-1.05.53-1.42,1.27-3.29,2.16-5.04.91-1.75,1.91-3.39,3.04-4.3,1.13-.91,2.39-1.09,3.74.09,2.62,2.4.23,5.39-2.9,7.69-2.24,1.66-4.81,2.98-6.09,3.6,1.33,3.94,2.56,7.91,3.73,11.9.13-.31.27-.65.43-1.04.6-1.39,1.46-3.22,2.44-4.91,1.95-3.37,4.48-6.26,6.99-3.8.63.62.94,1.26,1,1.91.05.65-.14,1.3-.51,1.94-.74,1.28-2.2,2.52-3.81,3.59-2.32,1.54-4.95,2.75-6.25,3.31,1.16,3.99,2.25,7.99,3.33,12,.13-.3.29-.65.46-1.02.64-1.38,1.54-3.17,2.57-4.82,2.08-3.29,4.73-6.02,7.12-3.55,1.19,1.24,1.13,2.54.35,3.78-.78,1.24-2.27,2.42-3.91,3.44-2.36,1.48-5.01,2.63-6.33,3.16.42,1.58.84,3.15,1.26,4.73.65,2.43,1.29,4.87,1.95,7.31.62-1.41,1.71-3.74,3.06-5.83,2.11-3.25,4.8-5.91,7.16-3.46,2.35,2.42-.35,5.06-3.62,7.09-2.36,1.47-5.03,2.64-6.33,3.17,1.08,4.01,2.21,8,3.44,11.97.12-.32.27-.68.44-1.07.6-1.4,1.46-3.19,2.48-4.82,2.04-3.28,4.73-5.9,7.09-3.58,1.18,1.16,1.13,2.36.36,3.57-.76,1.21-2.24,2.41-3.84,3.47-2.33,1.54-4.96,2.81-6.23,3.39,1.24,3.95,2.59,7.86,4.11,11.7.1-.32.21-.68.35-1.07.51-1.43,1.25-3.27,2.17-4.94,1.87-3.37,4.45-6.02,6.9-3.94.31.26.53.53.69.8.16.27.26.55.29.83.07.57-.11,1.16-.46,1.77-.69,1.22-2.1,2.51-3.61,3.66-2.2,1.68-4.71,3.14-5.94,3.82.51,1.27,1.04,2.53,1.6,3.78,1.11,2.52,2.34,4.99,3.68,7.39.05-.32.12-.68.2-1.08.31-1.47.87-3.39,1.6-5.11.36-.86.81-1.7,1.29-2.43.48-.73,1-1.36,1.55-1.82,1.11-.92,2.34-1.19,3.62-.34.63.43.99.89,1.11,1.42.12.53,0,1.11-.3,1.74-.29.63-.75,1.29-1.3,1.97-.55.67-1.19,1.35-1.88,2.01-1.37,1.33-2.9,2.6-4.08,3.53-.52.41-.97.75-1.31,1.01,2.04,3.57,4.35,6.97,6.97,10.11,0-.32,0-.68,0-1.08,0-.37.02-.77.05-1.19.02-.41.06-.85.13-1.31.12-.91.3-1.86.53-2.76.23-.91.52-1.77.88-2.55.37-.79.8-1.48,1.28-2.01.97-1.07,2.13-1.52,3.48-.96,1.39.5,1.6,1.49,1.21,2.8-.38,1.29-1.33,2.83-2.44,4.4-1.11,1.56-2.38,3.09-3.36,4.24-.42.49-.79.9-1.08,1.22,2.66,3.1,5.64,5.93,8.96,8.41-.08-.33-.16-.7-.25-1.11-.3-1.48-.6-3.35-.49-5.26.08-1.88.43-3.63,1.15-4.86.73-1.25,1.76-1.91,3.18-1.76.71.08,1.15.35,1.4.76.13.21.21.46.25.73.05.26.07.56.05.88-.08,1.3-.68,3.05-1.41,4.83-.73,1.77-1.61,3.57-2.3,4.92-.3.59-.57,1.08-.77,1.46,1.21.87,2.46,1.69,3.74,2.46.69.42.16,1.57-.54,1.14-1.34-.82-2.65-1.68-3.92-2.6-.29.32-.69.73-1.16,1.21-1.07,1.06-2.53,2.39-4.15,3.47-1.62,1.08-3.39,1.92-5.01,2.01-.41.02-.8,0-1.18-.07-.37-.09-.71-.23-1.04-.43-.65-.4-1.2-1.05-1.59-1.96-.79-1.83-.1-2.94,1.21-3.57,1.33-.65,3.34-.9,5.35-1.02,1.98-.08,4.09-.19,5.61-.22.43,0,.81-.01,1.14-.02-3.23-2.41-6.21-5.14-8.89-8.18-.11-.12-.21-.25-.32-.37-.36.24-.82.54-1.38.88-1.29.78-3.03,1.74-4.86,2.43-1.82.69-3.77,1.12-5.33.84-1.54-.28-2.74-1.24-3.09-3.15-.28-1.93.61-2.85,2.03-3.21.71-.18,1.55-.22,2.46-.17.92.04,1.93.15,2.92.3,1,.15,1.99.34,2.91.53.46.1.91.19,1.35.27.44.09.85.17,1.23.24.4.08.75.15,1.07.22-2.67-3.21-5.01-6.68-7.07-10.31-.4.16-.91.37-1.53.6-1.42.52-3.31,1.13-5.24,1.49-.96.18-1.93.29-2.84.29-.9,0-1.74-.1-2.47-.35-.73-.25-1.34-.64-1.77-1.2-.43-.56-.7-1.3-.65-2.23.06-1.86,1.07-2.63,2.52-2.78.73-.08,1.56,0,2.45.17.89.17,1.82.44,2.78.74,1.92.6,3.77,1.37,5.19,1.94.38.15.73.29,1.03.41-.39-.7-.77-1.41-1.14-2.13-1.55-2.99-2.93-6.06-4.19-9.17-1.38.37-4.18,1.03-6.95,1.2-1.95.12-3.84,0-5.23-.62-.69-.31-1.24-.74-1.6-1.31-.18-.29-.31-.61-.37-.98-.06-.36-.06-.76,0-1.21.54-3.54,4.3-2.66,7.89-1.1,1.82.78,3.6,1.74,4.91,2.49.35.19.67.37.95.53-1.53-3.86-2.87-7.79-4.11-11.75-1.41.26-4.25.7-7.01.68-1.95-.01-3.83-.24-5.15-.91-1.32-.66-2.09-1.77-1.71-3.47.76-3.39,4.43-2.42,7.93-.68,1.76.87,3.46,1.93,4.73,2.76.33.22.63.42.9.6-1.22-3.96-2.33-7.96-3.42-11.94-1.4.2-4.28.55-7.05.45-3.87-.13-7.53-1.1-6.71-4.42.83-3.29,4.48-2.34,7.94-.55,2.19,1.14,4.3,2.59,5.55,3.51-.04-.16-.08-.31-.13-.47-1.04-3.85-2.06-7.7-3.09-11.55-1.41.19-4.28.52-7.05.44-1.93-.06-3.81-.32-5.1-.98-1.29-.65-2-1.68-1.59-3.3.82-3.25,4.46-2.38,7.92-.64,1.73.87,3.41,1.95,4.65,2.82.34.24.64.45.9.65-1.07-4-2.17-7.99-3.32-11.97-1.4.22-4.27.61-7.03.61-1.93,0-3.81-.2-5.11-.8-.65-.3-1.16-.69-1.45-1.22-.3-.52-.4-1.16-.22-1.96.72-3.2,4.37-2.53,7.9-.93,1.75.8,3.44,1.84,4.71,2.67.34.23.65.43.92.62-1.16-3.97-2.39-7.92-3.71-11.84-1.38.28-4.23.81-7,.94-3.84.16-7.54-.34-6.94-3.53.27-1.58,1.32-2.27,2.76-2.4,1.44-.13,3.28.32,5.05,1.02,1.78.7,3.54,1.63,4.85,2.4.36.21.67.41.95.59-.31-.9-.62-1.8-.94-2.69-1.07-2.99-2.21-5.96-3.43-8.92-1.36.38-4.18,1.1-6.94,1.43-1.91.23-3.79.27-5.13-.13-1.34-.4-2.19-1.21-2.01-2.79.35-3.17,4-3.1,7.68-2,.91.28,1.85.6,2.69.96.84.36,1.63.73,2.3,1.07.39.2.73.38,1.04.54-1.6-3.82-3.34-7.58-5.24-11.26-.41.15-.96.35-1.62.58-1.43.48-3.31,1.06-5.2,1.46-1.89.41-3.76.64-5.14.38-.69-.13-1.25-.37-1.63-.79-.38-.41-.58-1-.58-1.77.01-1.56.93-2.42,2.32-2.81.69-.19,1.51-.27,2.39-.24.88.02,1.83.13,2.75.33,1.85.38,3.73,1,5.15,1.55.43.16.8.32,1.13.46-1.94-3.68-4.05-7.26-6.37-10.7-.39.19-.9.44-1.51.72-1.37.63-3.2,1.42-5.02,2.03-1.82.61-3.63,1.06-5,1.01-.68-.03-1.25-.18-1.67-.5-.41-.33-.66-.84-.72-1.56-.11-1.47.67-2.44,1.97-3.05,1.29-.59,3.13-.8,5.01-.69,1.88.1,3.81.49,5.26.89.41.11.78.22,1.11.32-.98-1.42-1.99-2.82-3.04-4.19-1.46-1.9-3.01-3.73-4.67-5.46-.35.26-.8.59-1.34.97-1.23.87-2.88,1.98-4.53,2.94-1.65.94-3.32,1.79-4.6,2.06-.32.07-.62.1-.89.08-.28,0-.53-.05-.75-.15-.44-.19-.74-.62-.92-1.27-.36-1.32.19-2.46,1.3-3.35,1.1-.88,2.82-1.56,4.64-1.86,1.84-.35,3.77-.34,5.28-.25.41.03.78.07,1.11.11-2.81-2.85-5.9-5.41-9.3-7.54-.08-.05-.17-.1-.25-.15-.27.34-.63.78-1.06,1.29-.97,1.16-2.27,2.63-3.6,4-1.34,1.38-2.7,2.63-3.82,3.24-.57.32-1.09.5-1.53.43-.45-.07-.82-.37-1.17-.94-.67-1.15-.46-2.41.34-3.58.4-.58.96-1.15,1.62-1.68.67-.53,1.45-1.03,2.27-1.42.82-.4,1.7-.76,2.56-1.05.85-.26,1.68-.46,2.41-.62.37-.08.71-.14,1.02-.19.03,0,.05,0,.08,0-3.96-2.32-8.24-4.02-12.69-5.07-.26.04-.55.08-.85.12-1.48.21-3.39.53-5.23.76-2.78.35-5.54.49-7.24-2.15-.14-.21-.26-.44-.3-.68-.04-.21-.02-.41.03-.61Z"/><path class="cls-9" d="M172.76,90.09c-.28-1.05-1.64-1.99-2.54-2.18-1.51-.32-3.54-.03-5.49.6-1.95.62-3.8,1.59-5.11,2.41-.29.18-.55.35-.79.51-2.85.67-5.64,1.59-8.33,2.78-1.6.71-3.16,1.52-4.66,2.41,0-.03.02-.05.03-.08.12-.29.25-.61.39-.97.28-.71.61-1.55.97-2.46.37-.88.75-1.83,1.11-2.79.35-.98.7-1.9.95-2.8.25-.9.41-1.75.4-2.49-.02-1.48-.74-2.53-2.82-2.58-1.05-.04-1.88.25-2.53.71-.65.46-1.13,1.09-1.43,1.85-.6,1.55-.55,3.52-.2,5.43.35,1.92,1.03,3.82,1.59,5.22.25.61.47,1.12.65,1.51-3.56,2.21-6.83,4.88-9.78,7.87.04-.33.07-.71.12-1.12.18-1.51.39-3.57.56-5.58.13-2.04.24-4.01-.22-5.43-.44-1.41-1.43-2.21-3.41-1.71-.99.25-1.68.74-2.18,1.33-.24.3-.43.63-.57.98-.13.36-.21.75-.24,1.15-.14,1.61.43,3.46,1.3,5.23.86,1.76,1.98,3.4,2.89,4.61.4.53.74.97,1.01,1.3-.28.29-.55.58-.82.87-2.56,2.79-4.86,5.8-6.98,8.93-.03-.33-.06-.7-.09-1.12-.13-1.52-.33-3.55-.62-5.52-.31-1.98-.71-3.9-1.49-5.16-.76-1.25-1.91-1.82-3.64-.96-.88.43-1.43,1-1.75,1.65-.32.65-.4,1.38-.28,2.15.22,1.54,1.18,3.22,2.37,4.76,1.19,1.54,2.59,2.95,3.7,3.98.48.45.91.82,1.23,1.1-1.19,1.8-2.33,3.63-3.42,5.48-1.02,1.73-2,3.49-2.94,5.27-.06-.32-.13-.69-.21-1.1-.29-1.49-.71-3.46-1.3-5.36-.3-.95-.6-1.87-.97-2.69-.36-.82-.77-1.55-1.25-2.11-.95-1.11-2.15-1.51-3.71-.53-.79.48-1.23,1.08-1.45,1.73-.21.65-.18,1.36.03,2.09.42,1.46,1.57,2.99,2.91,4.38,1.35,1.39,2.91,2.65,4.12,3.55.53.39.98.72,1.34.96-1.92,3.69-3.68,7.45-5.3,11.28-.09-.31-.19-.66-.3-1.05-.22-.73-.48-1.58-.79-2.47-.31-.89-.62-1.82-1-2.73-1.48-3.63-3.57-6.94-6.41-4.73-1.42,1.11-1.63,2.48-1.05,3.88.57,1.4,1.87,2.82,3.34,4.08,2.11,1.81,4.58,3.31,5.81,4.01-.25.59-.49,1.19-.73,1.78-1.31,3.26-2.53,6.56-3.67,9.88-.11-.31-.24-.66-.39-1.05-.53-1.42-1.27-3.29-2.16-5.04-.91-1.75-1.91-3.39-3.04-4.3-1.13-.91-2.39-1.09-3.74.09-2.62,2.4-.23,5.39,2.9,7.69,2.24,1.66,4.81,2.98,6.09,3.6-1.33,3.94-2.56,7.91-3.73,11.9-.13-.31-.27-.65-.43-1.04-.6-1.39-1.46-3.22-2.44-4.91-1.95-3.37-4.48-6.26-6.99-3.8-.63.62-.94,1.26-1,1.91-.05.65.14,1.3.51,1.94.74,1.28,2.2,2.52,3.81,3.59,2.32,1.54,4.95,2.75,6.25,3.31-1.16,3.99-2.25,7.99-3.33,12-.13-.3-.29-.65-.46-1.02-.64-1.38-1.54-3.17-2.57-4.82-2.08-3.29-4.73-6.02-7.12-3.55-1.19,1.24-1.13,2.54-.35,3.78.78,1.24,2.28,2.42,3.91,3.44,2.36,1.48,5.01,2.63,6.33,3.16-.42,1.58-.84,3.15-1.26,4.73-.65,2.43-1.29,4.87-1.95,7.31-.62-1.41-1.71-3.74-3.06-5.83-2.11-3.25-4.8-5.91-7.16-3.46-2.35,2.42.35,5.06,3.62,7.09,2.36,1.47,5.03,2.64,6.33,3.17-1.08,4.01-2.21,8-3.44,11.97-.12-.32-.27-.68-.44-1.07-.6-1.4-1.46-3.19-2.48-4.82-2.04-3.28-4.73-5.9-7.09-3.58-1.18,1.16-1.13,2.36-.36,3.57.76,1.21,2.24,2.41,3.84,3.47,2.33,1.54,4.96,2.81,6.23,3.39-1.24,3.95-2.59,7.86-4.11,11.7-.1-.32-.21-.68-.35-1.07-.51-1.43-1.25-3.27-2.17-4.94-1.87-3.37-4.45-6.02-6.9-3.94-.31.26-.53.53-.69.8-.16.27-.26.55-.29.83-.07.57.11,1.16.46,1.77.69,1.22,2.1,2.51,3.61,3.66,2.2,1.68,4.71,3.14,5.94,3.82-.51,1.27-1.04,2.53-1.59,3.78-1.11,2.52-2.34,4.99-3.67,7.39-.05-.32-.12-.68-.2-1.08-.31-1.47-.87-3.39-1.6-5.11-.36-.86-.81-1.7-1.29-2.43-.48-.73-1-1.36-1.55-1.82-1.11-.92-2.34-1.19-3.62-.34-.63.43-.99.89-1.11,1.42-.12.53,0,1.11.3,1.74.29.63.75,1.29,1.3,1.97.55.67,1.19,1.35,1.88,2.01,1.37,1.33,2.9,2.6,4.08,3.53.52.41.97.75,1.31,1-2.04,3.57-4.35,6.97-6.97,10.11,0-.32,0-.68,0-1.08,0-.37-.02-.77-.05-1.19-.02-.41-.06-.85-.13-1.31-.12-.91-.3-1.86-.53-2.76-.23-.91-.52-1.77-.88-2.55-.37-.79-.8-1.48-1.28-2.01-.97-1.07-2.13-1.52-3.48-.96-1.39.5-1.6,1.49-1.21,2.8.38,1.29,1.33,2.83,2.44,4.4,1.11,1.56,2.38,3.09,3.36,4.24.42.49.79.9,1.08,1.22-2.66,3.1-5.64,5.93-8.96,8.41.08-.33.16-.7.25-1.11.3-1.48.6-3.35.49-5.26-.08-1.88-.43-3.63-1.15-4.86-.73-1.25-1.76-1.91-3.18-1.76-.71.08-1.15.35-1.4.76-.13.21-.21.46-.25.73-.05.26-.07.56-.05.88.08,1.3.68,3.05,1.41,4.83.73,1.77,1.61,3.57,2.3,4.92.3.59.57,1.08.77,1.46-1.21.87-2.46,1.69-3.74,2.46-.69.42-.16,1.57.54,1.14,1.34-.82,2.65-1.68,3.92-2.6.29.32.69.73,1.16,1.21,1.07,1.06,2.53,2.39,4.15,3.47,1.62,1.08,3.39,1.92,5.01,2.01.41.02.8,0,1.18-.07.37-.09.71-.23,1.04-.43.65-.4,1.2-1.05,1.59-1.96.79-1.83.1-2.94-1.21-3.57-1.33-.65-3.34-.9-5.35-1.02-1.98-.08-4.09-.19-5.61-.22-.43,0-.81-.01-1.14-.02,3.23-2.41,6.21-5.14,8.89-8.18.11-.12.21-.25.32-.37.36.24.82.54,1.38.88,1.29.78,3.03,1.74,4.86,2.43,1.82.69,3.77,1.12,5.33.84,1.54-.28,2.74-1.24,3.09-3.15.28-1.93-.61-2.85-2.03-3.21-.71-.18-1.55-.22-2.46-.17-.92.04-1.93.15-2.92.3-1,.15-1.99.34-2.91.53-.46.1-.91.19-1.35.27-.44.09-.85.17-1.23.24-.4.08-.75.15-1.07.22,2.67-3.21,5.01-6.68,7.07-10.31.4.16.91.37,1.53.6,1.42.52,3.31,1.13,5.24,1.49.96.18,1.93.29,2.84.29.9,0,1.74-.1,2.47-.35.73-.25,1.34-.64,1.77-1.2.43-.56.7-1.3.65-2.23-.06-1.86-1.07-2.63-2.52-2.78-.73-.08-1.56,0-2.45.17-.89.17-1.82.44-2.78.74-1.92.6-3.77,1.37-5.19,1.94-.38.15-.73.29-1.03.41.39-.7.77-1.41,1.14-2.13,1.55-2.99,2.93-6.06,4.19-9.17,1.38.37,4.18,1.03,6.95,1.2,1.95.12,3.84,0,5.23-.62.69-.31,1.24-.74,1.6-1.31.18-.29.31-.61.37-.98.06-.36.06-.76,0-1.21-.54-3.54-4.3-2.66-7.89-1.1-1.82.78-3.6,1.74-4.91,2.49-.35.19-.67.37-.95.53,1.53-3.86,2.87-7.79,4.11-11.75,1.41.26,4.25.7,7.01.68,1.95-.01,3.83-.24,5.15-.91,1.32-.66,2.09-1.77,1.71-3.47-.76-3.39-4.43-2.42-7.93-.68-1.76.87-3.46,1.93-4.73,2.76-.33.22-.63.42-.9.6,1.22-3.96,2.33-7.96,3.42-11.94,1.4.2,4.28.55,7.05.45,3.87-.13,7.53-1.1,6.71-4.42-.83-3.29-4.48-2.34-7.94-.55-2.19,1.14-4.3,2.59-5.55,3.51.04-.16.08-.31.13-.47,1.04-3.85,2.06-7.7,3.09-11.55,1.41.19,4.28.52,7.05.44,1.93-.06,3.81-.32,5.1-.98,1.29-.65,2-1.68,1.59-3.3-.82-3.25-4.46-2.38-7.92-.64-1.73.87-3.41,1.95-4.65,2.82-.34.24-.64.45-.9.65,1.07-4,2.17-7.99,3.32-11.97,1.4.22,4.27.61,7.03.61,1.93,0,3.81-.2,5.11-.8.65-.3,1.16-.69,1.45-1.22.3-.52.4-1.16.22-1.96-.72-3.2-4.37-2.53-7.9-.93-1.75.8-3.44,1.84-4.71,2.67-.34.23-.65.43-.92.62,1.16-3.97,2.39-7.92,3.71-11.84,1.38.28,4.23.81,7,.94,3.84.16,7.54-.34,6.94-3.53-.27-1.58-1.32-2.27-2.76-2.4-1.44-.13-3.28.32-5.05,1.02-1.78.7-3.54,1.63-4.85,2.4-.36.21-.67.41-.95.59.31-.9.62-1.8.94-2.69,1.07-2.99,2.21-5.96,3.43-8.92,1.36.38,4.18,1.1,6.94,1.43,1.91.23,3.79.27,5.13-.13,1.34-.4,2.19-1.21,2.01-2.79-.35-3.17-4-3.1-7.68-2-.91.28-1.85.6-2.69.96-.84.36-1.63.73-2.3,1.07-.39.2-.73.38-1.04.54,1.6-3.82,3.34-7.58,5.24-11.26.41.15.96.35,1.62.58,1.43.48,3.31,1.06,5.2,1.46,1.89.41,3.76.64,5.14.38.69-.13,1.25-.37,1.63-.79.38-.41.58-1,.58-1.77-.01-1.56-.93-2.42-2.32-2.81-.69-.19-1.51-.27-2.39-.24-.88.02-1.83.13-2.75.33-1.85.38-3.73,1-5.15,1.55-.43.16-.8.32-1.13.46,1.94-3.68,4.05-7.26,6.37-10.7.39.19.9.44,1.51.72,1.37.63,3.2,1.42,5.02,2.03,1.82.61,3.63,1.06,5,1.01.68-.03,1.25-.18,1.67-.5.41-.33.66-.84.72-1.56.11-1.47-.67-2.44-1.97-3.05-1.29-.59-3.13-.8-5.01-.69-1.88.1-3.81.49-5.26.89-.41.11-.78.22-1.11.32.98-1.42,1.99-2.82,3.04-4.19,1.46-1.9,3.01-3.73,4.67-5.46.35.26.8.59,1.34.97,1.23.87,2.88,1.98,4.53,2.94,1.65.94,3.32,1.79,4.6,2.06.32.07.62.1.89.08.28,0,.53-.05.75-.15.44-.19.74-.62.92-1.27.36-1.32-.19-2.46-1.3-3.35-1.1-.88-2.82-1.56-4.64-1.86-1.84-.35-3.77-.34-5.28-.25-.41.03-.78.07-1.11.11,2.81-2.85,5.9-5.41,9.3-7.54.08-.05.17-.1.25-.15.27.34.63.78,1.06,1.29.97,1.16,2.27,2.63,3.6,4,1.34,1.38,2.7,2.63,3.82,3.24.57.32,1.09.5,1.53.43.45-.07.82-.37,1.17-.94.67-1.15.46-2.41-.34-3.58-.4-.58-.96-1.15-1.62-1.68-.67-.53-1.45-1.03-2.27-1.42-.82-.4-1.7-.76-2.56-1.05-.85-.26-1.68-.46-2.41-.62-.37-.08-.71-.14-1.02-.19-.03,0-.05,0-.08,0,3.96-2.32,8.24-4.02,12.69-5.07.26.04.55.08.85.12,1.48.21,3.39.53,5.23.76,2.78.35,5.54.49,7.24-2.15.14-.21.26-.44.3-.68.04-.21.02-.41-.03-.61Z"/><rect class="cls-23" x="139.32" y="27.75" width="30.27" height="264.91" transform="translate(144.72 -62.12) rotate(41.45)"/><path class="cls-1" d="M147.38,120.38l-21.2,1.78,14.06,133.2s50.88-4.51,50.75-4.88c-30.41-83.49-43.62-130.1-43.62-130.1Z"/><path class="cls-26" d="M126.32,122.12s-12.18,58.55-15.48,136.34c-.08,1.87,59.19-5.99,59.1-6.24-17.23-44.18-43.62-130.1-43.62-130.1Z"/><path class="cls-30" d="M147.29,154.75c.59,2.08-.16,4.11-1.69,4.55-1.52.43-3.24-.9-3.83-2.98-.59-2.08.16-4.11,1.69-4.55,1.52-.43,3.24.9,3.83,2.98Z"/><path class="cls-14" d="M143.36,152.74c1.52-.43,3.24.9,3.83,2.98.13.47.2.94.2,1.39.15-.71.13-1.53-.1-2.36-.59-2.08-2.31-3.41-3.83-2.98-1.18.34-1.89,1.63-1.89,3.16.23-1.08.87-1.93,1.79-2.19Z"/><path class="cls-30" d="M148.22,137.23c.97,3.41.04,6.67-2.07,7.27-2.12.6-4.62-1.68-5.59-5.09-.97-3.41-.04-6.67,2.07-7.27,2.12-.6,4.62,1.68,5.59,5.09Z"/><path class="cls-14" d="M142.55,133.7c2.12-.6,4.62,1.68,5.59,5.09.22.78.34,1.54.37,2.27.17-1.15.09-2.48-.3-3.83-.97-3.41-3.47-5.69-5.59-5.09-1.64.47-2.56,2.52-2.44,5,.26-1.74,1.1-3.07,2.37-3.44Z"/><path class="cls-30" d="M160.48,190.48c.44,1.56-.25,3.12-1.55,3.49-1.3.37-2.71-.59-3.16-2.15-.44-1.56.25-3.12,1.55-3.49,1.3-.37,2.71.59,3.16,2.15Z"/><path class="cls-14" d="M157.21,189.06c1.3-.37,2.71.59,3.16,2.15.1.35.14.71.13,1.05.15-.55.16-1.16-.02-1.78-.44-1.56-1.86-2.52-3.16-2.15-1,.29-1.65,1.28-1.68,2.44.23-.83.79-1.48,1.57-1.71Z"/><path class="cls-30" d="M170.91,213.69c.77,2.7-.32,5.37-2.42,5.97-2.11.6-4.44-1.1-5.2-3.8-.77-2.7.32-5.37,2.42-5.97s4.44,1.1,5.2,3.8Z"/><path class="cls-14" d="M165.55,211.15c2.11-.6,4.44,1.1,5.2,3.8.17.61.25,1.22.24,1.81.23-.94.22-2-.09-3.07-.77-2.7-3.1-4.4-5.2-3.8-1.63.46-2.64,2.17-2.67,4.16.35-1.42,1.24-2.54,2.51-2.9Z"/><path class="cls-30" d="M161,174.53c.69,2.44-.2,4.83-1.99,5.34-1.79.51-3.81-1.05-4.5-3.49-.69-2.44.2-4.83,1.99-5.34s3.81,1.05,4.5,3.49Z"/><path class="cls-14" d="M156.39,172.18c1.79-.51,3.81,1.05,4.5,3.49.16.55.23,1.1.23,1.63.18-.84.16-1.8-.12-2.77-.69-2.44-2.71-4-4.5-3.49-1.38.39-2.23,1.91-2.22,3.7.28-1.27,1.02-2.26,2.1-2.57Z"/><path class="cls-6" d="M119.77,161.48c-3.45,24.34-7.29,58.28-8.93,96.99-.08,1.87,59.19-5.99,59.1-6.24-6.38-16.35-14-38.41-21.09-59.72-10.63-9.36-20.46-19.62-29.08-31.03Z"/><path class="cls-24" d="M168.81,310.33s-13.2,8.81-11.51,12.75c2.63,6.14,11.26.86,16.8,3.59,3.85,1.9-5.29-16.34-5.29-16.34Z"/><path class="cls-24" d="M189.56,175.7s12.49-9.79,10.5-13.59c-3.09-5.92-11.3,0-17.02-2.3-3.99-1.6,6.52,15.89,6.52,15.89Z"/><path class="cls-32" d="M150.29,287.69c.16-2.08.45-4.21.75-6.4,1.36-10.04,2.71-20.07,4.07-30.11,2.25-16.66,4.5-33.32,6.75-49.97,1.49-11.01,3.93-21.67,15.02-26.81,12.08-5.6,26.27.61,30.88,13.02,2.89,7.78,1.36,16.41-.13,24.32-1.46,7.77-2.54,15.53-3.6,23.34-2.02,14.98-4.05,29.95-6.07,44.93-.62,4.63-1.25,9.25-1.87,13.88-.87,6.41-4.56,12.36-9.9,16.01-11.18,7.64-26.69,3.08-33.28-8.4-2.63-4.58-2.98-9.08-2.62-13.81Z"/><path class="cls-21" d="M204.27,186.58c-6.01-12.6-19.49-10.14-19.49-10.14,23.76,17.93,13.65,70.96,13.65,70.96,0,0,3.62-15.42,6.47-38.2.84-7.55,2.58-15.9-.63-22.62Z"/><path class="cls-18" d="M137.62,286.55c-1.55-13.85-3.36-27.67-5.04-41.51-3.3-27.32-7.26-56.23-24.59-77.6-7.72-9.52-17.78-17.09-24.56-27.3-12.74-19.2-13.85-43.43-19.47-65.93-2.61.65-13.65,3.22-16.56,3.87,4.95,22.66,14.72,44.86,11.83,67.72-1.54,12.16-7.2,23.41-9.89,35.36-6.03,26.85,3.26,54.51,12.43,80.45,4.64,13.14,9.15,26.33,13.92,39.43.54,1.49,1.24,2.65,2.06,3.53,2.56,2.75,24.92-.05,31-1.85,5.99-1.77,27.49-8.45,28.57-12.1.34-1.16.46-2.5.28-4.08Z"/><path class="cls-25" d="M88.08,165.66c19.16,15.88,29.68,35.69,35.45,50.21-3.51-16.33-9.09-31.93-19.52-44.79-7.72-9.52-17.78-17.09-24.56-27.3-11.92-17.96-13.88-33.36-8.9-10.14,2.93,13.68,6.89,23.19,17.53,32.01Z"/><path class="cls-8" d="M135.69,270.16c-31.15,3.94-68.33-29.1-88.05-77-1.55,23.02,6.34,46.36,14.15,68.45,4.64,13.14,9.15,26.33,13.92,39.43.54,1.49,1.24,2.65,2.06,3.53,2.56,2.75,24.92-.05,31-1.85,5.99-1.77,27.49-8.45,28.57-12.1.34-1.16.46-2.5.28-4.08-.61-5.47-1.27-10.93-1.94-16.39Z"/><path class="cls-10" d="M66.07,69.96c-.54-2.29-6.1-2.96-12.42-1.48-6.32,1.48-11.01,4.54-10.47,6.83.54,2.29,6.1,2.96,12.42,1.48,6.32-1.48,11.01-4.54,10.47-6.83Z"/><path class="cls-23" d="M60.9,62.17c-.53-2.3-2.94-3.73-5.35-3.17l-8.28,1.91c-2.41.56-3.95,2.89-3.42,5.19l6.56,19.43,13.49-3-3.01-20.36Z"/><path class="cls-22" d="M64.43,69.07c-10.97,5.23-20.08,4.82-20.08,4.82-.74.18-1.22.84-1.07,1.48l1.86,7.74c.15.64,3.88,4.91,4.64,4.91,9.63,0,16.22-3.89,16.22-3.89.74-.18,2.06-5.84,1.91-6.48l-1.86-7.74c-.15-.64-.93-1.16-1.62-.84Z"/><path class="cls-8" d="M67.92,77.8c-11.05,7.17-22.64,5.46-22.72,5.45.49.95,3.86,4.77,4.58,4.77,9.63,0,16.22-3.89,16.22-3.89.7-.17,1.92-5.25,1.92-6.33Z"/><path class="cls-7" d="M43.01,235.91c11.08.13,17.96,76.26,19.25,86.53,5.24,41.82,32.11,63.27,73.48,70.1,42.53,7.02,94.25,8.44,136.13-3.07,33.18-9.12,54.96-33.2,59.19-66.99,1.29-10.27,8.17-86.41,19.25-86.53,0,0-307.3-.04-307.3-.04Z"/><path class="cls-15" d="M125.02,279.4c-.29,6.38-.58,12.75-.87,19.13,1.13.05,2.27.1,3.4.15.27-6.38.55-12.76.82-19.13-1.12-.05-2.24-.1-3.36-.15Z"/><path class="cls-15" d="M257.01,311.8c-2.71.1-5.42.21-8.13.3-.09-2.62-.18-5.25-.26-7.87.09,2.62.18,5.25.26,7.87-2.45.08-4.89.15-7.34.22.03,1.04.06,2.09.09,3.13,2.45-.07,4.9-.15,7.35-.23,2.7-.09,5.4-.19,8.1-.29.17,4.33.34,8.66.5,12.99-2.72.11-5.45.2-8.17.29-2.47.08-4.94.16-7.41.23.03,1.01.06,2.01.09,3.02,2.48-.07,4.95-.14,7.43-.22,2.74-.09,5.48-.2,8.22-.3-.25-6.38-.49-12.76-.74-19.14Z"/><path class="cls-15" d="M162.35,299.8c.13-6.38.27-12.76.4-19.15-1.12-.02-2.24-.05-3.36-.08-.15,6.38-.3,12.76-.44,19.15,1.14.03,2.27.06,3.41.08Z"/><path class="cls-15" d="M123.57,311.37c-.29,6.38-.58,12.75-.87,19.13,1.16.05,2.32.1,3.47.15.27-6.38.55-12.76.82-19.13-1.14-.05-2.29-.1-3.43-.15Z"/><path class="cls-15" d="M56.6,259.21c-.08.89-.16,1.77-.24,2.66,1.11.1,2.22.2,3.33.3.08-.89.16-1.77.23-2.66.42-4.77.84-9.54,1.26-14.31.05-.56.1-1.12.15-1.68-1.1-.1-2.19-.2-3.29-.3-.05.56-.1,1.12-.15,1.68-.43,4.77-.86,9.53-1.29,14.3Z"/><path class="cls-15" d="M255.17,264.32c0-.09,0-.19-.01-.29h0c-.2-5.25-.41-10.5-.61-15.75-2.6.1-5.2.2-7.8.29-2.35.08-4.7.14-7.04.21.02.56.03,1.13.05,1.69.01.45.03.91.04,1.36,2.35-.07,4.71-.14,7.06-.22,2.59-.09,5.19-.18,7.78-.28.17,4.33.34,8.66.5,12.99-.2,0-.4.02-.61.02-2.41.09-4.83.18-7.24.26-.04,0-.07,0-.11,0-.26,0-.52.02-.78.02-2.08.07-4.15.13-6.23.19,0,0,0,0,0,0,.03.89.05,1.78.08,2.67,2.38-.07,4.75-.14,7.13-.22,2.63-.09,5.26-.19,7.9-.29-.03-.89-.07-1.78-.1-2.67Z"/><path class="cls-15" d="M269.41,330.45c-.29-6.38-.59-12.75-.88-19.13-1.14.05-2.29.1-3.43.15.28,6.38.56,12.76.84,19.13,1.16-.05,2.32-.1,3.47-.15Z"/><path class="cls-15" d="M255.77,279.83c-2.65.1-5.31.21-7.96.29-.12-3.47-.23-6.94-.35-10.41.12,3.47.23,6.94.35,10.41-2.4.08-4.79.15-7.19.22.03,1.01.06,2.01.09,3.02,2.4-.07,4.8-.14,7.2-.22,2.65-.09,5.29-.18,7.94-.29.17,4.33.34,8.66.5,12.99-2.67.1-5.34.2-8.01.29-2.42.08-4.84.16-7.26.23.03,1.04.06,2.09.09,3.13,2.43-.07,4.85-.14,7.28-.22,2.69-.09,5.37-.19,8.06-.3-.25-6.38-.49-12.76-.74-19.14Z"/><path class="cls-15" d="M157.18,376.12c-.15,6.38-.3,12.76-.44,19.15,1.2.03,2.41.06,3.61.08.13-6.38.27-12.76.4-19.15-1.19-.02-2.38-.06-3.57-.08Z"/><path class="cls-15" d="M267.94,298.48c-.29-6.38-.59-12.75-.88-19.13-1.12.05-2.24.1-3.36.15.28,6.38.56,12.76.84,19.13,1.13-.05,2.27-.1,3.4-.15Z"/><path class="cls-15" d="M230.02,312.62c.14,6.38.28,12.76.42,19.15,1.16-.03,2.32-.05,3.47-.08-.15-6.38-.31-12.76-.46-19.15-1.14.03-2.29.06-3.43.08Z"/><path class="cls-15" d="M161.08,360.4h0c.11-5.25.22-10.51.33-15.76-1.17-.02-2.33-.05-3.5-.08-.01.56-.03,1.13-.04,1.69-.03,1.23-.06,2.47-.09,3.7-.08,3.46-.16,6.91-.24,10.37,0,.09,0,.19,0,.28-2.78-.06-5.56-.13-8.34-.21,2.78.08,5.56.15,8.34.21-.02.89-.04,1.78-.06,2.67,1.18.03,2.36.06,3.54.08.02-.89.04-1.78.06-2.67,2.78.06,5.56.11,8.34.15-2.78-.04-5.56-.09-8.34-.15,0-.1,0-.19,0-.29Z"/><path class="cls-15" d="M229.32,280.63c.14,6.38.28,12.76.42,19.15,1.14-.02,2.27-.05,3.41-.08-.15-6.38-.31-12.76-.46-19.15-1.12.03-2.24.05-3.36.08Z"/><path class="cls-15" d="M149.21,360.1c.15-5.25.3-10.5.44-15.76-2.76-.08-5.53-.16-8.29-.25.14-4.28.29-8.56.43-12.84-.14,4.28-.29,8.56-.43,12.84-2.49-.08-4.99-.18-7.48-.28-.04,1.02-.08,2.03-.12,3.05,2.5.09,5,.19,7.5.27,2.76.09,5.51.18,8.27.26-.12,4.33-.24,8.66-.37,12.99-.21,0-.43-.01-.65-.02-2.56-.07-5.13-.15-7.69-.24-.04,0-.08,0-.12,0-.26,0-.53-.02-.79-.03-2.22-.08-4.43-.16-6.65-.24h0c-.03.89-.07,1.78-.1,2.67,2.52.1,5.05.19,7.57.28,2.8.09,5.59.17,8.39.25.03-.89.05-1.78.08-2.67,0-.1,0-.19,0-.29Z"/><path class="cls-15" d="M306.05,344.39c-.43-6.37-.87-12.75-1.3-19.12-1.15.08-2.31.16-3.46.23.42,6.37.84,12.75,1.26,19.12,1.17-.08,2.34-.15,3.5-.23Z"/><path class="cls-15" d="M231.4,376.17c.14,6.38.28,12.76.42,19.15,1.2-.03,2.41-.06,3.61-.08-.15-6.38-.31-12.76-.46-19.15-1.19.03-2.38.06-3.57.08Z"/><path class="cls-15" d="M303.87,312.45c-.43-6.36-.87-12.73-1.3-19.09-1.13.08-2.26.15-3.39.23.42,6.37.84,12.73,1.26,19.1,1.14-.08,2.29-.15,3.43-.23Z"/><path class="cls-15" d="M151.46,280.37c-2.65-.07-5.31-.15-7.96-.24.14-4.18.28-8.36.42-12.54-.14,4.18-.28,8.36-.42,12.54-2.4-.08-4.79-.17-7.19-.26-.04,1.01-.08,2.01-.11,3.02,2.4.09,4.8.18,7.2.26,2.65.09,5.29.17,7.94.25-.12,4.33-.24,8.66-.37,12.99-2.67-.08-5.34-.16-8.01-.25-2.42-.08-4.84-.17-7.26-.26-.04,1.04-.08,2.09-.12,3.13,2.43.09,4.85.19,7.28.27,2.69.09,5.37.17,8.06.24.18-6.38.36-12.76.54-19.14Z"/><path class="cls-15" d="M232.31,264.75h0c-.13-5.25-.25-10.51-.38-15.76-1.1.03-2.2.05-3.3.08.01.56.02,1.13.04,1.69h0c.1,4.79.21,9.57.31,14.36.02.89.04,1.78.06,2.67,1.11-.02,2.22-.05,3.34-.08-.02-.89-.04-1.78-.06-2.67,0-.1,0-.19,0-.28Z"/><path class="cls-15" d="M161.68,331.79c.13-6.38.27-12.76.4-19.15-1.14-.02-2.29-.05-3.43-.08-.15,6.38-.3,12.76-.44,19.15,1.16.03,2.32.06,3.47.08Z"/><path class="cls-15" d="M125.55,345.18h0c.02-.56.05-1.13.07-1.69-1.17-.05-2.33-.1-3.5-.15-.03.56-.05,1.13-.08,1.69-.22,4.78-.43,9.56-.65,14.35-.04.89-.08,1.78-.12,2.67,1.18.05,2.36.1,3.54.15.04-.89.08-1.78.11-2.67.21-4.78.41-9.56.62-14.35Z"/><path class="cls-15" d="M150.56,312.36c-2.71-.08-5.42-.15-8.13-.24-2.45-.08-4.89-.18-7.34-.27-.04,1.04-.08,2.09-.12,3.13,2.45.09,4.9.18,7.35.26,2.7.09,5.4.17,8.1.25-.12,4.33-.24,8.66-.37,12.99-2.72-.08-5.45-.16-8.17-.25-2.47-.08-4.94-.17-7.41-.27-.04,1.01-.08,2.01-.11,3.02,2.47.09,4.95.19,7.42.27,2.74.09,5.48.17,8.23.25.18-6.38.36-12.76.54-19.14Z"/><path class="cls-15" d="M262.65,255.78c.12,2.64.23,5.29.35,7.93,0,.09,0,.19.01.28.04.89.08,1.78.12,2.67,1.11-.05,2.22-.1,3.33-.15-.04-.89-.08-1.78-.12-2.67-.22-4.78-.44-9.56-.66-14.35-.03-.56-.05-1.12-.08-1.69-1.1.05-2.2.1-3.29.14.02.56.05,1.13.07,1.69.09,2.04.18,4.09.27,6.13Z"/><path class="cls-15" d="M163.38,250.78c.01-.56.02-1.12.04-1.69-1.1-.02-2.2-.05-3.3-.08-.01.56-.03,1.13-.04,1.69-.11,4.69-.22,9.38-.33,14.07h0c0,.09,0,.19,0,.28-.02.89-.04,1.78-.06,2.67,1.11.03,2.22.05,3.34.08.02-.89.04-1.78.06-2.67l.3-14.36Z"/><path class="cls-15" d="M197.29,346.68c0-5.9-.01-11.79-.02-17.69-1.16,0-2.31,0-3.47,0,0,6.39-.01,12.78-.02,19.16,1.17,0,2.34,0,3.51,0,0-.49,0-.98,0-1.47h0Z"/><path class="cls-15" d="M193.84,297c0,6.38-.01,12.76-.02,19.14,1.15,0,2.29,0,3.44,0,0-6.38-.01-12.76-.02-19.14-1.13,0-2.27,0-3.4,0Z"/><path class="cls-15" d="M129.06,263.76c.18-4.28.37-8.57.55-12.85.02-.4.03-.81.05-1.21.02-.56.05-1.13.07-1.69-1.1-.05-2.2-.09-3.29-.14-.03.56-.05,1.12-.08,1.69-.22,4.78-.43,9.56-.65,14.35-.04.89-.08,1.78-.12,2.67,1.11.05,2.22.1,3.33.15.04-.89.08-1.78.11-2.67,0-.09,0-.19.01-.28Z"/><path class="cls-15" d="M197.2,265.43c-1.11,0-2.22,0-3.33,0v.04c0,6.23-.01,12.45-.02,18.68,1.12,0,2.25,0,3.37,0,0-6.23-.01-12.45-.02-18.68v-.04Z"/><path class="cls-15" d="M231.12,363.33c1.18-.03,2.36-.05,3.54-.08-.02-.89-.04-1.78-.06-2.67.09,0,.17,0,.26,0-.09,0-.17,0-.26,0,0-.09,0-.19,0-.28-.13-5.25-.25-10.51-.38-15.76-1.17.03-2.33.06-3.5.08.11,5.25.23,10.51.34,15.76h0c0,.1,0,.19,0,.29-2.78.06-5.56.12-8.34.16,2.78-.05,5.56-.1,8.34-.16.02.89.04,1.78.06,2.67Z"/><path class="cls-15" d="M332.14,259.41c.08.89.16,1.77.24,2.66,1.11-.1,2.22-.2,3.33-.3-.08-.89-.16-1.77-.24-2.66-.43-4.77-.87-9.53-1.3-14.3-.05-.56-.1-1.12-.15-1.68-1.1.1-2.19.2-3.29.3.47,5.23.93,10.47,1.4,15.7,0,.09.02.19.03.28Z"/><path class="cls-15" d="M298.33,280.76c1.12-.07,2.24-.15,3.37-.22-.42-6.21-.85-12.43-1.27-18.64,0-.01,0-.03,0-.04-1.11.08-2.22.15-3.33.22,0,.01,0,.03,0,.04.41,6.21.82,12.43,1.23,18.64Z"/><path class="cls-15" d="M197.33,379.72c0-6.23-.01-12.45-.02-18.68,0-.01,0-.03,0-.04-1.18,0-2.36,0-3.54,0v.04c0,6.23-.01,12.45-.02,18.68,1.19,0,2.39,0,3.58,0Z"/><path class="cls-15" d="M89.38,280.55c1.12.08,2.24.15,3.37.23.41-6.21.82-12.43,1.23-18.64,0-.01,0-.03,0-.04-1.11-.07-2.22-.15-3.33-.22,0,.01,0,.03,0,.04-.42,6.21-.85,12.42-1.27,18.64Z"/><path class="cls-15" d="M85.13,342.93c-.03.49-.07.98-.1,1.47,1.17.08,2.34.16,3.5.24.03-.49.06-.98.1-1.47h0c.39-5.88.78-11.77,1.16-17.65-1.15-.08-2.31-.15-3.46-.23-.4,5.88-.8,11.77-1.2,17.65h0Z"/><path class="cls-15" d="M258.87,359.81c2.78-.11,5.56-.22,8.33-.35.04.89.08,1.78.12,2.67,1.18-.05,2.36-.1,3.54-.16-.04-.89-.08-1.78-.12-2.67,0-.1,0-.19-.01-.29h0c-.24-5.25-.48-10.5-.72-15.75-1.17.05-2.33.1-3.5.15.02.56.05,1.13.07,1.69h0c.21,4.78.42,9.56.63,14.34-2.78.12-5.56.24-8.33.35-.19-4.78-.37-9.57-.56-14.35-.02-.56-.04-1.13-.07-1.69-2.76.11-5.53.21-8.29.31-.06-1.81-.12-3.61-.18-5.42.06,1.81.12,3.61.18,5.42-2.49.08-4.99.15-7.48.23.03,1.02.06,2.03.09,3.05,2.5-.07,5-.15,7.5-.23,2.76-.09,5.51-.19,8.27-.3.17,4.33.34,8.66.5,12.99-.21,0-.42.02-.63.03-2.57.1-5.13.19-7.7.28-.04,0-.08,0-.12,0-.26,0-.53.02-.79.02-2.22.07-4.43.14-6.65.21,0,0,0,0,0,0,.03.89.05,1.78.08,2.67,2.52-.07,5.05-.14,7.57-.23,2.8-.09,5.59-.2,8.39-.31-.03-.89-.07-1.78-.1-2.67Z"/><path class="cls-15" d="M90.64,312.69c.42-6.37.84-12.73,1.26-19.1-1.13-.07-2.26-.15-3.39-.23-.43,6.37-.87,12.73-1.3,19.1,1.14.08,2.29.16,3.43.23Z"/><path class="cls-35" d="M348.28,236.88c.67-.59,1.37-.92,2.08-.92,0,0-.75,0-2.17,0,.03.31.06.62.09.92Z"/><path class="cls-34" d="M263.01,263.99c0-.09,0-.19-.01-.28-2.62.11-5.23.22-7.85.32,0,.1,0,.19.01.29,1.67-.06,3.35-.13,5.02-.2.94-.04,1.88-.08,2.83-.12Z"/><path class="cls-34" d="M265.68,249.5c.22,4.78.44,9.56.66,14.35,2.62-.12,5.23-.25,7.85-.38,0-.1,0-.19-.01-.29-2.61.13-5.23.26-7.84.38-.22-4.69-.43-9.37-.65-14.06Z"/><path class="cls-34" d="M332.14,259.41c0-.09-.02-.19-.03-.28-2.61.23-5.22.46-7.83.68,0,.1.02.19.02.29.11,0,.22-.02.33-.03,2.5-.21,5-.43,7.5-.65Z"/><path class="cls-34" d="M334.16,244.81c.43,4.77.87,9.53,1.3,14.3,1.57-.14,3.14-.29,4.71-.44.02-.1.04-.2.06-.29-1.6.15-3.2.3-4.8.45-.43-4.67-.85-9.34-1.28-14.02Z"/><path class="cls-34" d="M297.1,262.08c-2.61.17-5.23.34-7.84.5,0,.01,0,.03,0,.04,2.61-.16,5.23-.32,7.84-.5,0-.01,0-.03,0-.04Z"/><path class="cls-34" d="M300.43,261.9c2.61-.18,5.23-.36,7.84-.56,0-.01,0-.03,0-.04-2.61.19-5.22.38-7.84.56,0,.01,0,.03,0,.04Z"/><path class="cls-35" d="M343.77,245.27c-.58.06-1.16.11-1.73.17.13,1.36.26,2.73.39,4.09.44-1.52.88-2.94,1.34-4.26Z"/><path class="cls-34" d="M255.16,264.03c2.62-.1,5.23-.21,7.85-.32-.12-2.64-.23-5.29-.35-7.93-.09-2.04-.18-4.09-.27-6.13-.02-.56-.05-1.13-.07-1.69-2.59.11-5.18.22-7.77.32.2,5.25.41,10.5.61,15.75h0Z"/><path class="cls-34" d="M265.68,249.5c.22,4.69.43,9.37.65,14.06,2.61-.12,5.23-.25,7.84-.38h0l-.5-9.83-.3-5.92c-2.59.13-5.18.26-7.76.38.03.56.05,1.12.08,1.69Z"/><path class="cls-34" d="M330.72,243.42c-2.58.23-5.17.45-7.75.67.44,5.24.88,10.47,1.32,15.71,2.61-.22,5.22-.44,7.83-.68-.47-5.23-.93-10.47-1.4-15.7Z"/><path class="cls-34" d="M334.16,244.81c.43,4.67.85,9.34,1.28,14.02,1.6-.15,3.2-.3,4.8-.45.7-3.18,1.43-6.16,2.2-8.85-.13-1.36-.26-2.72-.39-4.09-.1-1.01-.19-2.03-.29-3.04-2.58.25-5.16.49-7.75.72.05.56.1,1.12.15,1.68Z"/><path class="cls-34" d="M288.39,248.29c.03.49.06.98.09,1.47,2.59-.16,5.18-.32,7.77-.49-.03-.49-.06-.98-.1-1.47-.26-3.95-.52-7.9-.78-11.84-2.52,0-5.1,0-7.74,0,.25,4.11.5,8.23.75,12.34Z"/><path class="cls-34" d="M307.21,247.02c-.27-3.69-.54-7.38-.81-11.07-2.5,0-5.09,0-7.75,0,.26,3.87.53,7.75.79,11.62.03.49.07.98.1,1.47,2.59-.18,5.18-.36,7.77-.55-.04-.49-.07-.98-.11-1.47Z"/><path class="cls-35" d="M306.5,235.95c.23,3.13.46,6.26.69,9.39,5.26-.39,10.52-.81,15.78-1.25,2.58-.22,5.17-.44,7.75-.67,1.1-.1,2.19-.2,3.29-.3,2.58-.24,5.16-.48,7.75-.72,1.09-.1,2.17-.21,3.26-.32,1.04-2.4,2.13-4.19,3.28-5.2-.03-.31-.06-.62-.09-.92-5.43,0-20.7,0-41.69,0Z"/><path class="cls-35" d="M254.55,248.28c2.59-.1,5.18-.21,7.77-.32,1.1-.05,2.2-.09,3.29-.14,2.59-.12,5.18-.25,7.76-.38,4.95-.25,9.89-.52,14.84-.82-.22-3.55-.43-7.11-.65-10.66-12.67,0-26.62,0-41.24,0,.14,4.21.28,8.42.42,12.63,2.6-.09,5.2-.19,7.8-.29Z"/><path class="cls-35" d="M273.87,250.58c.22,4.28.44,8.55.66,12.83,4.91-.25,9.82-.53,14.73-.83,2.61-.16,5.23-.33,7.84-.5,1.11-.07,2.22-.15,3.33-.22,2.61-.18,5.23-.36,7.84-.56,5.32-.39,10.65-.81,15.97-1.25-.36-4.27-.71-8.54-1.07-12.8-5.28.44-10.55.85-15.83,1.24-2.59.19-5.18.37-7.77.55-1.1.07-2.2.15-3.3.22-2.59.17-5.18.34-7.77.49-4.87.3-9.74.57-14.6.82Z"/><path class="cls-35" d="M254.52,264.34c.2,0,.4-.02.61-.02-.17-4.33-.34-8.66-.5-12.99-2.59.1-5.19.19-7.78.28.15,4.33.29,8.66.44,12.99,2.41-.08,4.83-.17,7.24-.26Z"/><path class="cls-34" d="M258.86,359.53c-.18-4.69-.36-9.38-.54-14.06.19,4.78.37,9.57.56,14.35,2.78-.11,5.56-.22,8.33-.35-.21-4.78-.42-9.56-.63-14.34h0c.21,4.69.41,9.37.62,14.06-2.78.12-5.55.24-8.33.34Z"/><path class="cls-34" d="M270.73,359.31c2.78-.13,5.55-.26,8.33-.41,0-.1,0-.19-.01-.29-2.78.14-5.55.28-8.33.4,0,.1,0,.19.01.29Z"/><path class="cls-34" d="M295.07,358.01c2.78-.17,5.55-.34,8.33-.53,0-.01,0-.03,0-.04-2.77.18-5.55.36-8.33.53,0,.01,0,.03,0,.04Z"/><path class="cls-34" d="M306.93,357.25c2.77-.19,5.55-.39,8.32-.59,0-.01,0-.03,0-.04-2.77.2-5.55.4-8.32.59v.04Z"/><path class="cls-34" d="M260.19,264.12c-1.67.07-3.35.14-5.02.2.03.89.07,1.78.1,2.67,2.62-.1,5.24-.21,7.86-.33-.04-.89-.08-1.78-.12-2.67-.94.04-1.88.08-2.83.12Z"/><path class="cls-34" d="M265.93,330.6c-.28-6.38-.56-12.76-.84-19.13-2.7.12-5.39.23-8.09.34.25,6.38.49,12.76.74,19.14,2.73-.11,5.46-.22,8.19-.34Z"/><path class="cls-34" d="M258.86,359.53c2.78-.11,5.55-.22,8.33-.34-.21-4.69-.41-9.37-.62-14.06-.02-.56-.05-1.13-.07-1.69-2.75.12-5.5.24-8.25.34.02.56.04,1.13.07,1.69.18,4.69.36,9.38.54,14.06Z"/><path class="cls-34" d="M264.53,298.63c-.28-6.38-.56-12.76-.84-19.13-2.64.12-5.28.23-7.93.33.25,6.38.49,12.76.74,19.14,2.67-.1,5.35-.22,8.02-.33Z"/><path class="cls-34" d="M269.41,330.45c2.73-.13,5.46-.26,8.18-.4-.33-6.38-.65-12.75-.98-19.13-2.7.14-5.39.27-8.09.4.29,6.38.59,12.75.88,19.13Z"/><path class="cls-34" d="M270.72,359.03h0c2.78-.13,5.55-.26,8.33-.4-.27-5.25-.54-10.5-.8-15.75-2.75.14-5.5.28-8.25.4.24,5.25.48,10.5.72,15.75Z"/><path class="cls-34" d="M267.94,298.48c2.67-.12,5.35-.26,8.02-.39-.33-6.38-.65-12.75-.98-19.13-2.64.14-5.28.27-7.92.39.29,6.38.59,12.75.88,19.13Z"/><path class="cls-34" d="M266.47,266.51c2.62-.12,5.24-.25,7.86-.39-.05-.89-.09-1.78-.14-2.67-2.61.13-5.23.26-7.85.38.04.89.08,1.78.12,2.67Z"/><path class="cls-34" d="M329.87,326.52c.21-.02.43-.04.64-.06.22-1.31.42-2.63.59-3.98.29-2.32.87-8.02,1.72-15.45-1.52.13-3.03.26-4.55.39.53,6.36,1.07,12.72,1.6,19.08Z"/><path class="cls-34" d="M327.2,294.63c2.4-.2,4.8-.41,7.2-.62.16-1.22.32-2.45.48-3.7-.46-5.15-.92-10.3-1.37-15.45-2.64.23-5.27.46-7.91.68.53,6.36,1.07,12.72,1.6,19.08Z"/><path class="cls-34" d="M332.14,259.41c-2.5.22-5,.44-7.5.65-.11,0-.22.02-.33.03.07.89.15,1.77.22,2.66,2.62-.22,5.23-.44,7.84-.68-.08-.89-.16-1.77-.24-2.66Z"/><path class="cls-34" d="M336.99,275.88c.07-.45.14-.9.22-1.35-.11.01-.23.02-.34.03.04.44.08.88.12,1.32Z"/><path class="cls-34" d="M335.7,261.77c1.3-.12,2.59-.24,3.89-.36.19-.93.38-1.84.58-2.73-1.57.15-3.14.3-4.71.44.08.89.16,1.77.24,2.66Z"/><path class="cls-34" d="M297.1,262.12c-2.61.17-5.23.34-7.84.5.38,6.22.76,12.43,1.14,18.65,2.65-.16,5.29-.33,7.94-.5-.41-6.21-.82-12.43-1.23-18.64Z"/><path class="cls-34" d="M299.18,293.58c-2.67.18-5.33.35-8,.51.39,6.37.78,12.74,1.16,19.1,2.7-.16,5.4-.34,8.1-.51-.42-6.37-.84-12.73-1.26-19.1Z"/><path class="cls-34" d="M301.28,325.5c-2.72.18-5.44.35-8.16.52.39,6.38.78,12.75,1.17,19.13,2.75-.17,5.51-.34,8.26-.52-.42-6.37-.84-12.75-1.26-19.12Z"/><path class="cls-34" d="M303.87,312.45c2.7-.18,5.4-.38,8.09-.57-.47-6.36-.93-12.73-1.4-19.09-2.67.2-5.33.39-8,.57.43,6.36.87,12.73,1.3,19.09Z"/><path class="cls-34" d="M306.05,344.39c2.75-.19,5.51-.38,8.26-.59-.47-6.37-.93-12.74-1.4-19.11-2.72.2-5.44.39-8.16.58.43,6.37.87,12.75,1.3,19.12Z"/><path class="cls-34" d="M301.7,280.54c2.64-.18,5.29-.37,7.93-.56-.46-6.21-.91-12.42-1.37-18.63-2.61.19-5.22.38-7.84.56.42,6.21.85,12.43,1.27,18.64Z"/><path class="cls-35" d="M300.44,312.68c-2.7.18-5.4.35-8.1.51-5.07.31-10.14.6-15.21.86.22,4.28.44,8.55.66,12.83,5.11-.26,10.22-.55,15.33-.86,2.72-.17,5.44-.34,8.16-.52,1.15-.08,2.31-.15,3.46-.23,2.72-.19,5.44-.38,8.16-.58,5.54-.41,11.08-.84,16.62-1.3-.36-4.27-.71-8.54-1.07-12.8-5.49.46-10.99.89-16.49,1.29-2.7.2-5.4.39-8.09.57-1.14.08-2.29.15-3.43.23Z"/><path class="cls-35" d="M313.24,327.84c.31,4.27.63,8.54.94,12.81,4.34-.32,8.68-.66,13.01-1.02,1.43-4.19,2.54-8.58,3.33-13.17-.21.02-.43.04-.64.06-5.54.46-11.09.91-16.64,1.32Z"/><path class="cls-35" d="M265.93,330.6c-2.73.12-5.46.23-8.19.34-2.74.11-5.48.21-8.22.3.08,2.47.17,4.95.25,7.42.06,1.81.12,3.61.18,5.42,2.76-.09,5.53-.2,8.29-.31,2.75-.11,5.5-.22,8.25-.34,1.17-.05,2.33-.1,3.5-.15,2.75-.13,5.5-.26,8.25-.4,5.26-.27,10.51-.55,15.77-.87-.26-4.27-.52-8.55-.78-12.82-5.21.32-10.43.6-15.64.87-2.73.14-5.46.28-8.18.4-1.16.05-2.32.1-3.47.15Z"/><path class="cls-35" d="M302.55,344.62c-2.75.18-5.51.36-8.26.52-5.17.32-10.34.61-15.52.87.22,4.28.44,8.55.66,12.83,5.21-.27,10.43-.56,15.64-.88,2.78-.17,5.55-.35,8.33-.53,1.18-.08,2.35-.16,3.53-.24,2.77-.19,5.55-.39,8.32-.59,1.3-.1,2.6-.2,3.89-.29,2.69-4.17,4.99-8.65,6.85-13.42-3.9.31-7.79.62-11.69.9-2.75.2-5.5.4-8.26.59-1.17.08-2.34.16-3.5.23Z"/><path class="cls-35" d="M332.37,262.07c-2.61.23-5.23.46-7.84.68-5.32.45-10.65.87-15.97,1.26.31,4.27.63,8.54.94,12.81,5.37-.39,10.74-.83,16.11-1.28,2.64-.22,5.27-.45,7.91-.68,1.12-.1,2.24-.2,3.35-.3.11-.01.23-.02.34-.03.74-4.52,1.53-8.96,2.38-13.13-1.3.12-2.59.25-3.89.36-1.11.1-2.22.2-3.33.3Z"/><path class="cls-35" d="M263.13,266.66c-2.62.11-5.24.23-7.86.33-2.63.1-5.26.2-7.9.29.03.81.05,1.62.08,2.43.12,3.47.23,6.94.35,10.41,2.65-.09,5.31-.19,7.96-.29,2.64-.1,5.28-.21,7.93-.33,1.12-.05,2.24-.1,3.36-.15,2.64-.12,5.28-.25,7.92-.39,5.05-.26,10.1-.53,15.14-.84-.26-4.27-.52-8.55-.78-12.82-5.01.3-10.01.58-15.02.83-2.62.13-5.24.26-7.86.39-1.11.05-2.22.1-3.33.15Z"/><path class="cls-35" d="M298.33,280.76c-2.64.17-5.29.34-7.94.5-4.97.3-9.94.58-14.91.84.22,4.28.44,8.55.66,12.83,5.01-.26,10.02-.54,15.03-.85,2.67-.16,5.33-.33,8-.51,1.13-.07,2.26-.15,3.39-.23,2.67-.18,5.33-.37,8-.57,5.43-.4,10.86-.82,16.29-1.28-.36-4.27-.71-8.54-1.07-12.8-5.38.45-10.77.87-16.16,1.27-2.64.19-5.29.38-7.93.56-1.12.08-2.24.15-3.37.22Z"/><path class="cls-35" d="M310.9,295.92c.31,4.27.63,8.54.94,12.81,5.48-.4,10.96-.84,16.44-1.3,1.52-.13,3.03-.26,4.55-.39.45-3.94.98-8.36,1.58-13.03-2.4.21-4.8.42-7.2.62-5.43.46-10.87.89-16.31,1.29Z"/><path class="cls-35" d="M264.53,298.63c-2.67.12-5.35.23-8.02.33-2.69.1-5.37.21-8.06.3.06,1.66.11,3.31.17,4.97.09,2.62.18,5.25.26,7.87,2.71-.09,5.42-.2,8.13-.3,2.7-.1,5.39-.22,8.09-.34,1.14-.05,2.29-.1,3.43-.15,2.7-.12,5.39-.26,8.09-.4,5.15-.26,10.3-.54,15.46-.86-.26-4.27-.52-8.55-.78-12.82-5.11.31-10.22.59-15.33.85-2.67.14-5.35.27-8.02.39-1.13.05-2.27.1-3.4.15Z"/><path class="cls-35" d="M257.59,327.92c-.17-4.33-.34-8.66-.5-12.99-2.7.1-5.4.2-8.1.29.15,4.33.29,8.66.44,12.99,2.72-.09,5.45-.19,8.17-.29Z"/><path class="cls-35" d="M258.19,359.84c.21,0,.42-.02.63-.03-.17-4.33-.34-8.66-.5-12.99-2.75.11-5.51.21-8.27.3.15,4.33.29,8.66.44,12.99,2.57-.09,5.13-.18,7.7-.28Z"/><path class="cls-35" d="M256.35,295.84c-.17-4.33-.34-8.66-.5-12.99-2.65.1-5.29.2-7.94.29.15,4.33.29,8.66.44,12.99,2.67-.09,5.34-.19,8.01-.29Z"/><path class="cls-34" d="M260.13,392.33c2.85-.6,5.66-1.26,8.43-1.97-.22-5.13-.45-10.26-.67-15.39-2.8.12-5.61.24-8.41.35.22,5.67.44,11.34.66,17.01Z"/><path class="cls-34" d="M258.87,359.81c.03.89.07,1.78.1,2.67,2.78-.11,5.56-.23,8.35-.35-.04-.89-.08-1.78-.12-2.67-2.78.12-5.56.24-8.33.35Z"/><path class="cls-34" d="M272.12,389.42c2.88-.8,5.67-1.71,8.37-2.73-.21-4.1-.42-8.19-.63-12.29-2.8.14-5.61.28-8.41.41.22,4.87.45,9.74.67,14.61Z"/><path class="cls-34" d="M270.86,361.98c2.78-.13,5.56-.27,8.34-.41-.05-.89-.09-1.78-.14-2.67-2.78.14-5.55.28-8.33.41.04.89.08,1.78.12,2.67Z"/><path class="cls-34" d="M295.07,358.01c.38,6.22.76,12.43,1.14,18.65,1.23-.07,2.46-.16,3.69-.23,1.56-1.11,3.07-2.28,4.52-3.49-.34-5.15-.68-10.3-1.02-15.45-2.77.18-5.55.36-8.33.53Z"/><path class="cls-34" d="M315.59,361.34c-.11-1.56-.23-3.12-.34-4.68-2.77.2-5.55.4-8.32.59.29,4.23.58,8.46.87,12.69,2.83-2.66,5.44-5.53,7.8-8.6Z"/><path class="cls-35" d="M315.55,359.32l.14,1.89c.51-.66,1.01-1.34,1.5-2.02-.55.04-1.09.09-1.64.13Z"/><path class="cls-35" d="M267.32,362.14c-2.78.12-5.56.24-8.35.35-2.8.11-5.59.22-8.39.31.14,4.28.29,8.56.43,12.84,2.82-.09,5.63-.2,8.45-.31,2.8-.11,5.61-.23,8.41-.35,1.19-.05,2.38-.1,3.57-.16,2.8-.13,5.61-.27,8.41-.41,5.36-.27,10.72-.56,16.07-.89-.26-4.27-.52-8.55-.78-12.82-5.31.32-10.63.61-15.95.88-2.78.14-5.56.28-8.34.41-1.18.05-2.36.1-3.54.16Z"/><path class="cls-35" d="M280.39,377.55c.15,3,.31,6.01.46,9.01,6.98-2.67,13.35-6.07,19.04-10.14-1.23.08-2.46.16-3.69.23-5.27.32-10.54.62-15.82.89Z"/><path class="cls-35" d="M260.05,391.33c-.17-4.33-.34-8.66-.5-12.99-2.81.11-5.62.21-8.43.3.15,4.33.29,8.66.44,12.99,2.83-.1,5.66-.2,8.49-.31Z"/><path class="cls-34" d="M152.3,250.51c-.13,4.46-.25,8.91-.38,13.37.13-4.46.25-8.91.38-13.37h0Z"/><path class="cls-34" d="M159.75,264.78c-2.62-.06-5.23-.13-7.85-.2,0,.1,0,.19,0,.29,2.62.07,5.23.14,7.85.2,0-.09,0-.19,0-.28Z"/><path class="cls-34" d="M163.38,250.78l-.3,14.36c2.62.05,5.23.1,7.85.14,0-.1,0-.19,0-.29-2.62-.04-5.23-.09-7.85-.14.1-4.69.2-9.38.3-14.07Z"/><path class="cls-34" d="M228.67,250.75h0c.1,4.69.2,9.38.31,14.07-2.62.06-5.23.11-7.85.15-.08-4.69-.16-9.38-.23-14.07h0c.08,4.79.16,9.57.24,14.36,2.62-.04,5.23-.1,7.85-.15-.1-4.79-.21-9.57-.31-14.36Z"/><path class="cls-34" d="M240.17,264.83s0,0,0,0c-.12,0-.25,0-.37.01.12,0,.25,0,.37-.01Z"/><path class="cls-34" d="M232.31,264.75c0,.09,0,.19,0,.28,2.24-.05,4.47-.11,6.71-.17,0-.1,0-.19,0-.29-2.24.06-4.47.12-6.71.18Z"/><path class="cls-34" d="M193.87,265.43c-2.62,0-5.23-.01-7.85-.03,0,.01,0,.03,0,.04,2.62.02,5.23.03,7.85.03v-.04Z"/><path class="cls-34" d="M197.2,265.47c2.62,0,5.23-.01,7.85-.03,0-.01,0-.03,0-.04-2.62.02-5.23.03-7.85.03v.04Z"/><path class="cls-34" d="M203.97,251.09c-2.26.01-4.53.02-6.79.03,0,.49,0,.98,0,1.47,2.3,0,4.6-.01,6.9-.02-.04-.49-.08-.98-.11-1.47Z"/><path class="cls-35" d="M239.02,264.57c0,.1,0,.19,0,.29.26,0,.51-.01.77-.02.12,0,.25,0,.37-.01,2.08-.06,4.15-.12,6.23-.19.26,0,.52-.02.78-.02.04,0,.07,0,.11,0-.15-4.33-.29-8.66-.44-12.99-2.35.08-4.71.15-7.06.22.12,4.24.25,8.47.37,12.71-.38.01-.76.02-1.14.03Z"/><path class="cls-34" d="M160.42,236.11c-2.34-.05-4.67-.11-7.01-.18-.23,0-.46,0-.7,0,0,.01,0,.03,0,.05,2.57.07,5.14.14,7.7.2,0-.02,0-.04,0-.06Z"/><path class="cls-34" d="M159.75,264.78c.11-4.69.22-9.38.33-14.07.01-.56.03-1.13.04-1.69-2.59-.06-5.18-.12-7.77-.2-.02.56-.03,1.13-.05,1.69-.13,4.46-.25,8.91-.38,13.37,0,.23-.01.46-.02.7h0c2.62.07,5.23.14,7.85.2h0Z"/><path class="cls-34" d="M171.39,236.32c-2.57-.04-5.14-.08-7.7-.14,0,.02,0,.04,0,.06,2.57.05,5.14.1,7.7.14,0-.02,0-.04,0-.06Z"/><path class="cls-34" d="M163.38,250.78c-.1,4.69-.2,9.38-.3,14.07,2.62.05,5.23.1,7.85.14.08-5.25.17-10.51.25-15.76-2.59-.04-5.18-.09-7.77-.14-.01.56-.02,1.12-.04,1.69Z"/><path class="cls-34" d="M228.36,236.15c-2.57.06-5.14.1-7.7.15,0,.02,0,.04,0,.06,2.57-.04,5.14-.09,7.7-.15,0-.02,0-.04,0-.07Z"/><path class="cls-34" d="M228.98,264.82c-.1-4.69-.2-9.38-.31-14.07-.01-.56-.02-1.13-.04-1.69-2.59.06-5.18.1-7.77.15,0,.56.02,1.13.03,1.69.08,4.69.16,9.38.23,14.07,2.62-.04,5.23-.09,7.85-.15Z"/><path class="cls-34" d="M236.86,235.94c-1.74.05-3.49.1-5.23.14,0,.02,0,.04,0,.06,2.56-.06,5.12-.13,7.68-.2-.81,0-1.63,0-2.45,0Z"/><path class="cls-34" d="M232.31,264.75c2.24-.05,4.47-.11,6.71-.18.38-.01.76-.02,1.14-.03-.12-4.24-.25-8.47-.37-12.71-.01-.45-.03-.91-.04-1.36-.02-.56-.03-1.13-.05-1.69-2.59.08-5.18.14-7.77.2.13,5.25.25,10.51.38,15.76h0Z"/><path class="cls-34" d="M193.9,236.52c-2.57,0-5.14-.01-7.7-.03-.03,4.87-.06,9.73-.09,14.6,0,.49,0,.98,0,1.47,2.6.02,5.19.03,7.79.03,0-5.36.01-10.71.02-16.07Z"/><path class="cls-34" d="M204.97,252.56c0-.49,0-.98,0-1.47-.03-4.87-.06-9.73-.09-14.6-.67,0-1.34,0-2.01,0,.37,4.86.74,9.73,1.11,14.59.04.49.08.98.11,1.47.3,0,.59,0,.89,0Z"/><path class="cls-35" d="M231.93,248.99c2.59-.06,5.18-.13,7.77-.2,2.35-.07,4.7-.13,7.04-.21-.14-4.21-.28-8.42-.42-12.63-2.32,0-4.66,0-7.02,0-2.56.07-5.12.14-7.68.2-1.09.03-2.18.05-3.27.08-2.57.06-5.14.1-7.7.15-5.23.09-10.46.16-15.68.19.03,4.28.05,8.57.08,12.85,5.27-.03,10.54-.1,15.82-.19,2.59-.04,5.18-.09,7.77-.15,1.1-.02,2.2-.05,3.3-.08Z"/><path class="cls-35" d="M163.41,249.09c2.59.05,5.18.1,7.77.14,4.95.08,9.9.14,14.85.17.03-4.28.05-8.57.08-12.85-4.91-.03-9.82-.09-14.73-.17-2.57-.04-5.14-.08-7.7-.14-1.09-.02-2.18-.05-3.27-.08-2.57-.06-5.14-.12-7.7-.2-.51-.01-1.01-.03-1.52-.05-2.09,0-4.16,0-6.22,0-.14,4.22-.28,8.44-.42,12.66,2.6.09,5.2.16,7.8.23,2.59.07,5.18.14,7.77.2,1.1.03,2.2.05,3.3.08Z"/><path class="cls-35" d="M197.2,265.43c2.62,0,5.23-.01,7.85-.03,5.33-.03,10.67-.09,16-.18-.07-4.28-.14-8.56-.21-12.85-5.29.09-10.58.15-15.87.18-.3,0-.59,0-.89,0-2.3.01-4.6.02-6.9.02-1.1,0-2.2,0-3.3,0-2.6,0-5.19-.01-7.79-.03-4.87-.03-9.75-.08-14.62-.16-.07,4.28-.13,8.56-.2,12.85,4.91.08,9.83.13,14.74.16,2.62.02,5.23.03,7.85.03,1.11,0,2.22,0,3.33,0Z"/><path class="cls-35" d="M151.27,264.84c.2,0,.39.01.59.02.12-4.33.24-8.66.37-12.99-2.59-.07-5.19-.15-7.78-.24-.14,4.33-.29,8.66-.43,12.99,2.42.08,4.84.15,7.26.22Z"/><path class="cls-34" d="M149.2,360.39c2.78.08,5.56.15,8.34.21,0-.09,0-.19,0-.28-2.78-.06-5.56-.14-8.34-.21,0,.1,0,.19,0,.29Z"/><path class="cls-34" d="M161.07,360.68c2.78.06,5.56.11,8.34.15,0-.1,0-.19,0-.29-2.78-.04-5.56-.1-8.34-.15,0,.1,0,.19,0,.29Z"/><path class="cls-34" d="M231.06,360.37c-2.78.06-5.56.11-8.34.16-.08-4.69-.16-9.38-.23-14.07.08,4.79.16,9.57.24,14.36,2.78-.05,5.56-.1,8.34-.16,0-.1,0-.19,0-.29Z"/><path class="cls-34" d="M241.71,360.1c-2.37.07-4.75.13-7.12.19,0,.09,0,.19,0,.28.09,0,.17,0,.26,0,2.29-.05,4.57-.12,6.86-.18,0-.1,0-.19,0-.29Z"/><path class="cls-34" d="M242.94,360.36s0,0,0,0c-.1,0-.2,0-.31,0,.1,0,.2,0,.31,0Z"/><path class="cls-34" d="M185.43,360.97s0,.03,0,.04c2.78.02,5.56.03,8.34.03v-.04c-2.78,0-5.56-.01-8.34-.03Z"/><path class="cls-34" d="M197.31,361.04c2.78,0,5.56-.01,8.34-.03,0-.01,0-.03,0-.04-2.78.02-5.56.03-8.34.03,0,.01,0,.03,0,.04Z"/><path class="cls-34" d="M197.29,346.68c0,.49,0,.98,0,1.47h0c0-.49,0-.98,0-1.47h0Z"/><path class="cls-35" d="M249.42,328.22c-.15-4.33-.29-8.66-.44-12.99-2.45.08-4.9.16-7.35.23.13,4.33.25,8.66.38,12.99,2.47-.07,4.94-.15,7.41-.23Z"/><path class="cls-35" d="M241.71,360.1c0,.1,0,.19,0,.29.3,0,.6-.02.91-.02.1,0,.2,0,.31,0,2.22-.06,4.43-.13,6.65-.21.26,0,.53-.02.79-.02.04,0,.08,0,.12,0-.15-4.33-.29-8.66-.44-12.99-2.5.08-5,.16-7.5.23.12,4.24.25,8.47.37,12.71-.4.01-.81.02-1.21.03Z"/><path class="cls-35" d="M248.34,296.12c-.15-4.33-.29-8.66-.44-12.99-2.4.08-4.8.15-7.2.22.13,4.33.25,8.66.38,12.99,2.42-.07,4.84-.14,7.26-.23Z"/><path class="cls-34" d="M158.95,299.72c.15-6.38.3-12.76.44-19.15-2.64-.06-5.29-.13-7.93-.2-.18,6.38-.36,12.76-.54,19.14,2.68.08,5.35.14,8.03.2Z"/><path class="cls-34" d="M159.75,265.06c-2.62-.06-5.23-.13-7.85-.2-.03.89-.05,1.78-.08,2.67,2.62.07,5.24.14,7.86.2.02-.89.04-1.78.06-2.67Z"/><path class="cls-34" d="M157.54,360.32c.08-3.46.16-6.91.24-10.37.03-1.23.06-2.47.09-3.7.01-.56.03-1.13.04-1.69-2.75-.06-5.5-.13-8.25-.21-.15,5.25-.3,10.5-.44,15.76,2.78.08,5.56.15,8.34.21Z"/><path class="cls-34" d="M158.21,331.71c.15-6.38.3-12.76.44-19.15-2.7-.06-5.39-.13-8.09-.21-.18,6.38-.36,12.76-.54,19.14,2.73.08,5.46.14,8.19.21Z"/><path class="cls-34" d="M161.68,331.79c2.73.06,5.46.1,8.19.15.1-6.38.2-12.77.3-19.15-2.7-.04-5.4-.09-8.09-.15-.13,6.38-.27,12.76-.4,19.15Z"/><path class="cls-34" d="M161.08,360.4h0c2.78.06,5.56.11,8.34.15.08-5.25.17-10.51.25-15.76-2.75-.04-5.5-.09-8.26-.15-.11,5.25-.22,10.51-.33,15.76Z"/><path class="cls-34" d="M162.35,299.8c2.68.06,5.35.1,8.03.14.1-6.38.2-12.77.3-19.15-2.64-.04-5.29-.09-7.93-.14-.13,6.38-.27,12.76-.4,19.15Z"/><path class="cls-34" d="M163.02,267.81c2.62.06,5.24.1,7.86.14.01-.89.03-1.78.04-2.67-2.62-.04-5.23-.09-7.85-.14-.02.89-.04,1.78-.06,2.67Z"/><path class="cls-34" d="M228.98,265.11c-2.62.06-5.23.11-7.85.15.01.89.03,1.78.04,2.67,2.62-.04,5.24-.09,7.86-.15-.02-.89-.04-1.78-.06-2.67Z"/><path class="cls-34" d="M229.32,280.63c-2.64.06-5.29.11-7.93.15.11,6.38.21,12.77.32,19.15,2.68-.04,5.35-.09,8.03-.15-.14-6.38-.28-12.76-.42-19.15Z"/><path class="cls-34" d="M230.02,312.62c-2.7.06-5.4.11-8.09.15.11,6.38.21,12.77.32,19.15,2.73-.05,5.46-.1,8.19-.16-.14-6.38-.28-12.76-.42-19.15Z"/><path class="cls-34" d="M231.06,360.37h0c-.11-5.25-.23-10.51-.34-15.76-2.75.06-5.5.11-8.26.16,0,.56.02,1.13.03,1.69.08,4.69.16,9.38.23,14.07,2.78-.05,5.56-.1,8.34-.16Z"/><path class="cls-34" d="M242.93,360.07c-.12-4.24-.25-8.47-.37-12.71-.03-1.02-.06-2.03-.09-3.05-2.75.08-5.5.15-8.25.22.13,5.25.25,10.51.38,15.76,2.37-.06,4.75-.12,7.12-.19.4-.01.81-.02,1.21-.03Z"/><path class="cls-34" d="M241.63,315.46c-.03-1.04-.06-2.09-.09-3.13-2.7.08-5.39.15-8.09.21.15,6.38.31,12.76.46,19.15,2.73-.07,5.46-.14,8.19-.22-.03-1.01-.06-2.01-.09-3.02-.13-4.33-.25-8.66-.38-12.99Z"/><path class="cls-34" d="M240.7,283.36c-.03-1.01-.06-2.01-.09-3.02-2.64.08-5.29.15-7.93.21.15,6.38.31,12.76.46,19.15,2.68-.06,5.35-.13,8.03-.21-.03-1.04-.06-2.09-.09-3.13-.13-4.33-.25-8.66-.38-12.99Z"/><path class="cls-34" d="M239.79,264.84c-.26,0-.51.01-.77.02-2.24.06-4.47.12-6.71.17.02.89.04,1.78.06,2.67,2.62-.06,5.24-.13,7.86-.21-.03-.89-.05-1.78-.08-2.67-.12,0-.25,0-.37.01Z"/><path class="cls-34" d="M193.84,297c-2.67,0-5.34-.01-8.01-.03-.04,6.38-.08,12.76-.12,19.14,2.7.02,5.41.03,8.11.03,0-6.38.01-12.76.02-19.14Z"/><path class="cls-34" d="M193.87,265.47c-2.62,0-5.23-.01-7.85-.03-.04,6.23-.08,12.45-.11,18.68,2.65.02,5.3.03,7.95.03,0-6.23.01-12.45.02-18.68Z"/><path class="cls-34" d="M193.81,328.99c-2.73,0-5.45-.01-8.18-.03-.04,6.39-.08,12.78-.12,19.16,2.76.02,5.52.03,8.27.03,0-6.39.01-12.78.02-19.16Z"/><path class="cls-34" d="M197.26,316.14c2.7,0,5.41-.01,8.11-.03-.04-6.38-.08-12.76-.12-19.14-2.67.02-5.34.03-8.01.03,0,6.38.01,12.76.02,19.14Z"/><path class="cls-34" d="M197.29,346.68c0,.49,0,.98,0,1.47,2.76,0,5.52-.01,8.27-.03,0-.49,0-.98,0-1.47-.04-5.9-.07-11.8-.11-17.69-2.72.02-5.45.03-8.18.03,0,5.9.01,11.79.02,17.69Z"/><path class="cls-34" d="M197.22,284.15c2.65,0,5.3-.01,7.95-.03-.04-6.23-.08-12.45-.12-18.68-2.62.02-5.23.03-7.85.03,0,6.23.01,12.45.02,18.68Z"/><path class="cls-35" d="M197.27,328.99c2.73,0,5.45-.01,8.18-.03,5.55-.03,11.11-.09,16.66-.19l-.21-12.85c-5.51.09-11.02.15-16.53.19-2.7.02-5.41.03-8.11.03-1.15,0-2.29,0-3.44,0-2.7,0-5.41-.01-8.11-.03-5.08-.03-10.15-.08-15.23-.16-.07,4.28-.13,8.56-.2,12.85,5.12.08,10.23.13,15.35.16,2.73.02,5.45.03,8.18.03,1.16,0,2.31,0,3.47,0Z"/><path class="cls-35" d="M234.22,344.53c2.75-.07,5.5-.14,8.25-.22,2.5-.07,4.99-.14,7.48-.23-.06-1.81-.12-3.61-.18-5.42-.08-2.47-.17-4.95-.25-7.42-2.47.08-4.95.15-7.43.22-2.73.08-5.46.15-8.19.22-1.16.03-2.32.06-3.47.08-2.73.06-5.46.11-8.19.16-5.56.09-11.12.17-16.67.2.03,4.28.05,8.57.08,12.85,5.6-.04,11.21-.11,16.81-.2,2.75-.05,5.5-.1,8.26-.16,1.17-.03,2.33-.05,3.5-.08Z"/><path class="cls-35" d="M158.21,331.71c-2.73-.06-5.46-.13-8.19-.21-2.74-.08-5.48-.16-8.23-.25-.14,4.28-.29,8.56-.43,12.84,2.76.09,5.53.17,8.29.25,2.75.08,5.5.15,8.25.21,1.17.03,2.33.06,3.5.08,2.75.06,5.5.1,8.26.15,5.26.08,10.52.15,15.78.18.03-4.28.05-8.57.08-12.85-5.22-.03-10.44-.1-15.66-.18-2.73-.04-5.46-.09-8.19-.15-1.16-.02-2.32-.05-3.47-.08Z"/><path class="cls-35" d="M197.31,361c2.78,0,5.56-.01,8.34-.03,5.66-.04,11.33-.1,16.99-.19-.07-4.28-.14-8.56-.21-12.85-5.62.09-11.24.15-16.86.19-2.76.02-5.52.03-8.27.03h0c-1.17,0-2.34,0-3.51,0-2.76,0-5.52-.01-8.27-.03-5.18-.03-10.36-.08-15.53-.17-.07,4.28-.13,8.56-.2,12.85,5.22.08,10.44.14,15.66.17,2.78.02,5.56.03,8.34.03,1.18,0,2.36,0,3.54,0Z"/><path class="cls-35" d="M232.69,280.55c2.64-.06,5.29-.13,7.93-.21,2.4-.07,4.79-.14,7.19-.22-.12-3.47-.23-6.94-.35-10.41-.03-.81-.05-1.62-.08-2.43-2.38.08-4.75.15-7.13.22-2.62.08-5.24.14-7.86.21-1.11.03-2.22.05-3.34.08-2.62.06-5.24.11-7.86.15-5.34.09-10.67.16-16.01.19.03,4.28.05,8.57.08,12.85,5.38-.03,10.76-.1,16.14-.19,2.64-.04,5.29-.09,7.93-.15,1.12-.02,2.24-.05,3.36-.08Z"/><path class="cls-35" d="M143.49,280.14c2.65.09,5.31.16,7.96.24,2.64.07,5.29.14,7.93.2,1.12.03,2.24.05,3.36.08,2.64.06,5.29.1,7.93.14,5.05.08,10.11.14,15.16.18.03-4.28.05-8.57.08-12.85-5.01-.03-10.02-.09-15.04-.17-2.62-.04-5.24-.09-7.86-.14-1.11-.02-2.22-.05-3.34-.08-2.62-.06-5.24-.13-7.86-.2-2.63-.07-5.27-.15-7.9-.24,0,.1,0,.2,0,.3-.14,4.18-.28,8.36-.42,12.54Z"/><path class="cls-35" d="M197.24,297c2.67,0,5.34-.01,8.01-.03,5.44-.03,10.89-.09,16.33-.18-.07-4.28-.14-8.56-.21-12.85-5.4.09-10.8.15-16.2.18-2.65.02-5.3.03-7.95.03-1.12,0-2.25,0-3.37,0-2.65,0-5.3-.01-7.95-.03-4.97-.03-9.95-.08-14.92-.16-.07,4.28-.13,8.56-.2,12.85,5.01.08,10.03.13,15.05.16,2.67.02,5.34.03,8.01.03,1.13,0,2.27,0,3.4,0Z"/><path class="cls-35" d="M233.45,312.54c2.7-.06,5.39-.14,8.09-.21,2.45-.07,4.89-.14,7.34-.22-.09-2.62-.18-5.25-.26-7.87-.06-1.66-.11-3.31-.17-4.97-2.43.08-4.85.15-7.28.22-2.68.08-5.35.15-8.03.21-1.14.03-2.27.05-3.41.08-2.68.06-5.35.11-8.03.15-5.45.09-10.89.16-16.34.2.03,4.28.05,8.57.08,12.85,5.49-.03,10.98-.11,16.48-.2,2.7-.04,5.4-.09,8.09-.15,1.14-.02,2.29-.05,3.43-.08Z"/><path class="cls-35" d="M158.95,299.72c-2.68-.06-5.35-.13-8.03-.2-2.69-.08-5.38-.15-8.06-.24-.14,4.28-.29,8.56-.43,12.84,2.71.09,5.42.17,8.13.24,2.7.08,5.39.14,8.09.21,1.14.03,2.29.06,3.43.08,2.7.06,5.4.1,8.09.15,5.16.08,10.31.15,15.47.18.03-4.28.05-8.57.08-12.85-5.12-.03-10.23-.1-15.35-.18-2.68-.04-5.35-.09-8.03-.14-1.14-.02-2.27-.05-3.41-.08Z"/><path class="cls-35" d="M150.06,328.48c.12-4.33.24-8.66.37-12.99-2.7-.08-5.4-.16-8.1-.25-.14,4.33-.29,8.66-.43,12.99,2.72.09,5.45.18,8.17.25Z"/><path class="cls-35" d="M148.51,360.37c.21,0,.43.01.65.02.12-4.33.24-8.66.37-12.99-2.76-.08-5.51-.16-8.27-.26-.14,4.33-.29,8.66-.43,12.99,2.56.09,5.13.16,7.69.24Z"/><path class="cls-35" d="M150.97,296.39c.12-4.33.24-8.66.37-12.99-2.65-.07-5.29-.16-7.94-.25l-.43,12.99c2.67.09,5.34.17,8.01.25Z"/><path class="cls-35" d="M251.55,391.64c-.15-4.33-.29-8.66-.44-12.99-2.55.09-5.1.16-7.64.24.13,4.33.25,8.66.38,12.99,2.57-.07,5.14-.15,7.7-.24Z"/><path class="cls-34" d="M149.2,360.39c-.03.89-.05,1.78-.08,2.67,2.78.08,5.57.15,8.35.21.02-.89.04-1.78.06-2.67-2.78-.06-5.56-.13-8.34-.21Z"/><path class="cls-34" d="M157.18,376.12c-2.81-.07-5.61-.13-8.42-.21-.17,6.17-.35,12.33-.52,18.5,2.15.29,4.32.55,6.5.81.66.02,1.33.04,1.99.05.15-6.38.3-12.76.44-19.15Z"/><path class="cls-34" d="M161.02,363.35c2.78.06,5.57.11,8.35.15.01-.89.03-1.78.04-2.67-2.78-.04-5.56-.09-8.34-.15-.02.89-.04,1.78-.06,2.67Z"/><path class="cls-34" d="M160.35,395.35c2.84.06,5.68.11,8.51.15.1-6.38.2-12.77.3-19.15-2.81-.04-5.61-.09-8.42-.15-.13,6.38-.27,12.76-.4,19.15Z"/><path class="cls-34" d="M231.4,376.17c-2.81.06-5.61.11-8.42.16.11,6.38.21,12.77.32,19.15,2.84-.05,5.68-.1,8.51-.16-.14-6.38-.28-12.76-.42-19.15Z"/><path class="cls-34" d="M231.06,360.66c-2.78.06-5.56.12-8.34.16.01.89.03,1.78.04,2.67,2.78-.05,5.57-.1,8.35-.16-.02-.89-.04-1.78-.06-2.67Z"/><path class="cls-34" d="M235.43,395.23c2.84-.07,5.68-.14,8.51-.22-.03-1.04-.06-2.09-.09-3.13-.13-4.33-.25-8.66-.38-12.99-.03-1.01-.06-2.01-.09-3.02-2.8.08-5.61.15-8.42.22.15,6.38.31,12.76.46,19.15Z"/><path class="cls-34" d="M242.63,360.36c-.3,0-.6.02-.91.02-2.29.06-4.57.13-6.86.18-.09,0-.17,0-.26,0,.02.89.04,1.78.06,2.67,2.78-.07,5.57-.14,8.35-.22-.03-.89-.05-1.78-.08-2.67-.1,0-.2,0-.31,0Z"/><path class="cls-34" d="M193.77,361.04c-2.78,0-5.56-.01-8.34-.03-.04,6.23-.08,12.45-.11,18.68,2.81.02,5.62.03,8.43.03,0-6.23.01-12.45.02-18.68Z"/><path class="cls-34" d="M185.21,397.64c2.83.12,5.68.2,8.52.26,0-1.78,0-3.55,0-5.33-2.83,0-5.67-.01-8.5-.03-.01,1.7-.02,3.4-.03,5.1Z"/><path class="cls-34" d="M205.88,397.93c-.01-1.8-.02-3.6-.03-5.4-2.83.02-5.67.03-8.5.03,0,1.79,0,3.59,0,5.38,2.84.03,5.68.02,8.53-.02Z"/><path class="cls-34" d="M205.76,379.69c-.04-6.23-.08-12.45-.12-18.68-2.78.02-5.56.03-8.34.03,0,6.23.01,12.45.02,18.68,2.81,0,5.62-.01,8.43-.03Z"/><path class="cls-35" d="M234.97,376.09c2.81-.07,5.61-.14,8.42-.22,2.54-.07,5.09-.14,7.63-.23-.14-4.28-.29-8.56-.43-12.84-2.52.08-5.05.16-7.57.23-2.78.08-5.57.15-8.35.22-1.18.03-2.36.06-3.54.08-2.78.06-5.57.11-8.35.16-5.67.09-11.33.17-17,.2.03,4.28.05,8.57.08,12.85,5.71-.04,11.42-.11,17.13-.21,2.81-.05,5.61-.1,8.42-.16,1.19-.03,2.38-.05,3.57-.08Z"/><path class="cls-35" d="M160.75,376.2c2.81.06,5.61.11,8.42.15,5.36.09,10.73.15,16.09.19.03-4.28.05-8.57.08-12.85-5.32-.03-10.64-.1-15.97-.19-2.78-.04-5.57-.09-8.35-.15-1.18-.02-2.36-.05-3.54-.08-2.78-.06-5.57-.13-8.35-.21-2.8-.08-5.59-.16-8.39-.25,0,.04,0,.09,0,.13-.14,4.24-.28,8.47-.42,12.71,2.82.09,5.64.17,8.45.25,2.81.08,5.61.15,8.42.21,1.19.03,2.38.06,3.57.08Z"/><path class="cls-35" d="M223.17,392.34c-.07-4.28-.14-8.56-.21-12.85-5.73.1-11.46.16-17.19.19-2.81.02-5.62.03-8.43.03-1.19,0-2.39,0-3.58,0-2.81,0-5.62-.01-8.43-.03-5.28-.03-10.56-.09-15.84-.17-.07,4.28-.13,8.56-.2,12.85,5.32.08,10.64.14,15.96.17,2.83.02,5.67.03,8.5.03,1.2,0,2.4,0,3.61,0,2.83,0,5.67-.02,8.5-.03,5.77-.04,11.55-.1,17.32-.19Z"/><path class="cls-35" d="M243.94,395.01c-2.84.08-5.67.16-8.51.22-1.2.03-2.41.06-3.61.08-2.84.06-5.68.11-8.51.16-5.78.1-11.55.17-17.33.21,0,.75,0,1.5.01,2.24,13.24-.19,26.43-1.12,39.15-2.96-.4.01-.8.02-1.2.04Z"/><path class="cls-35" d="M185.14,395.69c-5.43-.03-10.85-.1-16.28-.19-2.84-.05-5.68-.09-8.51-.15-1.2-.03-2.41-.06-3.61-.08-.66-.02-1.33-.03-1.99-.05,9.88,1.16,20.08,1.99,30.38,2.42,0-.65,0-1.3.01-1.94Z"/><path class="cls-35" d="M148.27,391.92c.12-4.33.24-8.66.37-12.99-2.81-.08-5.62-.17-8.43-.26-.14,4.33-.29,8.66-.43,12.99,2.83.09,5.66.18,8.49.26Z"/><path class="cls-34" d="M49.95,246.14h0c.06-.65.12-1.3.19-1.94-.06.65-.12,1.3-.19,1.94Z"/><path class="cls-34" d="M57.89,244.91c-.42,4.67-.84,9.34-1.27,14.02-1.13-.1-2.25-.21-3.38-.31.02.1.04.19.06.29,1.1.1,2.19.21,3.29.31.43-4.77.86-9.53,1.29-14.3Z"/><path class="cls-34" d="M61.18,245.21c-.42,4.77-.84,9.54-1.26,14.31,2.61.23,5.22.45,7.83.67,0-.09.02-.19.02-.28-2.61-.22-5.22-.44-7.83-.67.41-4.67.82-9.35,1.24-14.02Z"/><path class="cls-34" d="M126.37,249.55c-.21,4.69-.42,9.37-.64,14.06-2.61-.12-5.23-.24-7.84-.37,0,.1,0,.19-.01.29,2.61.13,5.23.26,7.85.37.22-4.78.43-9.56.65-14.35Z"/><path class="cls-34" d="M136.9,264.36s0,0,0,0c-.13,0-.25,0-.38-.01.12,0,.25.01.38.01Z"/><path class="cls-34" d="M135.75,264.32c0-.1,0-.19.01-.29-2.23-.09-4.47-.18-6.7-.27,0,.09,0,.19-.01.28,2.24.1,4.47.19,6.71.27Z"/><path class="cls-34" d="M83.86,247.04c-.04.49-.07.98-.11,1.47h0c.04-.49.07-.98.11-1.47Z"/><path class="cls-34" d="M90.65,261.87c-2.61-.18-5.23-.36-7.84-.55,0,.01,0,.03,0,.04,2.61.19,5.22.38,7.84.55,0-.01,0-.03,0-.04Z"/><path class="cls-34" d="M93.97,262.13c2.61.17,5.23.34,7.84.5,0-.01,0-.03,0-.04-2.61-.16-5.23-.32-7.84-.5,0,.01,0,.03,0,.04Z"/><path class="cls-35" d="M135.76,264.03c0,.1,0,.19-.01.29.26,0,.51.02.77.03.13,0,.25,0,.38.01,2.08.08,4.17.16,6.25.23.25,0,.5.02.76.03.04,0,.07,0,.11,0,.14-4.33.29-8.66.43-12.99-2.35-.08-4.7-.16-7.06-.25-.16,4.23-.32,8.47-.48,12.7-.38-.01-.76-.03-1.14-.05Z"/><path class="cls-34" d="M57.89,244.91c.05-.56.1-1.12.15-1.68-2.58-.23-5.16-.47-7.75-.72-.05.56-.11,1.12-.16,1.68-.06.65-.12,1.3-.19,1.94,1.17,3.53,2.27,7.8,3.29,12.48,1.13.1,2.25.21,3.38.31.42-4.67.84-9.34,1.27-14.02Z"/><path class="cls-34" d="M61.18,245.21c-.41,4.67-.82,9.35-1.24,14.02,2.61.23,5.22.45,7.83.67.43-5.24.87-10.47,1.3-15.71-2.58-.21-5.17-.43-7.75-.66-.05.56-.1,1.12-.15,1.68Z"/><path class="cls-34" d="M126.37,249.55c.03-.56.05-1.12.08-1.69-2.59-.12-5.18-.24-7.76-.37-.26,5.25-.53,10.5-.79,15.75h0c2.61.13,5.23.26,7.84.37.21-4.69.42-9.37.64-14.06Z"/><path class="cls-34" d="M129.67,249.7c-.02.4-.03.81-.05,1.21-.18,4.28-.37,8.57-.55,12.85,2.23.1,4.47.19,6.7.27.38.01.76.03,1.14.05.16-4.23.32-8.47.48-12.7.02-.45.03-.91.05-1.36.02-.56.04-1.13.06-1.69-2.59-.1-5.18-.2-7.77-.32-.02.56-.05,1.13-.07,1.69Z"/><path class="cls-34" d="M84.67,235.92c-.27,3.71-.54,7.41-.81,11.12-.04.49-.07.98-.11,1.47,2.59.19,5.18.37,7.77.55.3-4.38.6-8.75.89-13.13-2.66,0-5.25,0-7.74,0Z"/><path class="cls-34" d="M102.68,248.3l.75-12.38c-2.64,0-5.22,0-7.74,0-.29,4.45-.59,8.9-.88,13.35,2.59.17,5.18.33,7.77.49.03-.49.06-.98.09-1.47Z"/><path class="cls-35" d="M129.74,248.01c2.59.11,5.18.22,7.77.32,2.35.09,4.69.18,7.04.26.14-4.22.28-8.44.42-12.66-14.75,0-28.77,0-41.44,0-.22,3.57-.43,7.13-.65,10.7,5.27.32,10.53.6,15.8.87,2.59.13,5.18.26,7.76.37,1.1.05,2.2.1,3.29.14Z"/><path class="cls-35" d="M43.11,235.92c1.94.06,3.75,2.46,5.43,6.42.59.06,1.17.11,1.76.17,2.58.25,5.16.48,7.75.72,1.1.1,2.19.2,3.29.3,2.58.23,5.17.45,7.75.66,4.94.41,9.88.8,14.82,1.17.23-3.14.46-6.29.69-9.43-24.38,0-40.49,0-41.48,0,0,0,0,0,0,0Z"/><path class="cls-35" d="M83.75,248.5c-4.86-.36-9.73-.73-14.59-1.14-.35,4.27-.71,8.54-1.06,12.8,4.9.41,9.81.79,14.71,1.14,2.61.19,5.22.38,7.84.55,1.11.08,2.22.15,3.33.22,2.61.17,5.23.34,7.84.5,5.33.32,10.65.62,15.98.89.22-4.28.43-8.55.65-12.83-5.28-.27-10.57-.56-15.85-.88-2.59-.16-5.18-.32-7.77-.49-1.1-.07-2.2-.15-3.3-.22-2.59-.18-5.18-.36-7.77-.55h0Z"/><path class="cls-35" d="M49.75,245.53c.06.17.12.35.18.52.02-.17.03-.33.05-.5-.07,0-.15-.01-.22-.02Z"/><path class="cls-34" d="M122.05,345.02c-.21,4.69-.42,9.37-.64,14.06-2.78-.13-5.55-.26-8.33-.4.24-4.69.47-9.37.71-14.06h0c-.24,4.78-.48,9.56-.72,14.34,2.78.14,5.55.27,8.33.4.22-4.78.43-9.56.65-14.35Z"/><path class="cls-34" d="M133.27,359.86h0c-.13,0-.27-.01-.4-.02.13,0,.27.01.4.02Z"/><path class="cls-34" d="M124.95,359.24c.2-4.69.4-9.37.61-14.06h0c-.21,4.78-.41,9.56-.62,14.35,2.37.1,4.75.2,7.12.29,0-.1,0-.19.01-.29-2.37-.09-4.75-.19-7.12-.29Z"/><path class="cls-34" d="M85.13,342.93c-.03.49-.07.98-.1,1.47h0c.03-.49.07-.98.1-1.47h0Z"/><path class="cls-34" d="M75.83,356.67c2.77.2,5.55.4,8.32.59,0-.01,0-.03,0-.04-2.77-.19-5.55-.38-8.32-.59,0,.01,0,.03,0,.04Z"/><path class="cls-34" d="M96.79,345.16c.03-.49.06-.98.09-1.47h0c-.03.49-.06.98-.09,1.47h0Z"/><path class="cls-34" d="M87.69,357.5c2.77.18,5.55.36,8.33.53,0-.01,0-.03,0-.04-2.78-.17-5.55-.34-8.33-.53,0,.01,0,.03,0,.04Z"/><path class="cls-34" d="M88.53,344.64c.03-.49.06-.98.1-1.47h0c-.03.49-.06.98-.1,1.47Z"/><path class="cls-35" d="M141.89,328.23c.14-4.33.29-8.66.43-12.99-2.45-.08-4.9-.17-7.35-.26l-.49,12.99c2.47.09,4.94.18,7.41.27Z"/><path class="cls-35" d="M132.07,359.53c0,.1,0,.19-.01.29.27.01.54.02.81.03.13,0,.27,0,.4.01,2.22.08,4.43.16,6.65.24.26,0,.53.02.79.03.04,0,.08,0,.12,0,.14-4.33.29-8.66.43-12.99-2.5-.08-5-.17-7.5-.27-.16,4.23-.32,8.47-.48,12.7-.4-.02-.81-.03-1.21-.05Z"/><path class="cls-35" d="M142.96,296.14l.43-12.99c-2.4-.08-4.8-.17-7.2-.26-.16,4.33-.33,8.66-.49,12.99,2.42.09,4.84.18,7.26.26Z"/><path class="cls-34" d="M56.6,259.21c-1.1-.1-2.19-.2-3.29-.31.19.9.39,1.81.57,2.74.83.08,1.65.15,2.48.23.08-.89.16-1.77.24-2.66Z"/><path class="cls-34" d="M62.31,322.45c.05.42.11.84.17,1.26.45-5.39.9-10.78,1.34-16.17-1.07-.09-2.13-.18-3.2-.27.83,7.3,1.4,12.89,1.69,15.18Z"/><path class="cls-34" d="M57.73,284.43c.48,3.33.92,6.62,1.32,9.8,1.94.17,3.89.34,5.83.5.53-6.36,1.06-12.72,1.58-19.09-2.64-.22-5.27-.44-7.91-.67-.28,3.15-.56,6.31-.83,9.46Z"/><path class="cls-34" d="M59.69,262.17c2.61.23,5.23.45,7.84.67.07-.89.15-1.77.22-2.66-2.61-.22-5.22-.44-7.83-.67-.08.89-.16,1.77-.23,2.66Z"/><path class="cls-34" d="M125.72,263.9c-2.62-.12-5.23-.24-7.85-.37-.04.89-.09,1.78-.13,2.66,2.62.13,5.24.26,7.86.38.04-.89.08-1.78.12-2.67Z"/><path class="cls-34" d="M123.57,311.37c-2.7-.12-5.39-.25-8.09-.39-.32,6.38-.64,12.75-.96,19.13,2.73.14,5.46.27,8.18.39.29-6.38.58-12.75.87-19.13Z"/><path class="cls-34" d="M125.02,279.4c-2.64-.12-5.28-.25-7.92-.38-.32,6.38-.64,12.75-.96,19.13,2.67.13,5.35.26,8.02.39.29-6.38.58-12.75.87-19.13Z"/><path class="cls-34" d="M121.41,359.08c.21-4.69.42-9.37.64-14.06.03-.56.05-1.13.08-1.69-2.75-.12-5.5-.26-8.25-.4-.03.56-.06,1.13-.08,1.69-.24,4.69-.47,9.37-.71,14.06,2.78.14,5.55.27,8.33.4Z"/><path class="cls-34" d="M124.95,359.24c2.37.1,4.75.2,7.12.29.4.02.81.03,1.21.05.16-4.23.32-8.47.48-12.7.04-1.02.08-2.03.12-3.05-2.75-.1-5.5-.22-8.25-.34-.02.56-.05,1.13-.07,1.69-.2,4.69-.4,9.37-.61,14.06Z"/><path class="cls-34" d="M134.97,314.98c.04-1.04.08-2.09.12-3.13-2.7-.1-5.39-.21-8.09-.33-.27,6.38-.55,12.76-.82,19.13,2.73.12,5.46.23,8.19.33.04-1.01.08-2.01.11-3.02l.49-12.99Z"/><path class="cls-34" d="M136.19,282.89c.04-1.01.08-2.01.11-3.02-2.64-.1-5.28-.21-7.93-.32-.27,6.38-.55,12.76-.82,19.13,2.67.12,5.35.22,8.02.33.04-1.04.08-2.09.12-3.13.16-4.33.33-8.66.49-12.99Z"/><path class="cls-34" d="M135.75,264.32c-2.24-.09-4.47-.18-6.71-.27-.04.89-.08,1.78-.11,2.67,2.62.11,5.24.22,7.86.32.03-.89.07-1.78.1-2.67-.13,0-.25-.01-.38-.01-.26,0-.51-.02-.77-.03Z"/><path class="cls-34" d="M90.65,261.91c-2.61-.18-5.23-.36-7.84-.55-.45,6.21-.91,12.42-1.36,18.63,2.64.19,5.29.38,7.93.56.42-6.21.85-12.42,1.27-18.64Z"/><path class="cls-34" d="M88.5,293.37c-2.67-.18-5.33-.37-8-.56-.47,6.36-.93,12.73-1.4,19.09,2.7.2,5.4.39,8.09.57.43-6.36.87-12.73,1.3-19.1Z"/><path class="cls-34" d="M85.13,342.93c.4-5.88.8-11.77,1.2-17.65-2.72-.19-5.44-.38-8.16-.58-.47,6.37-.93,12.74-1.4,19.11,2.75.2,5.5.4,8.26.58.03-.49.07-.98.1-1.47Z"/><path class="cls-34" d="M88.63,343.17c-.03.49-.06.98-.1,1.47,2.75.18,5.51.35,8.26.52.03-.49.06-.98.09-1.47.36-5.89.72-11.77,1.07-17.66-2.72-.17-5.44-.34-8.16-.52-.39,5.88-.78,11.77-1.16,17.65Z"/><path class="cls-34" d="M92.74,280.77c2.64.17,5.29.34,7.94.5.38-6.22.76-12.43,1.13-18.65-2.61-.16-5.23-.32-7.84-.5-.41,6.21-.82,12.43-1.23,18.64Z"/><path class="cls-34" d="M90.64,312.69c2.7.18,5.4.35,8.1.51.39-6.37.77-12.74,1.16-19.1-2.67-.16-5.33-.33-8-.51-.42,6.37-.84,12.73-1.26,19.1Z"/><path class="cls-35" d="M87.2,312.46c-2.7-.18-5.4-.37-8.09-.57-5.07-.37-10.13-.76-15.19-1.18-.35,4.27-.71,8.54-1.06,12.8,5.1.42,10.21.82,15.32,1.19,2.72.2,5.44.39,8.16.58,1.15.08,2.31.16,3.46.23,2.72.18,5.44.35,8.16.52,5.55.34,11.09.65,16.64.93.22-4.28.43-8.55.65-12.83-5.5-.28-11.01-.59-16.51-.92-2.7-.16-5.4-.33-8.1-.51-1.14-.08-2.29-.15-3.43-.23Z"/><path class="cls-35" d="M125.63,343.49c2.75.12,5.5.23,8.25.34,2.49.09,4.99.19,7.48.28.14-4.28.29-8.56.43-12.84-2.47-.08-4.95-.18-7.42-.27-2.73-.1-5.46-.22-8.19-.33-1.16-.05-2.32-.1-3.47-.15-2.73-.12-5.46-.26-8.18-.39-5.55-.28-11.11-.58-16.66-.92-.26,4.27-.52,8.55-.78,12.82,5.6.34,11.19.64,16.79.92,2.75.14,5.5.27,8.25.4,1.17.05,2.33.1,3.5.15Z"/><path class="cls-35" d="M77.86,327.85c-4.98-.36-9.96-.76-14.93-1.17.77,4.65,1.83,9.02,3.15,13.15,3.61.29,7.23.58,10.84.84.31-4.27.63-8.54.94-12.81Z"/><path class="cls-35" d="M88.53,344.64c-1.17-.08-2.34-.16-3.5-.24h0c-2.75-.19-5.51-.38-8.26-.58-3.19-.23-6.38-.48-9.57-.73,1.78,4.83,3.96,9.29,6.52,13.38.7.05,1.41.11,2.11.16,2.77.2,5.55.4,8.32.59,1.18.08,2.35.16,3.53.24,2.77.18,5.55.36,8.33.53,5.66.34,11.31.66,16.97.95.22-4.28.43-8.55.65-12.83-5.61-.28-11.23-.6-16.84-.94h0c-2.75-.17-5.51-.34-8.26-.52Z"/><path class="cls-35" d="M128.38,279.55c2.64.11,5.28.22,7.93.32,2.4.09,4.79.18,7.19.26.14-4.18.28-8.36.42-12.54,0-.1,0-.2,0-.3-2.38-.08-4.75-.17-7.13-.26-2.62-.1-5.24-.21-7.86-.32-1.11-.05-2.22-.1-3.33-.15-2.62-.12-5.24-.25-7.86-.38-5.33-.27-10.66-.56-15.99-.88-.26,4.28-.52,8.55-.78,12.82,5.37.33,10.75.62,16.13.89,2.64.13,5.28.26,7.92.38,1.12.05,2.24.1,3.36.15Z"/><path class="cls-35" d="M56.36,261.87c-.83-.07-1.65-.15-2.48-.23.85,4.17,1.64,8.61,2.37,13.12.77.07,1.53.14,2.3.21,2.64.23,5.27.45,7.91.67,5.04.42,10.08.82,15.13,1.19.31-4.27.63-8.54.94-12.81-5-.37-10-.77-15-1.18-2.62-.22-5.23-.44-7.84-.67-1.11-.1-2.22-.2-3.33-.3Z"/><path class="cls-35" d="M89.38,280.55c-2.64-.18-5.29-.37-7.93-.56-4.96-.36-9.93-.75-14.89-1.16-.35,4.27-.71,8.54-1.06,12.8,5,.41,10.01.8,15.01,1.17,2.67.2,5.33.38,8,.56,1.13.08,2.26.15,3.39.23,2.67.18,5.33.34,8,.51,5.44.33,10.87.64,16.31.91.22-4.28.43-8.55.65-12.83-5.39-.27-10.79-.57-16.18-.9-2.65-.16-5.29-.33-7.94-.5-1.12-.07-2.24-.15-3.37-.23Z"/><path class="cls-35" d="M127,311.52c2.7.12,5.39.23,8.09.33,2.45.09,4.89.19,7.34.27.14-4.28.29-8.56.43-12.84-2.43-.08-4.85-.18-7.28-.27-2.67-.1-5.35-.21-8.02-.33-1.13-.05-2.27-.1-3.4-.15-2.67-.12-5.35-.25-8.02-.39-5.44-.27-10.88-.57-16.33-.9-.26,4.27-.52,8.55-.78,12.82,5.48.33,10.97.63,16.46.9,2.7.14,5.39.27,8.09.39,1.14.05,2.29.1,3.43.15Z"/><path class="cls-35" d="M60.62,307.26c1.07.09,2.13.18,3.2.27,5.14.43,10.29.84,15.44,1.22.31-4.27.63-8.54.94-12.81-5.11-.37-10.21-.78-15.31-1.21-1.94-.16-3.89-.33-5.83-.5.6,4.67,1.12,9.1,1.57,13.03Z"/><path class="cls-35" d="M139.78,391.65c.14-4.33.29-8.66.43-12.99-2.55-.08-5.1-.18-7.64-.27-.16,4.33-.33,8.66-.49,12.99,2.57.1,5.14.19,7.7.28Z"/><path class="cls-34" d="M121.4,359.37c-2.78-.13-5.55-.26-8.33-.4-.04.89-.09,1.78-.13,2.66,2.78.14,5.56.27,8.34.4.04-.89.08-1.78.12-2.67Z"/><path class="cls-34" d="M111.7,386.25c2.69,1.02,5.48,1.94,8.36,2.78.21-4.72.43-9.44.64-14.16-2.8-.13-5.61-.26-8.41-.4-.2,3.93-.4,7.85-.59,11.78Z"/><path class="cls-34" d="M132.87,359.85c-.27-.01-.54-.02-.81-.03-2.37-.09-4.75-.19-7.12-.29-.04.89-.08,1.78-.11,2.67,2.78.12,5.56.23,8.35.34.03-.89.07-1.78.1-2.67-.13,0-.27-.01-.4-.02Z"/><path class="cls-34" d="M123.62,390c2.73.7,5.54,1.33,8.43,1.88,0-.17.01-.34.02-.51.16-4.33.33-8.66.49-12.99.04-1.01.08-2.01.11-3.02-2.8-.11-5.61-.22-8.41-.34-.21,4.99-.43,9.98-.64,14.97Z"/><path class="cls-34" d="M75.63,359.37c2.32,3.33,4.91,6.4,7.75,9.23.26-3.78.51-7.56.77-11.34-2.77-.19-5.55-.39-8.32-.59-.07.9-.13,1.8-.2,2.7Z"/><path class="cls-34" d="M86.75,371.73c1.96,1.71,4.03,3.31,6.2,4.82.64.04,1.28.08,1.93.12.38-6.22.76-12.43,1.13-18.65-2.78-.17-5.55-.34-8.33-.53-.31,4.74-.63,9.49-.94,14.23Z"/><path class="cls-35" d="M140.74,362.81c-2.52-.08-5.05-.18-7.57-.28-2.78-.11-5.56-.22-8.35-.34-1.18-.05-2.36-.1-3.54-.15-2.78-.13-5.56-.26-8.34-.4-5.66-.29-11.32-.59-16.98-.93-.26,4.27-.52,8.55-.78,12.82,5.7.35,11.41.65,17.12.94,2.8.14,5.61.28,8.41.4,1.19.05,2.38.1,3.57.16,2.8.12,5.61.24,8.41.34,2.54.1,5.09.2,7.63.28.14-4.24.28-8.47.42-12.71,0-.04,0-.09,0-.13Z"/><path class="cls-35" d="M111.61,386.22c.14-2.86.29-5.73.43-8.59-5.72-.29-11.45-.61-17.17-.96-.64-.04-1.28-.08-1.93-.12,5.57,3.86,11.81,7.07,18.66,9.67Z"/><path class="cls-35" d="M43.11,235.92s0,0,0,0h-.05s.03,0,.05,0Z"/><path class="cls-14" d="M62.26,322.45c5.24,41.82,32.11,63.27,73.48,70.1,27.46,4.53,58.75,6.72,88.75,4.61-115.73-4.16-122.61-79.06-120.1-111.54,38.98,2.22,98.3,2.43,185.42-4.05,12.59-.94,11.85,92.11-52.7,114.43,12.04-1.37,23.74-3.5,34.76-6.52,33.18-9.12,54.96-33.2,59.19-66.99,1.29-10.27,8.17-86.41,19.25-86.53,0,0-307.3-.04-307.3-.04,11.08.13,17.96,76.26,19.25,86.53Z"/><path class="cls-34" d="M356.65,240.15c-.59-21.54-28.24-14.98-41.95-12.14-23.92,4.95-72.13,7.33-121.62,7.43-49.49-.1-97.41-4.15-121.62-7.43-25.09-3.4-41.37-9.4-41.95,12.14-.26,9.53,50.13,12.18,55.35,12.66,77.6,7.1,159.14,8.15,236.52-2.21,3.88-.52,35.46-3.34,35.27-10.45Z"/><polygon class="cls-20" points="270.74 392.29 240.63 400.03 218.4 80.34 248.59 78.11 270.74 392.29"/><path class="cls-29" d="M255.48,171.12l-6.89-93.02-14,11.03c6.79,44.92,1.97,72.65,1.97,72.65l18.93,9.34Z"/><path class="cls-27" d="M258.8,65.02s-37,5.98-45.84,9.99c-8.84,4.01-46.42,59.2-52.1,67.66l47.83,1.98s11.96-35.21,50.11-79.63Z"/><path class="cls-12" d="M241.8,59.97s29.61,22.98,35.45,30.73c5.84,7.75,12.38,74.21,13.32,84.35l-42.93-21.18s6.37-36.63-5.84-93.9Z"/><path class="cls-31" d="M277.79,99.11c.83,0,1.65.03,2.47.07-1-4.15-2.02-7.17-3.01-8.48-5.84-7.75-35.45-30.73-35.45-30.73,4.15,19.48,6.15,36.57,6.99,50.65,7.57-7.13,17.77-11.51,29-11.51Z"/><path class="cls-31" d="M226.62,109.01c7.65-12.55,18.14-27.65,32.18-43.99,0,0-37,5.98-45.84,9.99-1.76.8-4.65,3.62-8.21,7.7,10.22,5.2,18.18,14.69,21.87,26.3Z"/><path class="cls-16" d="M184.09,80.97l-13.26-3.56s18.5-26.16,21.09-35.83c2.6-9.68-.32-41.58-.32-41.58l14.2,3.81c17.88,4.8,33.29,16.15,43.19,31.79l16.23,25.65-26.02,13.63c-16.95,8.88-36.63,11.05-55.11,6.09Z"/><path class="cls-3" d="M298.17,112.68l13.26,3.56s-2.91-31.9-.32-41.58c2.6-9.68,21.09-35.83,21.09-35.83l-14.2-3.81c-17.88-4.8-36.9-2.69-53.3,5.89l-26.89,14.08,15.7,24.83c10.23,16.17,26.17,27.91,44.65,32.87Z"/><path class="cls-31" d="M237.82,54.99c1.3,1.75,37.85-19.57,45.39-5.28,4.07,7.72-9.06,13.12-5.25,21.97,1.79,4.16,10.83,8.49,7.05,14.04-5.15,7.58-23.72,1.04-47.19-30.73Z"/><path class="cls-31" d="M262.51,71.34c-.92-1.98-41,11.59-45.53-3.93-2.44-8.37,11.5-11.04,9.55-20.47-.92-4.43-8.9-10.49-4.1-15.17,6.57-6.4,23.45,3.74,40.07,39.57Z"/><path class="cls-13" d="M260.2,84.14c-.43.7-29.18-7.83-29.18-7.83,0,0-.17-23.17,11.47-42.72.18-.31,29.18,7.83,29.18,7.83,0,0-.46,24.68-11.47,42.72Z"/></g></svg>