<?xml version="1.0" encoding="UTF-8"?><svg xmlns="http://www.w3.org/2000/svg" xmlns:xlink="http://www.w3.org/1999/xlink" viewBox="0 0 2123.81 1976.47"><defs><style>.cls-1{fill:#dfffa8;opacity:.53;}.cls-2{fill:url(#linear-gradient-75);}.cls-3{fill:url(#linear-gradient-35);}.cls-3,.cls-4,.cls-5,.cls-6,.cls-7,.cls-8,.cls-9,.cls-10,.cls-11,.cls-12,.cls-13,.cls-14,.cls-15,.cls-16,.cls-17,.cls-18{mix-blend-mode:multiply;}.cls-19{fill:url(#linear-gradient-2);}.cls-20{fill:url(#radial-gradient-7);}.cls-21{fill:url(#linear-gradient-51);}.cls-22{fill:#fff;}.cls-23{fill:url(#linear-gradient-17);}.cls-24{mask:url(#mask-23);}.cls-25{mask:url(#mask-27);}.cls-26{mask:url(#mask-10);}.cls-4{fill:url(#linear-gradient-13);}.cls-27{mask:url(#mask-26);}.cls-28{fill:url(#linear-gradient-43);}.cls-29{mask:url(#mask-17);}.cls-5{fill:url(#linear-gradient-18);}.cls-30{fill:url(#linear-gradient-58);}.cls-31{fill:url(#linear-gradient-69);}.cls-32{fill:url(#linear-gradient-56);}.cls-33{fill:url(#linear-gradient-40);}.cls-34{fill:url(#linear-gradient-52);}.cls-35{fill:url(#radial-gradient-16);}.cls-36{fill:url(#linear-gradient-14);}.cls-37{fill:url(#radial-gradient-21);}.cls-6{fill:url(#radial-gradient-2);}.cls-38{fill:url(#radial-gradient-8);}.cls-39{fill:url(#linear-gradient-36);}.cls-40{opacity:.61;}.cls-40,.cls-41{fill:#a23037;}.cls-42{mask:url(#mask-2);}.cls-43{fill:url(#linear-gradient-78);}.cls-44{fill:url(#linear-gradient-6);}.cls-45{fill:url(#radial-gradient-5);}.cls-46{fill:#3d9c6c;opacity:.21;}.cls-47{clip-path:url(#clippath-2);}.cls-48{fill:url(#linear-gradient-53);}.cls-49{fill:url(#radial-gradient-4);}.cls-50{isolation:isolate;}.cls-51{fill:url(#linear-gradient-60);}.cls-52{mask:url(#mask-13);}.cls-53{clip-path:url(#clippath-6);}.cls-54{mask:url(#mask-3);}.cls-7{fill:url(#linear-gradient-28);}.cls-55{fill:url(#linear-gradient-48);}.cls-56{fill:url(#linear-gradient-32);}.cls-8{fill:url(#radial-gradient-20);}.cls-57{fill:url(#linear-gradient-11);}.cls-58{fill:url(#radial-gradient-25);}.cls-59{fill:url(#linear-gradient-50);}.cls-60{fill:url(#radial-gradient-26);}.cls-61{fill:url(#linear-gradient-63);}.cls-62{fill:url(#linear-gradient-67);}.cls-9{fill:url(#radial-gradient-9);}.cls-10{fill:url(#radial-gradient);}.cls-63{fill:url(#radial-gradient-22);}.cls-64{fill:url(#linear-gradient-39);}.cls-65{clip-path:url(#clippath-7);}.cls-66{fill:url(#radial-gradient-6);}.cls-67{mask:url(#mask-9);}.cls-68{fill:url(#radial-gradient-19);}.cls-69{fill:url(#radial-gradient-12);}.cls-70{clip-path:url(#clippath-1);}.cls-71{clip-path:url(#clippath-4);}.cls-72{fill:url(#linear-gradient-10);}.cls-73{mask:url(#mask-12);}.cls-74{fill:#bbe4a7;}.cls-75{fill:url(#linear-gradient-59);}.cls-76{mask:url(#mask-5);}.cls-11{fill:url(#linear-gradient-33);}.cls-77{fill:url(#linear-gradient-49);}.cls-78{fill:url(#linear-gradient-37);}.cls-79{fill:url(#radial-gradient-27);}.cls-80{fill:url(#radial-gradient-13);}.cls-81{fill:url(#linear-gradient-16);}.cls-12{fill:url(#linear-gradient-25);}.cls-82{fill:url(#linear-gradient-31);}.cls-83{mask:url(#mask-20);}.cls-13{fill:url(#linear-gradient-30);}.cls-84{fill:url(#linear-gradient-61);}.cls-85{fill:url(#linear-gradient-68);}.cls-86{fill:url(#linear-gradient-62);}.cls-87{fill:url(#linear-gradient-41);}.cls-88{fill:url(#linear-gradient-76);}.cls-89{fill:url(#linear-gradient-21);}.cls-90{mask:url(#mask-25);}.cls-91{fill:url(#linear-gradient-72);}.cls-92{mask:url(#mask-8);}.cls-14{fill:url(#linear-gradient-15);}.cls-93{mask:url(#mask-4);}.cls-94{fill:url(#linear-gradient-5);}.cls-95{fill:url(#linear-gradient-64);}.cls-96{mask:url(#mask-24);}.cls-97{fill:url(#linear-gradient-54);}.cls-98{fill:url(#radial-gradient-15);}.cls-99{fill:url(#linear-gradient-45);}.cls-100{fill:url(#linear-gradient-55);}.cls-101{clip-path:url(#clippath);}.cls-102{mask:url(#mask-19);}.cls-103{mask:url(#mask-15);}.cls-104{fill:url(#linear-gradient-34);}.cls-105{fill:url(#linear-gradient-65);}.cls-106{fill:url(#linear-gradient-70);}.cls-107{fill:none;}.cls-108{fill:url(#linear-gradient-79);}.cls-109{fill:url(#radial-gradient-3);}.cls-110{mask:url(#mask-6);}.cls-111{clip-path:url(#clippath-3);}.cls-112{fill:url(#linear-gradient-7);}.cls-113{fill:url(#linear-gradient-66);}.cls-114{mask:url(#mask-16);}.cls-115{mask:url(#mask-18);}.cls-116{fill:url(#linear-gradient-24);}.cls-117{fill:url(#linear-gradient-73);}.cls-118{fill:url(#linear-gradient-9);}.cls-119{fill:url(#radial-gradient-17);}.cls-120{fill:url(#linear-gradient-22);}.cls-121{fill:url(#linear-gradient-74);}.cls-122{fill:url(#linear-gradient-42);}.cls-123{mask:url(#mask-1);}.cls-124{mask:url(#mask);}.cls-125{mask:url(#mask-22);}.cls-126{fill:url(#radial-gradient-14);}.cls-127{fill:url(#linear-gradient-3);}.cls-128{clip-path:url(#clippath-5);}.cls-129{fill:url(#linear-gradient);}.cls-130{mask:url(#mask-7);}.cls-15{fill:url(#linear-gradient-23);}.cls-131{fill:url(#linear-gradient-27);}.cls-132{fill:url(#linear-gradient-38);}.cls-133{fill:url(#linear-gradient-29);}.cls-134{fill:url(#radial-gradient-23);}.cls-16{fill:url(#radial-gradient-10);}.cls-17{fill:url(#linear-gradient-20);}.cls-135{fill:url(#linear-gradient-19);}.cls-136{mask:url(#mask-14);}.cls-137{fill:url(#linear-gradient-71);}.cls-138{fill:url(#linear-gradient-4);}.cls-139{fill:url(#linear-gradient-77);}.cls-140{fill:url(#radial-gradient-11);}.cls-141{mask:url(#mask-21);}.cls-142{fill:url(#radial-gradient-18);}.cls-143{mask:url(#mask-11);}.cls-144{fill:url(#linear-gradient-8);}.cls-145{fill:url(#linear-gradient-44);}.cls-146{fill:url(#linear-gradient-57);}.cls-147{fill:url(#linear-gradient-47);}.cls-148{fill:url(#linear-gradient-46);}.cls-149{fill:url(#linear-gradient-12);}.cls-18{fill:url(#radial-gradient-24);}.cls-150{fill:url(#linear-gradient-26);}</style><filter id="luminosity-noclip" x="0" y="-9082.92" width="1989.89" height="32766" color-interpolation-filters="sRGB" filterUnits="userSpaceOnUse"><feFlood flood-color="#fff" result="bg"/><feBlend in="SourceGraphic" in2="bg"/></filter><mask id="mask-1" x="0" y="-9082.92" width="1989.89" height="32766" maskUnits="userSpaceOnUse"/><radialGradient id="radial-gradient" cx="-131.14" cy="-741.33" fx="-131.14" fy="-741.33" r="118.2" gradientTransform="translate(-5245.05 620.88) rotate(-90) scale(5.44 -8.42)" gradientUnits="userSpaceOnUse"><stop offset=".11" stop-color="#fff"/><stop offset=".25" stop-color="#cfcfcf"/><stop offset=".5" stop-color="#777"/><stop offset=".71" stop-color="#373737"/><stop offset=".86" stop-color="#0f0f0f"/><stop offset=".94" stop-color="#000"/></radialGradient><mask id="mask" x="0" y="691.22" width="1989.89" height="1285.25" maskUnits="userSpaceOnUse"><g class="cls-123"><ellipse class="cls-10" cx="994.94" cy="1333.84" rx="994.94" ry="642.62"/></g></mask><radialGradient id="radial-gradient-2" cx="-131.14" cy="-741.33" fx="-131.14" fy="-741.33" r="118.2" gradientTransform="translate(-5245.05 620.88) rotate(-90) scale(5.44 -8.42)" gradientUnits="userSpaceOnUse"><stop offset=".11" stop-color="#729eb1"/><stop offset=".14" stop-color="#749fb1"/><stop offset=".67" stop-color="#9bb6be"/><stop offset=".94" stop-color="#abc0c3"/></radialGradient><clipPath id="clippath"><path class="cls-107" d="m583.96,1517.34c5.13-18.7-6.48-37.49-35.23-52.59-61.59-32.34-176.09-41.08-268.89-12.08-52.63,16.45-78.04,38.65-78.98,60.7-.12.32-1.84,4.5-1.71,9.39.13,4.83,1.45,42.4,1.73,48.77.69,15.95,14.18,31.69,39.48,44.97,61.59,32.34,167.77,43.46,260.57,14.46,58.29-18.22,86.48-44.44,84.14-69.43-.56-5.97-.96-31.57-1.1-44.19Z"/></clipPath><radialGradient id="radial-gradient-3" cx="397.05" cy="1080.9" fx="397.05" fy="1080.9" r="330.21" gradientTransform="translate(-80.27 -12.74) scale(1.19)" gradientUnits="userSpaceOnUse"><stop offset=".13" stop-color="#f6d246"/><stop offset=".8" stop-color="#f6d246"/><stop offset=".81" stop-color="#f2be39"/><stop offset=".83" stop-color="#efac2d"/><stop offset=".83" stop-color="#eeab2c"/><stop offset=".84" stop-color="#e69a28"/><stop offset=".86" stop-color="#e18d25"/><stop offset=".88" stop-color="#dd8623"/><stop offset=".93" stop-color="#dd8523"/><stop offset="1" stop-color="#efac2d"/></radialGradient><clipPath id="clippath-1"><path class="cls-107" d="m583.96,1439.07c5.13-18.7-6.48-37.49-35.23-52.59-61.59-32.34-176.09-41.08-268.89-12.08-52.63,16.45-78.04,38.65-78.98,60.7-.12.33-1.84,4.5-1.71,9.39.13,4.83,1.45,42.4,1.73,48.77.69,15.95,14.18,31.69,39.48,44.97,61.59,32.34,167.77,43.46,260.57,14.46,58.29-18.22,86.48-44.44,84.14-69.43-.56-5.97-.96-31.57-1.1-44.19Z"/></clipPath><radialGradient id="radial-gradient-4" cy="1015.11" fy="1015.11" xlink:href="#radial-gradient-3"/><radialGradient id="radial-gradient-5" cx="353.34" cy="1173.29" fx="353.34" fy="1173.29" r="419.74" gradientUnits="userSpaceOnUse"><stop offset=".55" stop-color="#efac2d"/><stop offset=".72" stop-color="#f8d54e"/><stop offset=".97" stop-color="#fffda6"/></radialGradient><linearGradient id="linear-gradient" x1="-2151.42" y1="3384.16" x2="-2021.57" y2="3484.97" gradientTransform="translate(4098.1 2448.99) rotate(74.86) scale(1.01 .96) skewX(2.44)" gradientUnits="userSpaceOnUse"><stop offset=".13" stop-color="#dd8523"/><stop offset=".26" stop-color="#e69a28"/><stop offset=".39" stop-color="#eca72b"/><stop offset=".51" stop-color="#efac2d"/><stop offset="1" stop-color="#f8d54e"/></linearGradient><radialGradient id="radial-gradient-6" cx="-4965.52" cy="300.29" fx="-4965.52" fy="300.29" r="212.41" gradientTransform="translate(3461.42 2803.78) rotate(27.09) scale(.64 .62) skewX(-40.58)" gradientUnits="userSpaceOnUse"><stop offset="0" stop-color="#f8d54e"/><stop offset=".3" stop-color="#f6cf49"/><stop offset=".66" stop-color="#f3c03d"/><stop offset="1" stop-color="#efac2d"/></radialGradient><linearGradient id="linear-gradient-2" x1="362.84" y1="1409.98" x2="368.82" y2="1470.64" gradientUnits="userSpaceOnUse"><stop offset="0" stop-color="#f8d54e"/><stop offset=".15" stop-color="#e7b134"/><stop offset=".31" stop-color="#d7911d"/><stop offset=".47" stop-color="#cc790d"/><stop offset=".62" stop-color="#c66b03"/><stop offset=".75" stop-color="#c46700"/><stop offset="1" stop-color="#dd8523"/></linearGradient><linearGradient id="linear-gradient-3" x1="339.38" y1="1412.29" x2="345.36" y2="1472.95" xlink:href="#linear-gradient-2"/><linearGradient id="linear-gradient-4" x1="366.1" y1="1400.56" x2="372.08" y2="1461.24" xlink:href="#linear-gradient-2"/><linearGradient id="linear-gradient-5" x1="474.08" y1="1399.01" x2="480.06" y2="1459.67" xlink:href="#linear-gradient-2"/><linearGradient id="linear-gradient-6" x1="265.69" y1="1487.9" x2="526.08" y2="1353.98" gradientUnits="userSpaceOnUse"><stop offset="0" stop-color="#fffda6"/><stop offset=".17" stop-color="#f8d54e"/><stop offset=".69" stop-color="#efac2d"/><stop offset="1" stop-color="#dd8523"/></linearGradient><linearGradient id="linear-gradient-7" x1="-729.94" y1="645.79" x2="-478.1" y2="857.44" gradientTransform="translate(2324.17 -152.14) rotate(29.74)" gradientUnits="userSpaceOnUse"><stop offset="0" stop-color="#fffda6"/><stop offset=".35" stop-color="#f8d54e"/><stop offset=".45" stop-color="#f5cf4a"/><stop offset=".56" stop-color="#eec13f"/><stop offset=".68" stop-color="#e3a82e"/><stop offset=".81" stop-color="#d38616"/><stop offset=".91" stop-color="#c46700"/><stop offset=".95" stop-color="#c56902"/><stop offset=".97" stop-color="#cb700a"/><stop offset=".99" stop-color="#d57c18"/><stop offset="1" stop-color="#dd8523"/></linearGradient><radialGradient id="radial-gradient-7" cx="-632" cy="795.35" fx="-632" fy="795.35" r="194.88" gradientTransform="translate(2324.17 -152.14) rotate(29.74)" gradientUnits="userSpaceOnUse"><stop offset=".04" stop-color="#efac2d"/><stop offset=".4" stop-color="#f5c642"/><stop offset=".79" stop-color="#f8d54e"/><stop offset=".99" stop-color="#fffda6"/></radialGradient><linearGradient id="linear-gradient-8" x1="-661.3" y1="658.77" x2="-434.06" y2="876.55" gradientTransform="translate(2324.17 -152.14) rotate(29.74)" xlink:href="#linear-gradient"/><radialGradient id="radial-gradient-8" cx="-709.92" cy="716.29" fx="-709.92" fy="716.29" r="160.56" gradientTransform="translate(2336.88 -121.5) rotate(29.73) scale(.97 .99)" gradientUnits="userSpaceOnUse"><stop offset="0" stop-color="#dd8523"/><stop offset=".35" stop-color="#e69a28"/><stop offset=".69" stop-color="#eca72b"/><stop offset="1" stop-color="#efac2d"/></radialGradient><linearGradient id="linear-gradient-9" x1="-598.96" y1="668.71" x2="-491.53" y2="864.7" gradientTransform="translate(2324.17 -152.14) rotate(29.74)" xlink:href="#linear-gradient-2"/><linearGradient id="linear-gradient-10" x1="-615.89" y1="677.99" x2="-508.46" y2="873.97" gradientTransform="translate(2324.17 -152.14) rotate(29.74)" xlink:href="#linear-gradient-2"/><linearGradient id="linear-gradient-11" x1="-612.39" y1="673.57" x2="-514.77" y2="841.75" gradientTransform="translate(2324.17 -152.14) rotate(29.74)" gradientUnits="userSpaceOnUse"><stop offset="0" stop-color="#fffda6"/><stop offset=".37" stop-color="#f8d54e"/><stop offset=".69" stop-color="#efac2d"/><stop offset="1" stop-color="#dd8523"/></linearGradient><clipPath id="clippath-2"><path class="cls-107" d="m1798.24,1405.66c-369.99-.83-750.54,89.54-1108.73,270.3-23.61,11.28-39.07,1.21-36.32-24.12,19.18-182.19,38.62-363.97,58.3-545.34,3.26-29.14,29.86-66.22,58.11-80,369.83-180.94,760.4-267.89,1137.03-259.85,26.3.57,43.82,20.59,40.05,45-28.59,180.42-57.02,361.58-85.3,543.47-4.24,27.99-33.82,51.34-63.14,50.55Z"/></clipPath><linearGradient id="linear-gradient-12" x1="477.24" y1="814.12" x2="434.85" y2="1507.41" gradientTransform="translate(1048.91 178.04) rotate(-11.15) scale(1.08 .93) skewX(-20.04)" gradientUnits="userSpaceOnUse"><stop offset="0" stop-color="#bbe4a7"/><stop offset=".04" stop-color="#addea0"/><stop offset=".15" stop-color="#86ce8c"/><stop offset=".21" stop-color="#78c885"/><stop offset=".53" stop-color="#78c885"/><stop offset=".82" stop-color="#78c885"/><stop offset="1" stop-color="#3d9c6c"/></linearGradient><filter id="luminosity-noclip-2" x="653.06" y="-9082.92" width="1298.11" height="32766" color-interpolation-filters="sRGB" filterUnits="userSpaceOnUse"><feFlood flood-color="#fff" result="bg"/><feBlend in="SourceGraphic" in2="bg"/></filter><mask id="mask-3" x="653.06" y="-9082.92" width="1298.11" height="32766" maskUnits="userSpaceOnUse"/><linearGradient id="linear-gradient-13" x1="457.46" y1="752.58" x2="451.76" y2="1418.25" gradientTransform="translate(1048.91 178.04) rotate(-11.15) scale(1.08 .93) skewX(-20.04)" gradientUnits="userSpaceOnUse"><stop offset="0" stop-color="#fff"/><stop offset=".14" stop-color="#fff"/><stop offset=".19" stop-color="#e1e1e1"/><stop offset=".3" stop-color="#979797"/><stop offset=".46" stop-color="#212121"/><stop offset=".51" stop-color="#000"/></linearGradient><mask id="mask-2" x="653.06" y="766.13" width="1298.11" height="915.73" maskUnits="userSpaceOnUse"><g class="cls-54"><path class="cls-4" d="m1782.69,1467.67c-364.63-17.88-739.44,52.46-1092.86,210.51-24.04,10.09-39.26-1.06-36.44-27.15,18.97-180.55,38.18-360.71,57.63-540.45,3.5-31.35,32.21-71.29,62.74-86.12,368.83-179.67,758.14-265.94,1133.58-257.8,28.52.63,47.46,22.37,43.25,48.73-32.49,198.36-64.79,397.68-96.89,597.93-4.88,31.16-38.8,56.72-71,54.35Z"/></g></mask><linearGradient id="linear-gradient-14" x1="457.46" y1="752.58" x2="451.76" y2="1418.25" gradientTransform="translate(1048.91 178.04) rotate(-11.15) scale(1.08 .93) skewX(-20.04)" gradientUnits="userSpaceOnUse"><stop offset="0" stop-color="#bbe4a7"/><stop offset=".03" stop-color="#9fd899"/><stop offset=".07" stop-color="#89cf8e"/><stop offset=".11" stop-color="#7cc987"/><stop offset=".14" stop-color="#78c885"/><stop offset=".51" stop-color="#78c885"/></linearGradient><filter id="luminosity-noclip-3" x="653.13" y="-9082.92" width="1300.58" height="32766" color-interpolation-filters="sRGB" filterUnits="userSpaceOnUse"><feFlood flood-color="#fff" result="bg"/><feBlend in="SourceGraphic" in2="bg"/></filter><mask id="mask-5" x="653.13" y="-9082.92" width="1300.58" height="32766" maskUnits="userSpaceOnUse"/><linearGradient id="linear-gradient-15" x1="-157.89" y1="1128.43" x2="1075.76" y2="1132.14" gradientTransform="translate(1048.91 178.04) rotate(-11.15) scale(1.08 .93) skewX(-20.04)" gradientUnits="userSpaceOnUse"><stop offset=".02" stop-color="#fff"/><stop offset=".02" stop-color="#d8d8d8"/><stop offset=".03" stop-color="#9f9f9f"/><stop offset=".05" stop-color="#6e6e6e"/><stop offset=".05" stop-color="#474747"/><stop offset=".06" stop-color="#272727"/><stop offset=".07" stop-color="#111"/><stop offset=".08" stop-color="#040404"/><stop offset=".09" stop-color="#000"/><stop offset=".87" stop-color="#000"/><stop offset=".88" stop-color="#050505"/><stop offset=".89" stop-color="#141414"/><stop offset=".91" stop-color="#2c2c2c"/><stop offset=".92" stop-color="#4f4f4f"/><stop offset=".94" stop-color="#7b7b7b"/><stop offset=".95" stop-color="#b1b1b1"/><stop offset=".97" stop-color="#f0f0f0"/><stop offset=".97" stop-color="#fff"/></linearGradient><mask id="mask-4" x="653.13" y="766.13" width="1300.58" height="915.66" maskUnits="userSpaceOnUse"><g class="cls-76"><path class="cls-14" d="m1785.18,1467.56c-365.36-18.25-741.01,52.1-1095.18,210.52-24.09,10.12-39.35-1.01-36.53-27.1,18.94-180.54,38.13-360.68,57.56-540.41,3.5-31.35,32.25-71.32,62.85-86.17,369.6-180.02,759.75-266.25,1135.9-257.7,28.57.66,47.56,22.42,43.35,48.78-32.46,198.32-64.75,397.6-96.83,597.8-4.87,31.16-38.85,56.67-71.12,54.27Z"/></g></mask><linearGradient id="linear-gradient-16" x1="-157.89" y1="1128.43" x2="1075.76" y2="1132.14" gradientTransform="translate(1048.91 178.04) rotate(-11.15) scale(1.08 .93) skewX(-20.04)" gradientUnits="userSpaceOnUse"><stop offset=".02" stop-color="#bbe4a7"/><stop offset=".04" stop-color="#9fd899"/><stop offset=".06" stop-color="#89cf8e"/><stop offset=".07" stop-color="#7cc987"/><stop offset=".09" stop-color="#78c885"/><stop offset=".87" stop-color="#78c885"/><stop offset=".89" stop-color="#72c482"/><stop offset=".92" stop-color="#63b97c"/><stop offset=".96" stop-color="#4ba672"/><stop offset=".97" stop-color="#3d9c6c"/></linearGradient><clipPath id="clippath-3"><path class="cls-107" d="m1751.11,1253.06l-1130.72,366.06c-24.94,7.41-43.83-5.15-44.21-29.4l-10.46-524.06c-.44-28.04,23.8-60.76,52.82-71.28l1139.85-413.15c26.53-9.62,47.38,2.98,47.55,28.72l1.33,571.15c.19,29.28-26.16,63.04-56.16,71.95Z"/></clipPath><linearGradient id="linear-gradient-17" x1="980.94" y1="1011.27" x2="941.91" y2="1649.71" gradientTransform="translate(286.59 152.56) rotate(-19.92) scale(1.08 .93) skewX(-20.04)" xlink:href="#linear-gradient-12"/><filter id="luminosity-noclip-4" x="565.78" y="-9082.92" width="1244.69" height="32766" color-interpolation-filters="sRGB" filterUnits="userSpaceOnUse"><feFlood flood-color="#fff" result="bg"/><feBlend in="SourceGraphic" in2="bg"/></filter><mask id="mask-7" x="565.78" y="-9082.92" width="1244.69" height="32766" maskUnits="userSpaceOnUse"/><linearGradient id="linear-gradient-18" x1="963.16" y1="979.1" x2="957.68" y2="1618.6" gradientTransform="translate(286.59 152.56) rotate(-19.92) scale(1.08 .93) skewX(-20.04)" xlink:href="#linear-gradient-13"/><mask id="mask-6" x="565.78" y="577.48" width="1244.69" height="1045.34" maskUnits="userSpaceOnUse"><g class="cls-130"><path class="cls-5" d="m1745.14,1319.55l-1124.08,301.79c-25.58,6.19-44.35-7.39-44.75-32.37l-10.52-519.37c-.48-30.17,25.7-65.4,57.03-76.76l1136.29-411.86c28.77-10.43,51.33,3.24,51.37,31.1l-1.68,629.44c.04,32.64-30.42,69.99-63.65,78.02Z"/></g></mask><linearGradient id="linear-gradient-19" x1="963.16" y1="979.1" x2="957.68" y2="1618.6" gradientTransform="translate(286.59 152.56) rotate(-19.92) scale(1.08 .93) skewX(-20.04)" xlink:href="#linear-gradient-14"/><filter id="luminosity-noclip-5" x="565.78" y="-9082.92" width="1247.26" height="32766" color-interpolation-filters="sRGB" filterUnits="userSpaceOnUse"><feFlood flood-color="#fff" result="bg"/><feBlend in="SourceGraphic" in2="bg"/></filter><mask id="mask-9" x="565.78" y="-9082.92" width="1247.26" height="32766" maskUnits="userSpaceOnUse"/><linearGradient id="linear-gradient-20" x1="312.05" y1="1342.74" x2="1618.59" y2="1346.66" gradientTransform="translate(286.59 152.56) rotate(-19.92) scale(1.08 .93) skewX(-20.04)" xlink:href="#linear-gradient-15"/><mask id="mask-8" x="565.78" y="576.58" width="1247.26" height="1046.19" maskUnits="userSpaceOnUse"><g class="cls-67"><path class="cls-17" d="m1747.66,1318.63l-1126.43,302.64c-25.63,6.21-44.45-7.36-44.85-32.33l-10.59-519.35c-.48-30.17,25.75-65.42,57.15-76.8l1138.63-412.71c28.83-10.45,51.44,3.2,51.48,31.06l-1.61,629.41c.04,32.64-30.48,70.01-63.77,78.07Z"/></g></mask><linearGradient id="linear-gradient-21" x1="312.05" y1="1342.74" x2="1618.59" y2="1346.66" gradientTransform="translate(286.59 152.56) rotate(-19.92) scale(1.08 .93) skewX(-20.04)" xlink:href="#linear-gradient-16"/><clipPath id="clippath-4"><path class="cls-107" d="m1697.44,1215.17l-1130.72,366.06c-24.94,7.41-43.83-5.15-44.21-29.4l-10.46-524.06c-.44-28.04,23.8-60.76,52.82-71.28l1139.85-413.15c26.53-9.62,47.38,2.98,47.55,28.72l1.33,571.15c.19,29.28-26.16,63.04-56.16,71.95Z"/></clipPath><linearGradient id="linear-gradient-22" x1="924.9" y1="953.19" x2="885.87" y2="1591.63" gradientTransform="translate(286.59 152.56) rotate(-19.92) scale(1.08 .93) skewX(-20.04)" xlink:href="#linear-gradient-12"/><filter id="luminosity-noclip-6" x="512.11" y="-9082.92" width="1244.69" height="32766" color-interpolation-filters="sRGB" filterUnits="userSpaceOnUse"><feFlood flood-color="#fff" result="bg"/><feBlend in="SourceGraphic" in2="bg"/></filter><mask id="mask-11" x="512.11" y="-9082.92" width="1244.69" height="32766" maskUnits="userSpaceOnUse"/><linearGradient id="linear-gradient-23" x1="907.13" y1="921.03" x2="901.65" y2="1560.52" gradientTransform="translate(286.59 152.56) rotate(-19.92) scale(1.08 .93) skewX(-20.04)" xlink:href="#linear-gradient-13"/><mask id="mask-10" x="512.11" y="539.6" width="1244.69" height="1045.34" maskUnits="userSpaceOnUse"><g class="cls-143"><path class="cls-15" d="m1691.47,1281.66l-1124.08,301.79c-25.58,6.19-44.35-7.39-44.75-32.37l-10.52-519.37c-.48-30.17,25.7-65.4,57.03-76.76l1136.29-411.86c28.77-10.43,51.33,3.24,51.37,31.1l-1.68,629.44c.04,32.64-30.42,69.99-63.65,78.02Z"/></g></mask><linearGradient id="linear-gradient-24" x1="907.13" y1="921.03" x2="901.65" y2="1560.52" gradientTransform="translate(286.59 152.56) rotate(-19.92) scale(1.08 .93) skewX(-20.04)" xlink:href="#linear-gradient-14"/><filter id="luminosity-noclip-7" x="512.11" y="-9082.92" width="1247.26" height="32766" color-interpolation-filters="sRGB" filterUnits="userSpaceOnUse"><feFlood flood-color="#fff" result="bg"/><feBlend in="SourceGraphic" in2="bg"/></filter><mask id="mask-13" x="512.11" y="-9082.92" width="1247.26" height="32766" maskUnits="userSpaceOnUse"/><linearGradient id="linear-gradient-25" x1="256.02" y1="1284.66" x2="1562.56" y2="1288.58" gradientTransform="translate(286.59 152.56) rotate(-19.92) scale(1.08 .93) skewX(-20.04)" xlink:href="#linear-gradient-15"/><mask id="mask-12" x="512.11" y="538.7" width="1247.26" height="1046.19" maskUnits="userSpaceOnUse"><g class="cls-52"><path class="cls-12" d="m1693.99,1280.75l-1126.43,302.64c-25.63,6.21-44.45-7.36-44.85-32.33l-10.59-519.35c-.48-30.17,25.75-65.42,57.15-76.8l1138.63-412.71c28.83-10.45,51.44,3.2,51.48,31.06l-1.61,629.41c.04,32.64-30.48,70.01-63.77,78.07Z"/></g></mask><linearGradient id="linear-gradient-26" x1="256.02" y1="1284.66" x2="1562.56" y2="1288.58" gradientTransform="translate(286.59 152.56) rotate(-19.92) scale(1.08 .93) skewX(-20.04)" xlink:href="#linear-gradient-16"/><clipPath id="clippath-5"><path class="cls-107" d="m1643.78,1177.29l-1130.72,366.06c-24.94,7.41-43.83-5.15-44.21-29.4l-10.46-524.06c-.44-28.04,23.8-60.76,52.82-71.28l1139.85-413.15c26.53-9.62,47.38,2.98,47.55,28.72l1.33,571.15c.19,29.28-26.16,63.04-56.16,71.95Z"/></clipPath><linearGradient id="linear-gradient-27" x1="868.87" y1="895.11" x2="829.84" y2="1533.55" gradientTransform="translate(286.59 152.56) rotate(-19.92) scale(1.08 .93) skewX(-20.04)" xlink:href="#linear-gradient-12"/><filter id="luminosity-noclip-8" x="458.45" y="-9082.92" width="1244.69" height="32766" color-interpolation-filters="sRGB" filterUnits="userSpaceOnUse"><feFlood flood-color="#fff" result="bg"/><feBlend in="SourceGraphic" in2="bg"/></filter><mask id="mask-15" x="458.45" y="-9082.92" width="1244.69" height="32766" maskUnits="userSpaceOnUse"/><linearGradient id="linear-gradient-28" x1="851.1" y1="862.95" x2="845.61" y2="1502.44" gradientTransform="translate(286.59 152.56) rotate(-19.92) scale(1.08 .93) skewX(-20.04)" xlink:href="#linear-gradient-13"/><mask id="mask-14" x="458.45" y="501.72" width="1244.69" height="1045.34" maskUnits="userSpaceOnUse"><g class="cls-103"><path class="cls-7" d="m1637.81,1243.78l-1124.08,301.79c-25.58,6.19-44.35-7.39-44.75-32.37l-10.52-519.37c-.48-30.17,25.7-65.4,57.03-76.76l1136.29-411.86c28.77-10.43,51.33,3.24,51.37,31.1l-1.68,629.44c.04,32.64-30.42,69.99-63.65,78.02Z"/></g></mask><linearGradient id="linear-gradient-29" x1="851.1" y1="862.95" x2="845.61" y2="1502.44" gradientTransform="translate(286.59 152.56) rotate(-19.92) scale(1.08 .93) skewX(-20.04)" xlink:href="#linear-gradient-14"/><filter id="luminosity-noclip-9" x="458.45" y="-9082.92" width="1247.26" height="32766" color-interpolation-filters="sRGB" filterUnits="userSpaceOnUse"><feFlood flood-color="#fff" result="bg"/><feBlend in="SourceGraphic" in2="bg"/></filter><mask id="mask-17" x="458.45" y="-9082.92" width="1247.26" height="32766" maskUnits="userSpaceOnUse"/><linearGradient id="linear-gradient-30" x1="199.98" y1="1226.58" x2="1506.53" y2="1230.5" gradientTransform="translate(286.59 152.56) rotate(-19.92) scale(1.08 .93) skewX(-20.04)" xlink:href="#linear-gradient-15"/><mask id="mask-16" x="458.45" y="500.82" width="1247.26" height="1046.19" maskUnits="userSpaceOnUse"><g class="cls-29"><path class="cls-13" d="m1640.32,1242.87l-1126.43,302.64c-25.63,6.21-44.45-7.36-44.85-32.33l-10.59-519.35c-.48-30.17,25.75-65.42,57.15-76.8l1138.63-412.71c28.83-10.45,51.44,3.2,51.48,31.06l-1.61,629.42c.04,32.64-30.48,70.01-63.77,78.07Z"/></g></mask><linearGradient id="linear-gradient-31" x1="199.98" y1="1226.58" x2="1506.53" y2="1230.5" gradientTransform="translate(286.59 152.56) rotate(-19.92) scale(1.08 .93) skewX(-20.04)" xlink:href="#linear-gradient-16"/><radialGradient id="radial-gradient-9" cx="687.85" cy="988.72" fx="687.85" fy="988.72" r="1266.06" gradientUnits="userSpaceOnUse"><stop offset="0" stop-color="#231f20"/><stop offset=".08" stop-color="#2c2829"/><stop offset=".2" stop-color="#464243"/><stop offset=".36" stop-color="#6f6d6d"/><stop offset=".55" stop-color="#a9a7a8"/><stop offset=".76" stop-color="#f2f1f1"/><stop offset=".8" stop-color="#fff"/></radialGradient><mask id="mask-18" x="408.44" y="454.38" width="1570.1" height="1227.97" maskUnits="userSpaceOnUse"><path class="cls-9" d="m1906.62,766.64c-33.34-.71-66.79-.66-100.32.11l-.37-156.79c-.17-25.75-21.02-38.34-47.55-28.72l-6.09,2.21-.03-11.37c-.17-25.75-21.02-38.34-47.55-28.72l-6.09,2.21-.03-11.37c-.17-25.75-21.02-38.34-47.55-28.72L511.21,918.63c-29.01,10.52-53.26,43.23-52.82,71.28l10.46,524.06c.38,24.25,19.27,36.81,44.21,29.4l9.23-2.99.23,11.47c.38,24.25,19.27,36.81,44.21,29.4l9.23-2.99.23,11.47c.38,24.25,19.27,36.81,44.21,29.4l37.54-12.15c-1.58,14.96-3.17,29.9-4.74,44.87-2.75,25.33,12.71,35.4,36.32,24.12,358.19-180.76,738.74-271.12,1108.73-270.3,29.33.79,58.91-22.56,63.14-50.55,28.27-181.89,56.71-363.05,85.3-543.47,3.76-24.41-13.75-44.42-40.05-45Z"/></mask><radialGradient id="radial-gradient-10" cx="2084.93" cy="1216.79" fx="2084.93" fy="1216.79" r="1481.91" gradientTransform="translate(4.47)" gradientUnits="userSpaceOnUse"><stop offset="0" stop-color="#729eb1"/><stop offset=".17" stop-color="#7ba5b6"/><stop offset=".45" stop-color="#95b9c3"/><stop offset=".8" stop-color="#bed8d9"/></radialGradient><clipPath id="clippath-6"><path class="cls-107" d="m1570.76,1078.89c-367.74,180.42-749.73,262.35-1103.01,416.33-23.44,9.56-42.67,1.39-45.19-19.59-18.9-150.76-37.85-303.14-56.84-457.54-2.93-24.85,17.35-54.39,44.45-64.21,354.84-130.82,741.21-248.63,1115.22-564.48,26.12-22.23,48.16-20.27,50.34,6.07,15.35,194.29,30.55,393.36,45.6,597.67,2.43,31.57-21.23,72.32-50.56,85.73Z"/></clipPath><linearGradient id="linear-gradient-32" x1="1119.71" y1="973.66" x2="1079.26" y2="1635.38" gradientTransform="translate(-117.56 183.34) rotate(-24.66) scale(1.08 .93) skewX(-20.04)" xlink:href="#linear-gradient-12"/><filter id="luminosity-noclip-10" x="365.82" y="-9082.92" width="1261.8" height="32766" color-interpolation-filters="sRGB" filterUnits="userSpaceOnUse"><feFlood flood-color="#fff" result="bg"/><feBlend in="SourceGraphic" in2="bg"/></filter><mask id="mask-20" x="365.82" y="-9082.92" width="1261.8" height="32766" maskUnits="userSpaceOnUse"/><linearGradient id="linear-gradient-33" x1="1100.33" y1="940.97" x2="1094.66" y2="1602.33" gradientTransform="translate(-117.56 183.34) rotate(-24.66) scale(1.08 .93) skewX(-20.04)" xlink:href="#linear-gradient-13"/><mask id="mask-19" x="365.82" y="372.19" width="1261.8" height="1128.07" maskUnits="userSpaceOnUse"><g class="cls-83"><path class="cls-11" d="m1569.95,1149.53c-366.88,144.6-748.26,212.34-1101.35,347.52-24.17,8.6-43.38-.47-45.99-22.07-18.78-149.41-37.62-300.41-56.49-453.39-3.16-26.74,18.74-58.55,48.04-69.14,353.97-130.36,739.1-248.48,1111.93-563.62,28.32-24.13,52.16-22.05,54.37,6.62,15.84,215.15,31.5,435.8,47,662.53,2.53,35.49-24.92,79.86-57.52,91.57Z"/></g></mask><linearGradient id="linear-gradient-34" x1="1100.33" y1="940.97" x2="1094.66" y2="1602.33" gradientTransform="translate(-117.56 183.34) rotate(-24.66) scale(1.08 .93) skewX(-20.04)" xlink:href="#linear-gradient-14"/><filter id="luminosity-noclip-11" x="365.82" y="-9082.92" width="1264.36" height="32766" color-interpolation-filters="sRGB" filterUnits="userSpaceOnUse"><feFlood flood-color="#fff" result="bg"/><feBlend in="SourceGraphic" in2="bg"/></filter><mask id="mask-22" x="365.82" y="-9082.92" width="1264.36" height="32766" maskUnits="userSpaceOnUse"/><linearGradient id="linear-gradient-35" x1="444.17" y1="1316.52" x2="1760.47" y2="1320.47" gradientTransform="translate(-117.56 183.34) rotate(-24.66) scale(1.08 .93) skewX(-20.04)" xlink:href="#linear-gradient-15"/><mask id="mask-21" x="365.82" y="370" width="1264.36" height="1130.2" maskUnits="userSpaceOnUse"><g class="cls-125"><path class="cls-3" d="m1572.39,1148.3c-367.58,145.39-749.81,213.16-1103.63,348.67-24.22,8.62-43.47-.42-46.08-22.03-18.81-149.39-37.66-300.38-56.55-453.36-3.16-26.73,18.79-58.56,48.14-69.18,354.7-130.64,740.7-248.97,1114.25-565.64,28.38-24.25,52.26-22.24,54.47,6.46,15.85,215.37,31.53,436.28,47.04,663.29,2.53,35.54-24.97,80.01-57.63,91.79Z"/></g></mask><linearGradient id="linear-gradient-36" x1="444.17" y1="1316.52" x2="1760.47" y2="1320.47" gradientTransform="translate(-117.56 183.34) rotate(-24.66) scale(1.08 .93) skewX(-20.04)" xlink:href="#linear-gradient-16"/><mask id="mask-23" x="454.97" y="643.71" width="1057.58" height="710.34" maskUnits="userSpaceOnUse"><path class="cls-22" d="m1495.9,697.4c-.75-10.53-9.02-13.82-19.58-7.86-69.5,38.73-128.44,21.8-142.47-35.49-2.11-8.69-11.39-10.04-21.92-3.53-237.7,146.68-477.02,236.91-706.93,322.36-12.1,4.48-22.12,16.35-22.75,27.4-2.99,52.56-45,110.69-100.58,141.11-11.36,6.2-18.96,19.01-18.02,29.4,4.3,37.85,8.59,75.61,12.88,113.3.87,9.58,8.92,14.41,19.49,11.92,48.7-11.38,91.52,4.72,104.48,42.65,2.75,8.06,11.65,11.17,22.13,7.53,230.76-85.96,470.71-157.34,708.64-258.96,11.97-4.85,21.74-18.39,22.45-30.43,4.2-71.1,59.99-152.68,131.08-202,11.88-8.13,20.69-24.27,19.69-36.14-2.86-40.6-5.73-81.02-8.6-121.27Zm-744.23,408.63c-1.05,40.23-27.24,90.08-67.51,105.79-40.29,15.75-79.36-8.68-78.42-49.19.94-40.51,33.42-85.47,73.79-100.9,40.36-15.47,73.21,4.08,72.14,44.31Zm332.16-129.31c-2.39,78.58-48.36,154.73-116.18,181.06-67.84,26.45-131.81-4.19-129.74-79.29,2.06-75.25,53.7-146.09,121.8-175.46,68.1-29.46,126.55-5.01,124.12,73.69Zm270.36-121.53c-1.69,53.73-33.07,118.06-80.12,140.59-47.05,22.57-92.07-2.31-90.51-52.32,1.55-50.21,34.16-101.65,81.36-127.46,47.21-25.83,90.96-14.65,89.27,39.19Z"/></mask><linearGradient id="linear-gradient-37" x1="1725.82" y1="7959.74" x2="1647.59" y2="8959.37" gradientTransform="translate(780.87 9850.02) rotate(-14.53) scale(1.01 -.99) skewX(5.22)" gradientUnits="userSpaceOnUse"><stop offset="0" stop-color="#a23037"/><stop offset=".08" stop-color="#a53237"/><stop offset=".16" stop-color="#b13b38"/><stop offset=".24" stop-color="#c44a3a"/><stop offset=".32" stop-color="#df5f3c"/><stop offset=".36" stop-color="#f16d3e"/><stop offset=".72" stop-color="#f16d3e"/><stop offset=".89" stop-color="#fb793f"/><stop offset=".9" stop-color="#fa834e"/><stop offset=".93" stop-color="#f8996f"/><stop offset=".96" stop-color="#f7a986"/><stop offset=".98" stop-color="#f7b295"/><stop offset="1" stop-color="#f7b69a"/></linearGradient><linearGradient id="linear-gradient-38" x1="1733.56" y1="1273.63" x2="1860" y2="1304.85" gradientTransform="translate(-1148.99 305.73) rotate(-16.37) skewX(.38)" gradientUnits="userSpaceOnUse"><stop offset="0" stop-color="#efab26"/><stop offset="1" stop-color="#dd8523"/></linearGradient><linearGradient id="linear-gradient-39" x1="1772.48" y1="1160.17" x2="1785.89" y2="1423.59" gradientTransform="translate(-1148.99 305.73) rotate(-16.37) skewX(.38)" gradientUnits="userSpaceOnUse"><stop offset="0" stop-color="#f6d246"/><stop offset=".46" stop-color="#fffda6"/><stop offset=".54" stop-color="#fdf59a"/><stop offset=".69" stop-color="#f9e07c"/><stop offset=".89" stop-color="#f2c04a"/><stop offset="1" stop-color="#efac2d"/></linearGradient><linearGradient id="linear-gradient-40" x1="-1837.47" y1="1543.61" x2="-1616.3" y2="1472.63" gradientTransform="translate(3306.55 523.59) rotate(50.73)" xlink:href="#linear-gradient-2"/><radialGradient id="radial-gradient-11" cx="-1734.05" cy="1482.18" fx="-1734.05" fy="1482.18" r="156.5" gradientTransform="translate(3306.55 523.59) rotate(50.73)" xlink:href="#radial-gradient-5"/><linearGradient id="linear-gradient-41" x1="-1823" y1="1442.4" x2="-1647.48" y2="1522.08" gradientTransform="translate(3306.55 523.59) rotate(50.73)" xlink:href="#linear-gradient"/><radialGradient id="radial-gradient-12" cx="-1728.27" cy="1492.08" fx="-1728.27" fy="1492.08" r="135.63" gradientTransform="translate(3306.55 523.59) rotate(50.73)" xlink:href="#radial-gradient-8"/><linearGradient id="linear-gradient-42" x1="1147.26" y1="90.08" x2="1002.43" y2="151.97" gradientUnits="userSpaceOnUse"><stop offset=".75" stop-color="#c46700"/><stop offset="1" stop-color="#dd8523"/></linearGradient><linearGradient id="linear-gradient-43" x1="1140" y1="73.09" x2="995.17" y2="134.98" xlink:href="#linear-gradient-42"/><linearGradient id="linear-gradient-44" x1="1138.77" y1="70.2" x2="993.94" y2="132.09" xlink:href="#linear-gradient-42"/><linearGradient id="linear-gradient-45" x1="1152.64" y1="102.67" x2="1007.81" y2="164.56" xlink:href="#linear-gradient-42"/><linearGradient id="linear-gradient-46" x1="1149.57" y1="95.47" x2="1004.74" y2="157.37" xlink:href="#linear-gradient-42"/><linearGradient id="linear-gradient-47" x1="1136.9" y1="65.84" x2="992.07" y2="127.74" xlink:href="#linear-gradient-42"/><linearGradient id="linear-gradient-48" x1="1152.13" y1="101.48" x2="1007.31" y2="163.37" xlink:href="#linear-gradient-42"/><radialGradient id="radial-gradient-13" cx="1559.31" cy="-54.71" fx="1559.31" fy="-54.71" r="116.55" gradientTransform="translate(-601.04 192.21) rotate(-.82) scale(1.05 .96) skewX(7.19)" gradientUnits="userSpaceOnUse"><stop offset=".01" stop-color="#f8d54e"/><stop offset=".76" stop-color="#efac2d"/><stop offset="1" stop-color="#dd8523"/></radialGradient><clipPath id="clippath-7"><path class="cls-107" d="m2122.55,1545.52c5.23-19.06-6.6-38.22-35.92-53.61-62.79-32.97-179.51-41.88-274.11-12.31-53.65,16.77-79.56,39.4-80.51,61.88-.02.07-.05.14-.08.21-.13.33-.27.67-.37.99-.47,1.44-.76,2.75-.96,4.02-.06.37-.1.74-.14,1.1-.11.92-.16,1.81-.16,2.68,0,.19-.04.39-.03.58.13,4.92,1.48,43.22,1.76,49.72.71,16.26,14.45,32.3,40.24,45.84,62.79,32.97,171.03,44.3,265.63,14.74,59.42-18.57,88.16-45.3,85.77-70.78-.57-6.08-.98-32.18-1.12-45.04Z"/></clipPath><radialGradient id="radial-gradient-14" cx="1687.28" cy="1100.61" fx="1687.28" fy="1100.61" r="336.62" xlink:href="#radial-gradient-3"/><radialGradient id="radial-gradient-15" cx="1887.46" cy="1274.58" fx="1887.46" fy="1274.58" r="427.88" xlink:href="#radial-gradient-5"/><linearGradient id="linear-gradient-49" x1="-1589.1" y1="1873.19" x2="-1456.73" y2="1975.96" xlink:href="#linear-gradient"/><radialGradient id="radial-gradient-16" cx="-3594.64" cy="-668.98" fx="-3594.64" fy="-668.98" r="216.53" xlink:href="#radial-gradient-6"/><linearGradient id="linear-gradient-50" x1="1897.14" y1="1515.86" x2="1903.23" y2="1577.7" xlink:href="#linear-gradient-2"/><linearGradient id="linear-gradient-51" x1="1873.22" y1="1518.22" x2="1879.32" y2="1580.05" xlink:href="#linear-gradient-2"/><linearGradient id="linear-gradient-52" x1="1900.46" y1="1506.26" x2="1906.56" y2="1568.12" xlink:href="#linear-gradient-2"/><linearGradient id="linear-gradient-53" x1="2010.54" y1="1504.68" x2="2016.63" y2="1566.52" xlink:href="#linear-gradient-2"/><linearGradient id="linear-gradient-54" x1="1798.1" y1="1595.3" x2="2063.55" y2="1458.78" xlink:href="#linear-gradient-6"/><radialGradient id="radial-gradient-17" cx="15.27" cy="694.15" fx="15.27" fy="694.15" r="248.5" gradientTransform="translate(474.36 -160.96) rotate(4.9)" xlink:href="#radial-gradient-3"/><radialGradient id="radial-gradient-18" cx="470.14" cy="546.12" fx="470.14" fy="546.12" r="208.77" xlink:href="#radial-gradient-5"/><linearGradient id="linear-gradient-55" x1="-95.41" y1="567.2" x2="103.91" y2="721.95" gradientTransform="translate(522.04 -76.25) rotate(8.46) scale(1.01 .96) skewX(2.45)" xlink:href="#linear-gradient"/><radialGradient id="radial-gradient-19" cx="1130.71" cy="1970.1" fx="1130.71" fy="1970.1" r="210.22" gradientTransform="translate(-832.56 -759.79) rotate(-20.26) scale(.83 .86) skewX(-5.45)" xlink:href="#radial-gradient-6"/><linearGradient id="linear-gradient-56" x1="716.89" y1="456.59" x2="766.53" y2="644.19" gradientTransform="translate(-255.51 33.15) rotate(-3.58)" xlink:href="#linear-gradient-2"/><linearGradient id="linear-gradient-57" x1="674.94" y1="467.69" x2="724.57" y2="655.28" gradientTransform="translate(-255.51 33.15) rotate(-3.58)" xlink:href="#linear-gradient-2"/><linearGradient id="linear-gradient-58" x1="652.66" y1="473.57" x2="702.29" y2="661.19" gradientTransform="translate(-255.51 33.15) rotate(-3.58)" xlink:href="#linear-gradient-2"/><linearGradient id="linear-gradient-59" x1="714.19" y1="457.3" x2="763.82" y2="644.9" gradientTransform="translate(-255.51 33.15) rotate(-3.58)" xlink:href="#linear-gradient-2"/><linearGradient id="linear-gradient-60" x1="619.03" y1="482.46" x2="668.67" y2="670.08" gradientTransform="translate(-255.51 33.15) rotate(-3.58)" xlink:href="#linear-gradient-2"/><linearGradient id="linear-gradient-61" x1="673.32" y1="468.12" x2="722.95" y2="655.72" gradientTransform="translate(-255.51 33.15) rotate(-3.58)" xlink:href="#linear-gradient-2"/><linearGradient id="linear-gradient-62" x1="667.8" y1="469.58" x2="717.43" y2="657.18" gradientTransform="translate(-255.51 33.15) rotate(-3.58)" xlink:href="#linear-gradient-2"/><linearGradient id="linear-gradient-63" x1="675.47" y1="482.14" x2="715.01" y2="654.6" gradientTransform="translate(-255.51 33.15) rotate(-3.58)" gradientUnits="userSpaceOnUse"><stop offset="0" stop-color="#dd8523"/><stop offset=".14" stop-color="#efac2d"/><stop offset=".47" stop-color="#f8d54e"/><stop offset=".97" stop-color="#fffda6"/></linearGradient><linearGradient id="linear-gradient-64" x1="863.03" y1="445.61" x2="1209.73" y2="736.98" gradientTransform="matrix(1,0,0,1,0,0)" xlink:href="#linear-gradient-7"/><filter id="luminosity-noclip-12" x="864.81" y="-9082.92" width="376.98" height="32766" color-interpolation-filters="sRGB" filterUnits="userSpaceOnUse"><feFlood flood-color="#fff" result="bg"/><feBlend in="SourceGraphic" in2="bg"/></filter><mask id="mask-25" x="864.81" y="-9082.92" width="376.98" height="32766" maskUnits="userSpaceOnUse"/><radialGradient id="radial-gradient-20" cx="1336.39" cy="266.82" fx="1336.39" fy="266.82" r="602.64" gradientUnits="userSpaceOnUse"><stop offset=".85" stop-color="#000"/><stop offset=".87" stop-color="#050505"/><stop offset=".88" stop-color="#141414"/><stop offset=".9" stop-color="#2e2e2e"/><stop offset=".92" stop-color="#525252"/><stop offset=".94" stop-color="gray"/><stop offset=".96" stop-color="#b8b8b8"/><stop offset=".98" stop-color="#f9f9f9"/><stop offset=".98" stop-color="#fff"/><stop offset="1" stop-color="#fff"/></radialGradient><mask id="mask-24" x="864.81" y="420.12" width="376.98" height="366.45" maskUnits="userSpaceOnUse"><g class="cls-90"><path class="cls-8" d="m1226.55,734.42c-10.72,15.52-25.66,29.17-39.13,39.32-44.37,33.43-139.26-1.27-224.87-71.26-43.01-35.16-74.71-79.95-90.85-133.82-5.95-19.85-9.13-41.44-5.07-61.98,4.77-24.13,14.55-40.2,31.44-56.98,5.2-5.16,10.51-10.16,15.83-15.19,43.64-34.43,133.92-4.8,219.73,65.33,43.99,35.95,81.91,83.96,99.63,138.49,6.55,20.16,10.64,42.16,7.38,63.34-1.76,11.43-7,22.51-14.09,32.77Z"/></g></mask><radialGradient id="radial-gradient-21" cx="1336.39" cy="266.82" fx="1336.39" fy="266.82" r="602.64" gradientUnits="userSpaceOnUse"><stop offset=".85" stop-color="#efac2d"/><stop offset=".89" stop-color="#eca62b"/><stop offset=".94" stop-color="#e59727"/><stop offset=".98" stop-color="#dd8523"/><stop offset="1" stop-color="#efac2d"/></radialGradient><radialGradient id="radial-gradient-22" cx="997.86" cy="651.52" fx="997.86" fy="651.52" r="268.28" gradientTransform="matrix(1,0,0,1,0,0)" xlink:href="#radial-gradient-7"/><linearGradient id="linear-gradient-65" x1="957.52" y1="463.49" x2="1270.36" y2="763.3" gradientTransform="matrix(1,0,0,1,0,0)" xlink:href="#linear-gradient"/><radialGradient id="radial-gradient-23" cx="955.7" cy="547.36" fx="955.7" fy="547.36" r="221.04" gradientTransform="translate(25.72 20.82) scale(.97 .99)" xlink:href="#radial-gradient-8"/><linearGradient id="linear-gradient-66" x1="987.55" y1="484.03" x2="1173.42" y2="665.86" xlink:href="#linear-gradient-2"/><linearGradient id="linear-gradient-67" x1="976.03" y1="495.81" x2="1161.88" y2="677.63" xlink:href="#linear-gradient-2"/><linearGradient id="linear-gradient-68" x1="971.97" y1="499.97" x2="1157.82" y2="681.78" xlink:href="#linear-gradient-2"/><linearGradient id="linear-gradient-69" x1="978.4" y1="478.54" x2="1163.24" y2="662.38" gradientUnits="userSpaceOnUse"><stop offset="0" stop-color="#efac2d"/><stop offset=".7" stop-color="#f8d54e"/><stop offset="1" stop-color="#e9a02a"/></linearGradient><linearGradient id="linear-gradient-70" x1="2063.48" y1="1582.48" x2="2407.15" y2="1472.2" gradientTransform="translate(-447.24 -133.64) rotate(3.26)" xlink:href="#linear-gradient-2"/><filter id="luminosity-noclip-13" x="1484.05" y="-9082.92" width="418.4" height="32766" color-interpolation-filters="sRGB" filterUnits="userSpaceOnUse"><feFlood flood-color="#fff" result="bg"/><feBlend in="SourceGraphic" in2="bg"/></filter><mask id="mask-27" x="1484.05" y="-9082.92" width="418.4" height="32766" maskUnits="userSpaceOnUse"/><radialGradient id="radial-gradient-24" cx="3600.15" cy="3099.37" fx="3600.15" fy="3099.37" r="322.46" gradientTransform="translate(-3068.95 1949.35) rotate(-47.47)" xlink:href="#radial-gradient-20"/><mask id="mask-26" x="1484.05" y="1339.09" width="418.4" height="357.89" maskUnits="userSpaceOnUse"><g class="cls-25"><path class="cls-18" d="m1899.22,1540.94c-20.44,107.41-125.05,162.76-233.21,155.4-49.07-3.34-98.1-22.05-132.1-58.51-12.96-13.9-23.4-30.1-30.58-47.7-7.38-18.09-13.99-26.95-17.03-46.18-3.09-19.54-3.69-47.16,2.55-66.44,3.6-11.11,8.42-21.82,14.31-31.91,11.74-20.09,27.65-37.53,45.89-51.9,38.17-30.08,85.97-47.26,133.99-52.74,17-1.94,34.18-2.39,51.25-1.23,65.15,4.43,118.75,18.34,146.86,67.46,18.56,32.43,26.19,91.04,18.06,133.76Z"/></g></mask><radialGradient id="radial-gradient-25" cx="3600.15" cy="3099.37" fx="3600.15" fy="3099.37" r="322.46" gradientTransform="translate(-3068.95 1949.35) rotate(-47.47)" xlink:href="#radial-gradient-21"/><radialGradient id="radial-gradient-26" cx="2224.19" cy="1487.02" fx="2224.19" fy="1487.02" r="243.18" gradientTransform="translate(-447.24 -133.64) rotate(3.26)" xlink:href="#radial-gradient-5"/><linearGradient id="linear-gradient-71" x1="2085.97" y1="1425.22" x2="2358.7" y2="1549.04" gradientTransform="translate(-447.24 -133.64) rotate(3.26)" xlink:href="#linear-gradient"/><radialGradient id="radial-gradient-27" cx="2233.16" cy="1502.42" fx="2233.16" fy="1502.42" r="210.76" gradientTransform="translate(-447.24 -133.64) rotate(3.26)" xlink:href="#radial-gradient-8"/><linearGradient id="linear-gradient-72" x1="1651.65" y1="1370.64" x2="1779.99" y2="1399.8" xlink:href="#linear-gradient-2"/><linearGradient id="linear-gradient-73" x1="1639.97" y1="1422.05" x2="1768.3" y2="1451.21" xlink:href="#linear-gradient-2"/><linearGradient id="linear-gradient-74" x1="1631.3" y1="1460.19" x2="1759.63" y2="1489.35" xlink:href="#linear-gradient-2"/><linearGradient id="linear-gradient-75" x1="1641.25" y1="1416.42" x2="1769.58" y2="1445.59" xlink:href="#linear-gradient-2"/><linearGradient id="linear-gradient-76" x1="1625.21" y1="1486.98" x2="1753.55" y2="1516.14" xlink:href="#linear-gradient-2"/><linearGradient id="linear-gradient-77" x1="1615.99" y1="1527.57" x2="1744.32" y2="1556.73" xlink:href="#linear-gradient-2"/><linearGradient id="linear-gradient-78" x1="1619.66" y1="1511.38" x2="1748" y2="1540.55" xlink:href="#linear-gradient-2"/><linearGradient id="linear-gradient-79" x1="1601.99" y1="1470.13" x2="1771.63" y2="1470.13" gradientTransform="matrix(1,0,0,1,0,0)" xlink:href="#linear-gradient-11"/></defs><g class="cls-50"><g id="Layer_2"><g id="_Layer_"><g class="cls-124"><ellipse class="cls-6" cx="994.94" cy="1333.84" rx="994.94" ry="642.62"/></g><g class="cls-101"><circle class="cls-109" cx="401.11" cy="1541.38" r="216.84"/></g><g class="cls-70"><circle class="cls-49" cx="401.11" cy="1463.12" r="216.84"/><path class="cls-45" d="m500.92,1497.12c-92.8,29-198.98,17.88-260.57-14.46-61.59-32.34-53.32-79.25,39.48-108.26,92.8-29,207.3-20.26,268.89,12.08,61.59,32.34,45,81.63-47.8,110.64Z"/><path class="cls-129" d="m274.85,1463.69c-27.02-14.28-38.21-31.56-30.75-47.42,6.15-13.07,24.13-24.29,53.43-33.32,78.03-24.04,169.54-11.56,216.03,12.39l1.26.66c24.9,13.17,34.82,29.92,27.26,45.99-6.88,14.64-27.16,27.5-58.64,37.2-76.76,23.65-161.15,8.96-207.07-14.7l-1.53-.79Z"/><path class="cls-66" d="m279.1,1466.75c-25.52-13.4-35.9-29.63-28.48-44.54,5.95-11.96,22.9-22.38,50.36-30.97,75.46-23.58,163.39-12.17,207.81,10.55l1.27.65c23.35,12.26,32.42,27.97,24.9,43.09-6.77,13.6-26.08,25.7-55.85,35.01-73.8,23.06-154.62,9.43-198.49-13l-1.53-.79Z"/><path class="cls-19" d="m386.66,1418.27s0-.05,0-.07l.31,7.93-45.3,5.23.46,11.6,46.7-5.39c.04.38.07.74.09,1.1h0s-.46-11.6-.46-11.6c-.01-.36-.04-.72-.09-1.1l-1.39.16-.23-5.89c-.02-.38-.04-.86-.06-1.32l-.07-1.82c-.01-.19-.02-.37-.03-.55h0s.07,1.72.07,1.72Z"/><path class="cls-127" d="m337.13,1431c-.17-5.41,2.45-10.59,6.09-14.44,0,0-.46-11.6-.46-11.6-3.62,3.84-6.27,9.06-6.06,14.44.15,3.87.31,7.74.43,11.6Z"/><path class="cls-138" d="m408.04,1438.53c-.03-1.69-.05-3.17,0-3.18l48.34-5.59c.61,1.55.94,3.08,1,4.59l-.46-11.6c-.06-1.51-.39-3.04-1-4.59l-3.21.37-.23-5.88c-.11-.14-.23-.27-.35-.4-4.14-4.65-11.04-6.8-17.06-7.46-5.95-.65-11.98.08-17.83,1.34-2.59.56-5.22,1.25-7.4,2.75-3.01,2.07-4.09,5.35-3.95,8.88l.46,11.6c-.04-.96.02-1.84.14-2.67.03-.19.08-.36.11-.54.74-3.76,3.7-6.15,7.2-7.38,3.34-1.17,7.08-1.8,10.58-2.2,1.65-.19,3.25-.31,4.79-.36.05,0,.11,0,.16,0,5.44-.17,10.95.59,15.99,2.71.23.1.45.19.84.37,0,0-38.63,4.47-38.66,4.47.12-.01.13,6.84.05,7.54-.31,2.65-1.25,5.06-3.01,7.08-3.37,3.88-8.44,5.72-13.27,7.01-6.49,1.73-13.23,2.54-19.94,2.72-8.2.21-16.46-.71-24.35-3.02-7.76-2.27-16.09-5.76-21.64-11.83l-3.64.42-.23-5.88c-2.05-3.5-3.22-7.12-3.53-10.86-.03-.39-.06-.78-.07-1.16l.46,11.6c.02.38.04.77.07,1.16.15,1.82.52,3.62,1.08,5.39l-34.88,4.03-3.33-5.51.46,11.6,3.33,5.51s40.74-4.71,40.75-4.71c.43-.05,2.78,2.65,3.27,3.04,1.27,1.02,2.63,1.94,4.01,2.8,3.66,2.27,7.62,3.89,11.71,5.24,8.71,2.81,17.91,4.03,27.06,3.78,5.43-.15,10.86-.69,16.17-1.9,5.13-1.16,11.05-2.73,15.17-6.1,2.54-2.09,4.51-5.02,4.92-8.34.03-.21-.03-2.68-.07-4.82Z"/><path class="cls-94" d="m474.94,1427.62l28.14-3.25-.46-11.6-30.37,3.51.46,11.6,2.14-.25c0,1.06,0,2.12-.11,3.05-.16,1.26-.42,2.41-.8,3.44h0l-22.31,2.57-.41-.73.46,11.6.41.73,22.31-2.57c.08-.23.16-.46.23-.7.25-.83.44-1.73.56-2.7,0-.01,0-.03,0-.04.16-1.29.21-2.69.15-4.22l-.41-10.44Z"/><path class="cls-44" d="m472.25,1416.27c1.53,2.96,2.41,6.13,2.61,9.47.2,3.34-.09,6.14-.91,8.37l-22.31,2.57-.41-.73c2.22-2.68,3.9-5.52,4.99-8.53,1.04-3.02.95-6.1-.29-9.28l-48.42,5.6c.13,1.13.2,2.18.17,3.17,0,.98,0,1.83.06,2.56.23,4.67-1.9,8.55-6.38,11.64-4.47,3.1-11.75,5.22-21.81,6.38-11.02,1.28-21.6.56-31.7-2.16-10.1-2.72-17.6-6.76-22.49-12.1l-40.75,4.71-3.33-5.51,40.2-4.65c-2.05-3.5-3.22-7.12-3.53-10.86-.33-3.75.22-7.1,1.67-10.07l22.74-2.62.41.73c-2.88,3.05-4.74,6.35-5.62,9.87-.84,3.51-.53,7.2.98,11.02l48.64-5.62c-.05-.85-.1-1.89-.13-3.13-.07-1.24-.07-2.3.06-3.18.18-5.19,2.72-9.2,7.73-12,4.97-2.8,12-4.73,21.07-5.78,10.67-1.23,21.01-.51,31.03,2.17.31.08.61.17.92.25.49.14.7.2.9.26.52.16.7.21.89.27.53.17.7.22.87.28.52.17.69.23.86.29.51.18.68.23.84.29.51.19.67.24.83.3.51.19.66.25.81.31.5.2.65.26.8.32.49.2.64.27.78.33.48.21.63.27.77.33.48.22.61.28.75.34.47.22.6.29.74.35.11.06.23.11.34.17.13.06.26.13.38.19.11.06.22.11.33.17.13.07.25.13.38.2.11.06.22.12.32.17.12.07.24.13.36.2.11.06.22.12.32.18.12.07.24.14.36.21.1.06.21.12.31.18.12.07.23.14.35.21.1.06.21.13.31.19.11.07.22.14.33.21.1.07.21.13.31.2.11.07.22.14.32.21.1.07.2.13.3.2.1.07.21.14.31.21.1.07.21.14.31.21.1.07.19.14.29.21.1.07.21.15.31.22.09.07.18.14.28.21.1.08.21.16.31.23.08.06.16.13.24.19.11.09.22.17.33.26.32.27.44.36.55.46.3.26.42.36.53.46.72.64,1.31,1.22,1.87,1.81.21.22.32.34.42.46.3.34.47.53.63.72l30.63-3.54,3.31,5.53-30.37,3.51Zm-66.35,1.76l46.58-5.39c-.11-.14-.23-.27-.35-.41-.18-.2-.32-.35-.46-.49-.02-.02-.03-.03-.05-.05-.14-.14-.28-.28-.43-.42-.02-.02-.04-.03-.05-.05-.15-.14-.3-.28-.46-.41-.02-.02-.04-.03-.05-.05-.16-.14-.32-.27-.49-.4-.22-.17-.39-.31-.57-.44-.22-.16-.41-.29-.6-.42-.2-.14-.41-.27-.61-.4-.21-.13-.42-.25-.62-.38-.25-.14-.46-.26-.67-.37-.28-.15-.49-.25-.7-.36-.03-.01-.05-.03-.08-.04-.21-.1-.43-.21-.65-.31-.03-.01-.06-.03-.1-.04-.22-.1-.44-.2-.67-.29-.03-.01-.07-.03-.1-.04-.23-.1-.46-.19-.7-.28-.03-.01-.06-.02-.1-.04-.24-.09-.48-.18-.73-.27-.03-.01-.06-.02-.09-.03-.25-.09-.51-.18-.77-.27-.33-.11-.6-.2-.89-.28-4.98-1.53-10.84-1.9-17.58-1.12-6.7.77-11.41,2.09-14.17,3.94-2.8,1.85-4.09,4.9-3.86,9.13Zm-20.55,16.52c2.44-1.94,3.46-4.81,3.03-8.58l-46.7,5.39c2.88,3.19,6.67,5.43,11.42,6.69,4.74,1.26,10.74,1.47,18.02.64,7.05-.83,11.79-2.2,14.23-4.14Z"/></g><path class="cls-112" d="m1495.28,359.68c-12.35,5.93-26.69,9.16-38.84,10.7-40.03,5.1-87.38-50.97-116.16-125.96-14.46-37.67-18.32-77.34-9.1-117.14,3.4-14.66,9.17-29.43,19.13-40.92,11.7-13.5,23.66-20.12,40.36-24.61,5.14-1.38,10.29-2.62,15.46-3.88,39.93-6,86.2,45.22,115.06,120.36,14.8,38.52,21.42,82.46,12.95,123.24-3.13,15.08-8.48,30.42-18.17,42.61-5.23,6.58-12.53,11.68-20.7,15.59Z"/><path class="cls-20" d="m1530.02,175.8c31.06,80.84,15.97,165.68-25.77,181.71-41.74,16.03-94.33-42.81-125.38-123.65-31.06-80.84-14.62-160.03,27.12-176.06,41.74-16.03,92.97,37.15,124.03,118Z"/><path class="cls-144" d="m1468.95,331.98c-27.42-15.66-52.24-48.07-71.46-101.59-27.53-76.68-15.83-134.79,17.73-148.53,9.93-4.07,21.04-2.66,33.01,4.18,26.75,15.28,49.74,44.67,68.18,96.03,13.03,36.29,19.71,68.26,14.01,102.11-5.08,30.14-14.89,45.51-30.66,51.96-9.09,3.72-19.46,2.32-30.81-4.16Z"/><path class="cls-38" d="m1458.33,321.26c-16.84-9.54-28.08-26.42-37.73-42.7-12.73-21.49-21.62-45.18-28.63-69.07-6.24-21.27-9.25-42.83-8.28-65.07.77-17.52,4.11-44.69,23.78-50.86,11.85-3.72,22.75,1.7,33.11,8.08,39.42,24.28,61.61,74.23,69.8,118.24,4.5,24.19,8.13,48.76.64,72.61-5.46,17.4-20.44,37.96-41.18,33.32-4.02-.9-7.87-2.5-11.51-4.57Z"/><polygon class="cls-118" points="1473.47 158.99 1480.08 140.19 1470.69 140.97 1464.08 159.78 1473.47 158.99"/><path class="cls-72" d="m1461.12,271.77c-2.87-.57-5.48-2.41-7.56-4.37-.98-.93-6.56-9.31-7.1-9.26,0,0-8.05.67-8.05.67l3.27-9.29c-1.48-2.89-2.91-5.91-4.3-9.07-.07-.16-.14-.35-.21-.51l8.1-.68,6.06-17.25c.34.92.69,1.85.98,2.72,1.11,3.24,2.1,6.62,2.74,9.99.77,4.02.98,8.29.32,12.35-.49,3.04-2.18,9.48-6.11,9.81,2.37-.2,5.72-.02,8.09-.22,4.19-.35,5.02-3.01,6.4-7.16,1.63-4.93,1.6-10.21.73-15.28-.25-1.43-3.07-14.82-4.43-14.82l-8.05.67s3.75-10.67,3.76-10.69c.29-.81-1.36-3.66-1.7-4.61-.78-2.17-1.55-4.34-2.32-6.51,2.72-.22,5.44-.43,8.16-.65,2.02-5.76,4.03-11.52,6.05-17.28,4.88,11.04,7.59,22.88,10.28,34.65,3.13-.26,6.27-.52,9.4-.79-2.84-12.36-5.71-24.82-11-36.34-2.68.23-5.36.47-8.05.7.91-2.55,1.81-5.1,2.72-7.64.22-.62.44-1.27.37-1.92-.08-.71-.5-1.34-.91-1.92-1.56-2.24-3.27-4.61-5.82-5.59-3.61-1.38-7.63.43-11.48.17,4.09.28,9.98,5.6,8.47,9.92-2.92,8.33-5.84,16.66-8.76,24.99-4.63-13.48-7.59-28.23-3.62-41.92,1.2-4.13,3.75-9.81,8.69-10.22,0,0-9.37.78-9.39.79-5.76.48-8.13,7.55-9.24,12.2-2.14,8.95-1.44,18.26.54,27.17,1.01,4.55,2.35,9.01,3.83,13.42.74,2.19,1.53,4.37,2.32,6.55.4,1.1,2.42,4.6,2.08,5.62l-9.88,28.13c-1.05-2.48-2.1-4.97-3.1-7.61-2.41-6.36-4.56-12.88-6.25-19.46l4.92-13.96-9.39.79s-4.91,13.96-4.92,13.96c-.42,1.19,1.37,4.93,1.7,6.03.86,2.88,1.79,5.73,2.78,8.57,2.83,8.11,6.14,16.07,10.06,23.72l-8.69,24.69,4.67,9.01,9.39-.79-4.67-9.01s4.91-13.95,4.93-14c-.48,1.33,5.35,6.96,6.32,7.89,2.59,2.45,6.24,4.92,9.97,4.6,0,0,9.36-.78,9.39-.79-.84.07-1.68.01-2.49-.15Z"/><path class="cls-57" d="m1478.18,167.86c2.42,4.9,4.8,10.44,7.09,16.61,2.3,6.17,4.06,11.48,5.32,15.98l-4.82,13.71-.61-1.2c-1.14-5.87-2.55-11.82-4.25-17.89-1.68-6.04-3.78-11.78-6.26-17.19l-10.46,29.75c.8,2.06,1.52,4.04,2.18,5.88.64,1.81,1.22,3.41,1.71,4.77,3.19,8.59,5.16,16.67,5.91,24.27.75,7.53.04,14.41-2.13,20.62-2.38,6.78-5.95,9.63-10.74,8.58-4.77-1.02-9.66-5.55-14.67-13.59l-8.79,25.08-4.67-9.01,8.69-24.69c-2.94-5.74-5.7-12.01-8.29-18.85-2.6-6.87-4.68-13.36-6.25-19.46l4.92-13.96.61,1.2c1.18,6.86,2.84,13.72,4.95,20.66,2.09,6.91,4.66,13.62,7.65,20.16l10.5-29.89c-.59-1.56-1.3-3.48-2.15-5.79-.84-2.28-1.53-4.27-2.09-5.93-3.43-9.8-5.35-18.31-5.77-25.51-.41-7.23.36-13.61,2.33-19.18,2.29-6.56,5.81-9.36,10.54-8.39.15.03.29.07.44.1.22.06.33.09.44.12.26.09.35.12.44.15.25.1.35.13.44.17.26.11.35.15.44.19.26.12.35.17.44.21.26.14.35.18.44.23.26.15.36.2.45.26.26.16.35.22.45.28.26.17.35.23.45.3.27.19.36.25.45.32.27.2.36.27.45.34.27.22.36.29.46.37.27.22.36.3.45.39.27.24.36.32.46.41.27.25.36.34.46.43.27.26.36.35.45.45.27.28.37.37.46.47.28.3.37.4.46.5.28.31.37.42.47.52.28.32.37.43.46.54.28.33.37.44.46.56.28.35.38.47.47.58.28.36.38.48.47.61.28.37.37.49.46.62.07.09.13.18.2.27.09.12.18.25.27.37.07.1.14.19.21.29.09.12.17.25.26.37.07.1.14.2.21.31.08.12.17.25.25.37.07.11.15.22.22.33.08.12.17.25.25.38.07.11.15.23.22.34.08.13.17.26.25.4.07.11.15.23.22.34.08.13.16.26.24.39.08.12.16.25.23.38.16.25.31.51.47.77l6.61-18.8,4.65,8.98-6.55,18.69Zm-18.27,29.74l10.05-28.63c-.12-.2-.24-.4-.36-.6-.02-.03-.04-.06-.06-.09-.08-.13-.16-.25-.24-.37-.08-.12-.16-.25-.23-.37-.08-.12-.16-.24-.24-.36-.08-.12-.16-.23-.23-.35-.08-.11-.16-.22-.23-.34-.08-.11-.16-.22-.24-.33-.08-.11-.15-.21-.23-.31-.08-.11-.16-.21-.24-.31-.08-.1-.15-.2-.23-.29-.08-.1-.16-.2-.24-.3-.08-.09-.15-.18-.23-.27-.08-.09-.16-.19-.24-.28-.07-.08-.15-.17-.22-.25-.08-.09-.16-.18-.24-.26-.07-.08-.15-.16-.22-.23-.08-.08-.16-.16-.25-.24-.07-.07-.15-.14-.22-.21-.08-.08-.16-.15-.25-.22-.07-.06-.14-.13-.21-.19-.08-.07-.17-.14-.25-.21-.07-.06-.14-.11-.21-.17-.09-.07-.17-.13-.26-.19-.07-.05-.13-.1-.2-.14-.09-.06-.18-.12-.27-.18-.06-.04-.12-.08-.19-.12-.1-.06-.19-.11-.29-.16-.06-.03-.12-.07-.17-.1-.11-.06-.21-.11-.32-.16-.05-.02-.09-.05-.14-.07-.15-.07-.31-.13-.46-.18-2.47-.86-4.45.77-5.9,4.93-1.46,4.1-1.96,8.42-1.52,13.01.42,4.6,2.07,10.75,4.96,18.54Zm5,39.03c-.58-4.59-2.19-10.33-4.85-17.24l-10.08,28.74c2.98,4.79,5.58,7.43,7.81,7.9,2.23.47,4.15-1.51,5.72-5.99,1.53-4.34,1.99-8.79,1.4-13.4Z"/><g class="cls-47"><path class="cls-149" d="m1783.52,1467.63c-364.88-18-739.96,52.34-1093.63,210.51-24.05,10.1-39.29-1.04-36.47-27.13,18.96-180.55,38.16-360.7,57.61-540.44,3.5-31.35,32.22-71.3,62.77-86.13,369.09-179.79,758.68-266.04,1134.35-257.77,28.54.64,47.49,22.39,43.28,48.74-32.48,198.35-64.78,397.65-96.87,597.89-4.88,31.16-38.82,56.7-71.04,54.32Z"/><g class="cls-42"><path class="cls-36" d="m1782.69,1467.67c-364.63-17.88-739.44,52.46-1092.86,210.51-24.04,10.09-39.26-1.06-36.44-27.15,18.97-180.55,38.18-360.71,57.63-540.45,3.5-31.35,32.21-71.29,62.74-86.12,368.83-179.67,758.14-265.94,1133.58-257.8,28.52.63,47.46,22.37,43.25,48.73-32.49,198.36-64.79,397.68-96.89,597.93-4.88,31.16-38.8,56.72-71,54.35Z"/></g><g class="cls-93"><path class="cls-81" d="m1785.18,1467.56c-365.36-18.25-741.01,52.1-1095.18,210.52-24.09,10.12-39.35-1.01-36.53-27.1,18.94-180.54,38.13-360.68,57.56-540.41,3.5-31.35,32.25-71.32,62.85-86.17,369.6-180.02,759.75-266.25,1135.9-257.7,28.57.66,47.56,22.42,43.35,48.78-32.46,198.32-64.75,397.6-96.83,597.8-4.87,31.16-38.85,56.67-71.12,54.27Z"/></g></g><g class="cls-111"><path class="cls-23" d="m1745.98,1319.24l-1124.86,302.08c-25.6,6.19-44.39-7.38-44.78-32.36l-10.55-519.37c-.48-30.17,25.71-65.41,57.07-76.77l1137.07-412.14c28.79-10.43,51.37,3.22,51.4,31.09l-1.66,629.43c.04,32.64-30.44,69.99-63.69,78.04Z"/><g class="cls-110"><path class="cls-135" d="m1745.14,1319.55l-1124.08,301.79c-25.58,6.19-44.35-7.39-44.75-32.37l-10.52-519.37c-.48-30.17,25.7-65.4,57.03-76.76l1136.29-411.86c28.77-10.43,51.33,3.24,51.37,31.1l-1.68,629.44c.04,32.64-30.42,69.99-63.65,78.02Z"/></g><g class="cls-92"><path class="cls-89" d="m1747.66,1318.63l-1126.43,302.64c-25.63,6.21-44.45-7.36-44.85-32.33l-10.59-519.35c-.48-30.17,25.75-65.42,57.15-76.8l1138.63-412.71c28.83-10.45,51.44,3.2,51.48,31.06l-1.61,629.41c.04,32.64-30.48,70.01-63.77,78.07Z"/></g></g><g class="cls-71"><path class="cls-120" d="m1692.31,1281.36l-1124.86,302.08c-25.6,6.19-44.39-7.38-44.78-32.36l-10.55-519.37c-.48-30.17,25.71-65.41,57.07-76.77l1137.07-412.14c28.79-10.43,51.37,3.22,51.4,31.09l-1.66,629.43c.04,32.64-30.44,69.99-63.69,78.04Z"/><g class="cls-26"><path class="cls-116" d="m1691.47,1281.66l-1124.08,301.79c-25.58,6.19-44.35-7.39-44.75-32.37l-10.52-519.37c-.48-30.17,25.7-65.4,57.03-76.76l1136.29-411.86c28.77-10.43,51.33,3.24,51.37,31.1l-1.68,629.44c.04,32.64-30.42,69.99-63.65,78.02Z"/></g><g class="cls-73"><path class="cls-150" d="m1693.99,1280.75l-1126.43,302.64c-25.63,6.21-44.45-7.36-44.85-32.33l-10.59-519.35c-.48-30.17,25.75-65.42,57.15-76.8l1138.63-412.71c28.83-10.45,51.44,3.2,51.48,31.06l-1.61,629.41c.04,32.64-30.48,70.01-63.77,78.07Z"/></g></g><g class="cls-128"><path class="cls-131" d="m1638.65,1243.48l-1124.86,302.08c-25.6,6.19-44.39-7.38-44.78-32.36l-10.55-519.37c-.48-30.17,25.71-65.41,57.07-76.77l1137.07-412.14c28.79-10.43,51.37,3.22,51.4,31.09l-1.66,629.43c.04,32.64-30.44,69.99-63.69,78.04Z"/><g class="cls-136"><path class="cls-133" d="m1637.81,1243.78l-1124.08,301.79c-25.58,6.19-44.35-7.39-44.75-32.37l-10.52-519.37c-.48-30.17,25.7-65.4,57.03-76.76l1136.29-411.86c28.77-10.43,51.33,3.24,51.37,31.1l-1.68,629.44c.04,32.64-30.42,69.99-63.65,78.02Z"/></g><g class="cls-114"><path class="cls-82" d="m1640.32,1242.87l-1126.43,302.64c-25.63,6.21-44.45-7.36-44.85-32.33l-10.59-519.35c-.48-30.17,25.75-65.42,57.15-76.8l1138.63-412.71c28.83-10.45,51.44,3.2,51.48,31.06l-1.61,629.42c.04,32.64-30.48,70.01-63.77,78.07Z"/></g></g><g class="cls-115"><path class="cls-16" d="m1956.89,750.91c-6.68-23.44-14.73-46.49-24.14-68.98-57.56-137.59-214.27-209.91-357.04-224.28-59.73-6.01-130.76-5.62-187.23,17.25-79.5,32.19-166.34,48.11-248.5,72.4-129.48,38.28-257.31,82.12-384.3,127.94-126.32,45.56-263.44,104.87-319.15,227.06-43.6,95.61-25.13,202.6-18.55,303.47,6.04,92.51-4.89,178.2,6.07,269.86.94,7.86,4.21,13.92,9.16,17.93,8.31,7.29,21.43,8.88,36.5,3.51l.33,16.89c.14,9.08,2.86,16.52,7.51,21.89,7.77,9.68,21.08,13.63,37.08,9.73l8.56-2.31.17,8.58c.14,9.08,2.86,16.51,7.51,21.88,7.77,9.68,21.08,13.63,37.08,9.74l8.56-2.31.17,8.58c.14,9.08,2.86,16.52,7.51,21.89,7.77,9.68,21.08,13.63,37.08,9.73l36.17-9.77c-1.41,13.43-2.84,26.83-4.24,40.26-1.02,9.45.48,16.76,3.98,21.65,5.79,8.96,17.88,12.19,32.43,4.69,178.35-91.95,369.95-161.54,565.35-207,81.05-18.86,163.44-32.55,246.1-41.5,64.41-6.98,129.27-7.68,193.99-7.79,33.72-.06,68.14-2.17,101.79-.4,25.36,1.33,44.76,4.61,62.85-18.37,10.62-13.49,16.21-30.16,21.55-46.48,63.11-192.78,133.83-401.36,75.64-605.71Z"/></g><g class="cls-53"><path class="cls-56" d="m1570.76,1149.12c-367.12,144.87-748.78,212.61-1102.11,347.9-24.18,8.61-43.41-.45-46.02-22.06-18.79-149.4-37.63-300.4-56.51-453.38-3.16-26.74,18.76-58.55,48.07-69.16,354.21-130.45,739.63-248.65,1112.71-564.29,28.34-24.17,52.19-22.11,54.4,6.57,15.84,215.22,31.51,435.96,47.01,662.78,2.53,35.51-24.93,79.91-57.55,91.64Z"/><g class="cls-102"><path class="cls-104" d="m1569.95,1149.53c-366.88,144.6-748.26,212.34-1101.35,347.52-24.17,8.6-43.38-.47-45.99-22.07-18.78-149.41-37.62-300.41-56.49-453.39-3.16-26.74,18.74-58.55,48.04-69.14,353.97-130.36,739.1-248.48,1111.93-563.62,28.32-24.13,52.16-22.05,54.37,6.62,15.84,215.15,31.5,435.8,47,662.53,2.53,35.49-24.92,79.86-57.52,91.57Z"/></g><g class="cls-141"><path class="cls-39" d="m1572.39,1148.3c-367.58,145.39-749.81,213.16-1103.63,348.67-24.22,8.62-43.47-.42-46.08-22.03-18.81-149.39-37.66-300.38-56.55-453.36-3.16-26.73,18.79-58.56,48.14-69.18,354.7-130.64,740.7-248.97,1114.25-565.64,28.38-24.25,52.26-22.24,54.47,6.46,15.85,215.37,31.53,436.28,47.04,663.29,2.53,35.54-24.97,80.01-57.63,91.79Z"/></g></g><g class="cls-24"><path class="cls-74" d="m1495.9,697.4c-.75-10.53-9.02-13.82-19.58-7.86-69.5,38.73-128.44,21.8-142.47-35.49-2.11-8.69-11.39-10.04-21.92-3.53-237.7,146.68-477.02,236.91-706.93,322.36-12.1,4.48-22.12,16.35-22.75,27.4-2.99,52.56-45,110.69-100.58,141.11-11.36,6.2-18.96,19.01-18.02,29.4,4.3,37.85,8.59,75.61,12.88,113.3.87,9.58,8.92,14.41,19.49,11.92,48.7-11.38,91.52,4.72,104.48,42.65,2.75,8.06,11.65,11.17,22.13,7.53,230.76-85.96,470.71-157.34,708.64-258.96,11.97-4.85,21.74-18.39,22.45-30.43,4.2-71.1,59.99-152.68,131.08-202,11.88-8.13,20.69-24.27,19.69-36.14-2.86-40.6-5.73-81.02-8.6-121.27Zm-744.23,408.63c-1.05,40.23-27.24,90.08-67.51,105.79-40.29,15.75-79.36-8.68-78.42-49.19.94-40.51,33.42-85.47,73.79-100.9,40.36-15.47,73.21,4.08,72.14,44.31Zm332.16-129.31c-2.39,78.58-48.36,154.73-116.18,181.06-67.84,26.45-131.81-4.19-129.74-79.29,2.06-75.25,53.7-146.09,121.8-175.46,68.1-29.46,126.55-5.01,124.12,73.69Zm270.36-121.53c-1.69,53.73-33.07,118.06-80.12,140.59-47.05,22.57-92.07-2.31-90.51-52.32,1.55-50.21,34.16-101.65,81.36-127.46,47.21-25.83,90.96-14.65,89.27,39.19Z"/><path class="cls-1" d="m721.36,1058.29c13.68,7.8,22.04,23.03,21.46,43.65-1.06,40.24-27.23,90.07-67.43,105.78-13.06,5.1-25.96,5.96-37.44,3.46,14.28,7.56,32.7,8.89,51.43,1.59,40.31-15.71,66.46-65.53,67.53-105.78.69-26.96-13.76-44.6-35.55-48.69Zm313.09-164.98c25.64,11.06,41.7,37.86,40.4,79.6-2.4,78.39-48.3,154.41-116.15,180.76-25.34,9.95-50.19,11.8-71.22,6.32,23.57,10.99,54.13,11.05,85.5-1.27,67.82-26.33,113.8-102.61,116.16-181.26,1.49-49.29-20.9-77.63-54.69-84.17Zm268.51-245.6c-237.77,145.96-477,235.71-706.7,320.85-12.09,4.5-22.11,16.38-22.73,27.44-2.98,52.59-44.93,110.73-100.46,141.14-11.32,6.17-18.94,19-18.01,29.43,4.31,37.91,8.62,75.74,12.93,113.48.74,8.64,7.33,13.38,16.34,12.4-1.48-2.02-2.43-4.53-2.68-7.46-4.29-37.66-8.57-75.4-12.87-113.22-.93-10.35,6.65-23.13,17.99-29.36,55.64-30.41,97.66-88.52,100.66-141.05.63-11.04,10.66-22.93,22.78-27.4,230.04-85.6,469.4-176.17,707.06-323.41,2.06-1.29,4.07-2.24,5.96-2.95-3.6-5.2-11.5-5.26-20.27.1Zm18.13,155.59c15.38,6.79,24.97,22.89,24.14,48.45-1.68,53.53-33.05,117.62-80.1,140.11-16.21,7.84-32.21,9.95-46.16,7.33,16.6,8.1,38.29,8.08,60.41-2.67,47.04-22.57,78.45-87.11,80.14-140.95,1.01-32.92-15.01-50.16-38.43-52.27Z"/><path class="cls-46" d="m672.51,1058.37c-40.36,15.41-72.81,60.39-73.76,100.94-.6,25.89,15.17,45.29,37.09,51.72-13.87-9.34-22.7-25.18-22.25-44.7.96-40.5,33.47-85.41,73.89-100.88,14.62-5.62,28.24-6.6,39.67-3.74-13.27-9.79-32.85-11.68-54.64-3.34Zm280-158.37c-68.07,29.26-119.68,100.03-121.75,175.29-1.21,44.21,20.44,72.84,52.27,83.68-23.31-14.03-38.11-40-37.09-76.84,2.03-75.3,53.7-146.19,121.86-175.69,27.69-11.94,53.88-15.12,74.89-9.19-22.93-13.22-55.29-12.2-90.18,2.75Zm305.22-86.66c-47.19,25.72-79.79,77.04-81.33,127.14-.99,31.03,15.87,52.04,40.01,58.45-15.65-10.02-25.5-28.07-24.77-52.12,1.55-50.32,34.15-101.9,81.33-127.79,19.74-10.77,38.92-15.18,54.41-12.64-16.81-10.48-42.72-7.64-69.65,6.95Zm246.15-113.34c-.68-9.37-4.2-27.04-25.95-15.81,6.39-.14,10.62,1.87,10.87,10.88,2.88,40.11,5.75,80.39,8.62,120.84.99,11.88-7.84,27.99-19.71,36.05-71.13,49.25-126.91,130.61-131.1,201.47-.72,12.02-10.53,25.55-22.49,30.38-237.97,101.58-477.86,173.04-708.45,259.16-6.92,2.53-16.66,1.1-19.3-2.6,3.76,12.94,11.32,18,34.12,9.44,230.96-85.78,470.97-157.06,708.84-258.73,11.95-4.89,21.69-18.45,22.42-30.48,4.21-71.33,59.96-153.12,131.02-202.62,11.86-8.1,20.69-24.32,19.7-36.22-2.86-40.77-5.72-81.36-8.59-121.77Z"/></g><path class="cls-78" d="m1432.43,1430.67c-52.21-13.99-244.63-77.47-271.23-134.08-10.13-21.55-14-46.16-17.7-70.46-7.08-46.45-12.84-93.12-18.77-139.72-8.56-68-15.96-136.15-24.17-204.19-.24-2.23-.47-4.46-.76-6.68-3.8-32.42-7.3-64.87-10.98-97.31-1.9-16.71-3.84-33.41-5.89-50.1-1.57-12.74-7.34-30.04-.11-41.88,3.27-5.35,9.23-5.44,14.61-7.47,8.96-3.38,18.07-6.23,27.07-9.47.9-.32,1.89-.75,2.24-1.66.5-1.32-.63-2.64-1.66-3.57-9.29-8.44-16.63-15.51-29.18-18.78-11.75-3.06-22.87-1.24-34.4,1.75-24.87,7.73-49.6,15.92-74.18,24.6-48.27,17.06-95.93,35.97-142.85,56.68-13.92,6.15-27.96,12.56-39.75,22.38-35.37,29.44-25.22,73.45-21.98,114.4,4.48,56.64,14.44,112.56,20.93,168.95,11.54,100.31,18.63,199.04,37.26,297.45,5.03,26.54,11.92,46.9,27.83,67.02,25.96,32.69,202.98,107.56,241.09,116.63,53.09,12.6,103.75,7.2,158.01-9.85,40.35-10.84,80.4-25.04,120.51-37.44,12.36-3.86,24.82-8.17,35.9-15.17,5.05-3.19,11.31-7.36,14.66-12.57,3.39-5.26-2.19-8.3-6.51-9.45Z"/><path class="cls-41" d="m1432.43,1430.67c-52.21-13.99-244.63-77.47-271.23-134.08-10.13-21.55-14-46.16-17.7-70.46-7.08-46.45-12.84-93.12-18.77-139.72-8.56-68-15.96-136.15-24.17-204.19-.24-2.23-.47-4.46-.76-6.68-3.8-32.42-7.3-64.87-10.98-97.31-1.9-16.71-3.84-33.41-5.89-50.1-1.47-11.98-6.66-28-1.26-39.71-4.36,1.22-8.67,2.16-11.28,6.42-7.22,11.83-1.45,29.14.11,41.88,2.05,16.69,3.99,33.39,5.89,50.1,3.68,32.43,7.18,64.89,10.98,97.31.29,2.22.53,4.45.76,6.68,8.21,68.04,15.61,136.19,24.17,204.19,5.93,46.61,11.7,93.27,18.77,139.72,3.7,24.3,7.57,48.92,17.7,70.46,26.6,56.6,219.02,120.09,271.23,134.08,4.32,1.16,9.9,4.19,6.51,9.45-1.32,2.05-3.09,3.93-5.06,5.66.95-.55,1.9-1.09,2.82-1.68,5.05-3.19,11.31-7.36,14.66-12.57,3.39-5.26-2.19-8.3-6.51-9.45Z"/><path class="cls-40" d="m1008.99,929.12c-.59-1.26-1.64-2.01-3.69-2.53-7.91-1.99-16.02-3.05-24.15-3.7-1.7-.13-15.83.24-16.14-1.1-2.24-9.62-2.12-20.23-3.08-30.05-.08-.8-.17-1.64-.6-2.32-.6-.97-1.75-1.45-2.85-1.79-4.02-1.27-8.4-1.56-12.58-.98-.01,0-.03,0-.04,0-7.17,1-14.33,3.03-21.41,4.56-2.7.58-2.83,1.58-2.59,3.96,1.01,10.08,2.02,20.16,3.03,30.24l.03.34c.13,1.3.26,2.59.39,3.89-.05.02-.1.04-.16.05-.13.04-.27.09-.39.12-14.16,4.49-26.23,14.9-34.27,27.18-6.22,9.49-9.79,20.55-9.44,31.88,0,0,0,.19,0,.19.29,18.95,9.78,35.16,28.04,42.1,4.58,1.74,9.38,2.86,14.22,3.59,1.09.17,12.64,1.05,12.66,1.28,1.69,16.86,3.38,33.73,5.07,50.59,0,0,.05.53.05.53.05.51-12.97-2.11-14.08-2.45-4.69-1.41-8.81-3.61-13.25-5.57-4.15-1.83-9.42-2.09-13.93-1.74-1.71.13-10.88.96-10.62,3.33.56,5.62,1.13,11.24,1.69,16.86.4,4.01-.11,9.77,1.41,13.49,0,.02.01.03.02.05,1.04,2.34,6.14,2.84,8.36,3.44,4.43,1.19,8.92,2.13,13.46,2.82,9.38,1.43,19,1.78,28.47,1.22.51-.02,1.05-.05,1.61-.08,1.04,3.47.79,7.89,1.15,11.5.4,3.99.8,7.99,1.2,11.98.4,3.99.8,7.99,1.2,11.98.27,2.72-.14,7.47,2.02,9.51,2.26,2.14,5.94,2.38,8.89,2.31,9.41-.2,18.6-2.62,27.69-5.02,3.92-1.04,1.89-5.94,1.58-8.97-.46-4.62-.93-9.25-1.39-13.87-.93-9.25-1.86-18.5-2.78-27.75.23-.08.45-.16.64-.23,21.86-7.67,37.93-28.27,42.39-50.29,2.92-14.41-1.15-31.57-11.93-41.97-9.1-8.79-21.86-12.7-34.32-13.67-1.52-.12-3.04-.19-4.57-.23-2.31-.07-2.65.29-3.1-2.03-.75-3.89-.81-8.05-1.21-11.99-.81-7.99-1.62-15.99-2.42-23.98-.11-1.13-.75-12.4-1.22-12.47,5.31.84,10.5,2.9,15.4,5.04,7.26,3.17,15.2,4.94,23.07,3.04,2.87-.69,5.42-.94,5.84-4.25.34-2.63-.68-5.28-.9-7.88-.48-5.69-.98-11.39-1.83-17.05-.13-1.3-.31-2.32-.69-3.13Z"/><path class="cls-132" d="m1002.25,926.27c-.59-1.26-1.64-2.01-3.69-2.53-7.91-1.99-16.02-3.05-24.15-3.69-1.7-.13-15.83.24-16.14-1.1-2.24-9.62-2.12-20.23-3.08-30.05-.08-.8-.17-1.64-.6-2.32-.6-.97-1.75-1.45-2.85-1.79-4.02-1.27-8.4-1.56-12.58-.98-.01,0-.03,0-.04,0-7.17,1-14.33,3.03-21.41,4.56-2.7.59-2.83,1.58-2.59,3.96,1.01,10.08,2.02,20.16,3.03,30.24l.03.34c.13,1.3.26,2.59.39,3.89-.05.02-.11.04-.16.05-.13.04-.27.09-.39.12-14.16,4.49-26.23,14.9-34.27,27.18-6.22,9.49-9.79,20.55-9.44,31.88,0,0,0,.19,0,.19.29,18.95,9.77,35.16,28.04,42.1,4.58,1.74,9.38,2.86,14.22,3.59,1.09.17,12.64,1.05,12.66,1.28,1.69,16.86,3.38,33.73,5.07,50.59,0,0,.05.53.05.53.05.51-12.97-2.11-14.08-2.44-4.69-1.41-8.81-3.61-13.25-5.57-4.15-1.83-9.42-2.09-13.93-1.74-1.71.13-10.88.96-10.62,3.33.56,5.62,1.13,11.24,1.69,16.86.4,4.01-.11,9.77,1.41,13.49,0,.02.01.03.02.05,1.04,2.34,6.14,2.84,8.36,3.44,4.43,1.19,8.92,2.13,13.46,2.82,9.38,1.43,19,1.78,28.47,1.22.51-.02,1.05-.05,1.61-.08,1.04,3.47.79,7.89,1.15,11.5.4,3.99.8,7.99,1.2,11.98.4,3.99.8,7.99,1.2,11.98.27,2.72-.14,7.47,2.02,9.51,2.26,2.14,5.94,2.38,8.89,2.31,9.41-.2,18.6-2.62,27.69-5.02,3.92-1.04,1.89-5.94,1.58-8.97-.46-4.62-.93-9.25-1.39-13.87-.93-9.25-1.86-18.5-2.78-27.75.23-.08.45-.16.64-.23,21.86-7.67,37.93-28.27,42.39-50.29,2.92-14.41-1.15-31.57-11.93-41.97-9.1-8.79-21.86-12.7-34.32-13.67-1.52-.12-3.04-.19-4.57-.23-2.31-.07-2.65.29-3.1-2.03-.75-3.89-.81-8.05-1.21-11.99-.81-7.99-1.62-15.99-2.42-23.98-.11-1.13-.75-12.4-1.22-12.47,5.31.85,10.5,2.9,15.4,5.04,7.26,3.17,15.2,4.94,23.07,3.04,2.87-.69,5.42-.94,5.84-4.25.34-2.63-.68-5.28-.9-7.88-.48-5.69-.98-11.39-1.83-17.05-.13-1.3-.31-2.32-.69-3.13Z"/><path class="cls-64" d="m985.11,1014.69c6.82,5.9,10.85,14.98,12.08,27.23,1.35,13.44-2.1,25.98-10.35,37.61-8.26,11.65-19.29,19.94-33.1,24.89,1.66,16.55,3.32,33.1,4.98,49.65-4.67,1.01-9.34,2.02-14.01,3.03-1.64-16.32-3.27-32.64-4.91-48.96-8.86,1.82-17.88,2.6-27.07,2.35-9.19-.25-17.29-1.49-24.29-3.71-.93-9.23-1.85-18.47-2.78-27.7.61-.13,1.23-.27,1.84-.4,7.01,4,14.75,6.81,23.19,8.43,8.45,1.63,17.47,1.87,27.07.72-1.98-19.75-3.96-39.5-5.94-59.24-2.1-.11-4.66-.22-7.7-.37-3.03-.13-5.6-.35-7.72-.64-12.67-1.09-22.03-4.85-28.07-11.3-6.04-6.44-9.62-15.2-10.73-26.26-1.3-12.98,2.12-25.25,10.24-36.83,8.14-11.57,19.45-19.71,33.96-24.44-1.25-12.44-2.49-24.87-3.74-37.31,4.67-1.01,9.34-2.02,14.01-3.03,1.24,12.34,2.47,24.69,3.71,37.03,7.48-1.33,15.32-1.84,23.51-1.51,8.19.33,20.28,2.54,20.28,2.54l2.72,27.15s-1.23.27-1.84.4c-6.17-3.15-12.85-5.62-20.02-7.44-7.17-1.81-22.67-1.26-22.67-1.26l5.91,58.97s5.35.18,7.76.35c2.4.19,4.49.31,6.25.4,11.43.51,20.57,3.72,27.39,9.62Zm-55.63-9.4s-3.79-37.85-5.69-56.78c-7.3,2.33-13.22,6.34-17.75,12.04-4.54,5.7-6.39,12.66-5.56,20.89.82,8.14,3.27,14.03,7.36,17.67,4.09,3.65,11.31,5.7,21.65,6.18Zm40.4,66.7c3.85-5.46,5.33-12.62,4.44-21.49-.86-8.59-3.47-14.53-7.81-17.78-4.34-3.27-11.17-4.96-20.47-5.1,1.9,18.97,3.8,37.94,5.71,56.91,8.25-2.91,14.29-7.09,18.14-12.55Z"/><path class="cls-33" d="m1123.06,246.53c-59.83,37.03-131.58,11.5-175.14-43-19.76-24.72-32.22-56.11-29.72-88.1.95-12.19,4.09-24.19,9.32-35.25,5.37-11.37,6.7-18.36,14.49-28.16,7.92-9.96,20.76-22.26,32.62-27.69,6.84-3.13,14.01-5.5,21.36-7.09,14.63-3.17,29.82-3.21,44.57-.82,30.87,5.02,59.81,20.21,83.29,40.6,8.31,7.22,16,15.17,22.88,23.77,26.24,32.82,42.96,64.29,31.9,98.99-7.3,22.91-31.78,52.03-55.57,66.75Z"/><path class="cls-140" d="m1137.64,223.95c-59.83,37.03-131.58,11.5-175.14-43-43.56-54.49-41.53-125.73,18.29-162.76,59.83-37.03,136.96-14.48,180.52,40.02,43.56,54.49,36.15,128.71-23.68,165.74Z"/><path class="cls-87" d="m981.18,161.85c-19.04-23.83-27.46-51.27-23.14-75.33,3.56-19.84,15.24-36.04,34.72-48.15,51.87-32.23,114.65-7.07,147.37,32.95l.89,1.09c17.54,21.96,25.08,48.52,20.7,72.9-3.98,22.21-17.15,40.82-38.07,53.82-51.03,31.71-109.07,3.59-141.39-35.95l-1.08-1.33Z"/><path class="cls-69" d="m987.2,159.66c-18.05-22.58-26.19-48.29-22.35-70.54,3.08-17.86,13.63-32.47,31.33-43.43,48.65-30.11,108.24-5.58,139.6,32.79l.9,1.1c16.51,20.66,23.74,45.46,19.85,68.03-3.51,20.3-15.5,37.31-34.7,49.19-47.58,29.45-102.59,2.08-133.56-35.8l-1.08-1.33Z"/><polygon class="cls-122" points="1115.07 101.4 1115.41 105.76 1133.42 98.43 1133.03 94.16 1115.07 101.4"/><path class="cls-28" d="m1068.03,98.79c2.28-4.38,8.75-6.35,13.9-5.77,3.55.4,7.05,1.78,10.16,3.73,1.14.71,7.04,4.42,7.12,5.7l-.31-4.44c-.16-.17-.33-.33-.49-.49-.03-.03-.06-.06-.1-.09-.12-.11-.24-.23-.35-.34-4.83-4.65-11.34-8.55-18.03-8.73-4.97-.14-9.83,2.1-12.05,6.05-1.39,2.48-.82,5.44-.68,8.33-.03-.7,0-1.35.12-1.93.14-.72.38-1.39.71-2.02Z"/><path class="cls-145" d="m1057.36,114.83c.92,1.78,1.72,3.3,2.38,4.53l-.21-4.63c-.65-1.24-1.45-2.76-2.37-4.55-.91-1.83-1.66-3.35-2.2-4.66-1.79-3.83-2.95-7.28-3.48-10.35-.18-1.02-.28-2-.32-2.94h0s.19,4.67.19,4.67c.15,3.74,1.42,8.17,3.81,13.27.54,1.31,1.28,2.82,2.2,4.65Z"/><path class="cls-99" d="m1115.6,130.21c-.51-3.87-1.52-7.89-3.08-12.11-.76-2.1-1.75-4.21-2.95-6.33-1.2-2.12-2.61-4.25-4.24-6.37h0l-29.01,12.35.25,4.55,29.08-12.49c3.27,4.24,5.67,8.47,7.21,12.67,1.56,4.21,2.57,8.22,3.08,12.09l.85.93,13.46-5.84-.38-4.3-13.43,5.77-.85-.93Z"/><path class="cls-148" d="m1069.15,138.74l-.23-4.59c-.11-2.16-.92-4.83-2.43-7.99-.5-1.06-1.08-2.17-1.74-3.34h0l-28.48,12.86.15,4.75,28.55-13c2.65,4.65,4.04,8.43,4.18,11.31Z"/><path class="cls-147" d="m1019.87,137.46l-.11-4.83c-3.83-5.05-7.1-10.41-9.89-16.07-2.08-4.27-3.65-8.26-4.74-11.99-.36-1.24-.67-2.45-.92-3.64l.08,4.9c1.01,4.72,2.89,9.91,5.67,15.59,2.79,5.65,6.08,10.99,9.91,16.03Z"/><path class="cls-55" d="m1083.68,145.87c-2.15,4.41-6.56,7.79-11.82,9.53-8.13,2.71-17.59,1.55-25.78-1.61-3.67-1.44-7.17-3.3-10.43-5.49-.96-.65-9.38-7.99-9.44-7.95,0,0-25.2,11.97-25.2,11.97l-6.07-8.03.05,4.94,6.08,8s25.26-12.09,25.26-12.09c.08-.04,8.08,6.96,8.99,7.59,3.25,2.21,6.73,4.09,10.4,5.56,8.15,3.21,17.68,4.47,25.88,1.86,7.99-2.51,14.19-8.73,13.72-16.64l-.27-4.51c.15,2.49-.36,4.81-1.37,6.89Z"/><path class="cls-80" d="m1115.07,101.4c3.26,3.92,6.29,8.14,8.98,12.63,2.72,4.49,4.63,8.26,5.83,11.34l-13.43,5.77-.85-.93c-.51-3.87-1.52-7.89-3.08-12.11-1.53-4.21-3.93-8.45-7.19-12.7l-29.01,12.35c.91,1.58,1.7,3.08,2.42,4.47.73,1.39,1.34,2.59,1.9,3.6,3.64,6.55,5.02,12.2,4.19,17.02-.8,4.82-4.28,8.67-10.48,11.54-6.78,3.19-14.75,3.5-23.82.9-9.04-2.66-17.15-7.65-24.34-14.96l-25.2,11.97-6.07-8.03,24.81-11.64c-3.83-5.05-7.1-10.41-9.89-16.07-2.77-5.7-4.64-10.9-5.66-15.62l13.76-6,.78,1.07c.11,4.92,1.09,10.09,2.89,15.51,1.84,5.38,4.6,10.85,8.32,16.42l29.57-13.2c-.65-1.24-1.45-2.76-2.37-4.54-.91-1.83-1.66-3.35-2.2-4.66-3.57-7.65-4.62-13.77-3.23-18.31,1.41-4.51,4.79-7.87,10.16-10.07,8.35-3.43,17.7-1.56,25.67,2.02,4.27,1.92,8.29,4.37,12.04,7.16.92.68,8.43,7.95,8.91,7.76,0,0,18.04-7.17,18.04-7.17l6.48,7.24-17.96,7.24Zm-44.02,8.33s27.86-11.71,27.86-11.71c-6.21-6.32-15.98-12.35-25.03-8.62-3.97,1.64-6.22,3.92-6.79,6.82-.57,2.94.76,7.46,3.95,13.51Zm-2.15,25.69c.28-3.01-1.1-7.22-4.15-12.6l-28.48,12.86c4.25,4.37,8.51,7.17,12.7,8.44,4.23,1.28,8.59.88,13.04-1.18,4.33-1.98,6.61-4.47,6.89-7.52Z"/><g class="cls-65"><circle class="cls-126" cx="1936.16" cy="1570.03" r="221.04"/><path class="cls-98" d="m2037.9,1604.69c-94.6,29.57-202.84,18.23-265.63-14.74-62.79-32.97-54.36-80.79,40.25-110.36,94.6-29.57,211.32-20.66,274.11,12.31,62.79,32.97,45.87,83.22-48.73,112.78Z"/><path class="cls-77" d="m1807.44,1570.62c-27.54-14.56-38.96-32.17-31.35-48.34,6.27-13.33,24.6-24.76,54.47-33.96,79.54-24.51,172.83-11.78,220.22,12.63l1.29.67c25.38,13.42,35.5,30.5,27.79,46.88-7.02,14.92-27.68,28.03-59.77,37.92-78.25,24.11-164.28,9.13-211.09-14.99l-1.56-.81Z"/><path class="cls-35" d="m1811.78,1573.73c-26.01-13.66-36.6-30.21-29.03-45.4,6.07-12.2,23.34-22.82,51.34-31.57,76.93-24.04,166.56-12.4,211.84,10.75l1.29.67c23.8,12.5,33.05,28.51,25.38,43.93-6.9,13.86-26.59,26.2-56.93,35.69-75.23,23.51-157.62,9.61-202.34-13.26l-1.56-.8Z"/><path class="cls-59" d="m1921.42,1524.32s0-.05,0-.08l.32,8.08-46.17,5.33.47,11.83,47.6-5.5c.04.38.07.76.09,1.12h0s-.47-11.83-.47-11.83c-.01-.36-.04-.74-.09-1.12l-1.41.16-.24-6.01c-.02-.39-.04-.88-.06-1.34l-.07-1.85c-.01-.19-.02-.38-.03-.56h0s.07,1.76.07,1.76Z"/><path class="cls-21" d="m1870.93,1537.29c-.17-5.51,2.5-10.79,6.2-14.72,0,0-.47-11.83-.47-11.83-3.69,3.92-6.4,9.24-6.18,14.72.16,3.94.32,7.89.44,11.83Z"/><path class="cls-34" d="m1943.21,1544.97c-.03-1.72-.05-3.23,0-3.25l49.28-5.7c.62,1.58.96,3.14,1.02,4.68l-.47-11.83c-.06-1.54-.4-3.1-1.02-4.68l-3.28.38-.24-5.99c-.11-.14-.23-.27-.35-.41-4.22-4.74-11.26-6.93-17.39-7.6-6.07-.66-12.21.08-18.17,1.37-2.64.57-5.32,1.27-7.55,2.8-3.07,2.11-4.17,5.45-4.03,9.05l.47,11.83c-.04-.98.02-1.88.14-2.72.03-.19.08-.36.12-.55.75-3.84,3.77-6.27,7.34-7.52,3.4-1.2,7.22-1.83,10.79-2.25,1.68-.19,3.31-.31,4.89-.37.05,0,.11,0,.17,0,5.55-.17,11.16.6,16.3,2.76.23.1.46.2.86.38,0,0-39.38,4.55-39.41,4.56.12-.01.13,6.97.05,7.68-.31,2.7-1.27,5.16-3.06,7.22-3.44,3.96-8.6,5.83-13.53,7.14-6.62,1.76-13.48,2.59-20.32,2.77-8.36.21-16.78-.72-24.82-3.08-7.91-2.32-16.4-5.87-22.06-12.06l-3.72.43-.24-5.99c-2.09-3.57-3.28-7.26-3.6-11.07-.03-.4-.06-.79-.08-1.18l.47,11.83c.02.39.04.78.08,1.18.16,1.86.53,3.69,1.1,5.5l-35.56,4.11-3.4-5.62.47,11.83,3.4,5.62s41.54-4.8,41.54-4.8c.43-.05,2.83,2.7,3.33,3.1,1.29,1.04,2.68,1.98,4.09,2.85,3.74,2.31,7.77,3.96,11.93,5.34,8.88,2.86,18.26,4.11,27.58,3.85,5.53-.15,11.07-.71,16.48-1.93,5.23-1.18,11.27-2.78,15.46-6.22,2.59-2.13,4.6-5.12,5.02-8.5.03-.22-.03-2.74-.07-4.92Z"/><path class="cls-48" d="m2011.41,1533.84l28.69-3.32-.47-11.83-30.96,3.58.47,11.83,2.18-.25c0,1.08,0,2.16-.11,3.11-.16,1.29-.43,2.46-.81,3.5h0l-22.74,2.62-.42-.74.47,11.83.42.74,22.74-2.62c.09-.23.17-.47.24-.71.26-.85.45-1.76.57-2.75,0-.01,0-.03,0-.04.16-1.31.21-2.75.15-4.3l-.42-10.64Z"/><path class="cls-97" d="m2008.67,1522.28c1.56,3.02,2.46,6.25,2.66,9.65.2,3.4-.09,6.26-.93,8.54l-22.74,2.62-.42-.74c2.26-2.73,3.97-5.63,5.09-8.69,1.07-3.07.97-6.22-.3-9.46l-49.36,5.71c.13,1.15.2,2.22.17,3.23,0,.99,0,1.87.06,2.61.24,4.76-1.94,8.72-6.51,11.87-4.56,3.16-11.98,5.32-22.23,6.51-11.23,1.3-22.02.57-32.32-2.21-10.3-2.77-17.94-6.89-22.92-12.34l-41.54,4.8-3.39-5.62,40.98-4.74c-2.09-3.57-3.28-7.26-3.6-11.07-.33-3.82.22-7.24,1.7-10.26l23.18-2.67.42.74c-2.93,3.11-4.84,6.48-5.73,10.06-.85,3.58-.54,7.34,1,11.24l49.58-5.73c-.05-.87-.1-1.93-.14-3.2-.07-1.26-.07-2.34.06-3.24.18-5.29,2.77-9.38,7.88-12.24,5.07-2.86,12.23-4.82,21.48-5.89,10.88-1.25,21.42-.52,31.63,2.21.31.08.63.17.93.26.5.14.71.2.92.27.53.16.72.22.9.27.54.17.72.23.89.28.53.18.71.23.88.29.52.18.69.24.86.3.52.19.68.25.84.31.52.2.68.26.83.32.51.2.66.26.82.33.5.21.65.27.8.33.49.21.64.28.78.34.49.22.63.28.77.35.48.23.62.29.75.36.12.06.23.11.35.17.13.06.26.13.39.2.11.06.23.12.34.17.13.07.26.14.39.2.11.06.22.12.33.18.12.07.25.14.37.2.11.06.22.12.33.18.12.07.24.14.37.21.11.06.21.12.32.19.12.07.24.14.36.21.11.06.21.13.32.19.11.07.23.14.34.21.11.07.21.13.32.2.11.07.22.14.33.22.1.07.21.14.31.21.11.07.21.14.31.22.1.07.21.14.31.22.1.07.2.14.29.21.1.08.21.15.31.23.09.07.19.14.28.21.11.08.21.16.32.24.08.06.16.13.25.19.11.09.22.17.33.26.33.27.45.37.56.46.3.26.43.37.55.47.73.66,1.33,1.24,1.9,1.84.22.23.32.35.43.47.31.34.48.54.64.73l31.22-3.61,3.37,5.64-30.96,3.58Zm-67.64,1.8l47.49-5.49c-.11-.14-.23-.28-.35-.41-.18-.2-.32-.35-.47-.5-.02-.02-.03-.03-.05-.05-.14-.15-.29-.29-.44-.43-.02-.02-.04-.03-.06-.05-.15-.14-.31-.28-.47-.42-.02-.02-.04-.03-.05-.05-.16-.14-.33-.28-.5-.41-.22-.18-.4-.31-.58-.45-.22-.16-.42-.3-.61-.43-.21-.14-.41-.27-.63-.41-.21-.13-.42-.26-.64-.38-.25-.15-.47-.26-.68-.38-.28-.15-.5-.26-.71-.37-.03-.01-.06-.03-.08-.04-.22-.11-.44-.21-.66-.31-.03-.01-.06-.03-.1-.04-.22-.1-.45-.2-.68-.3-.03-.01-.07-.03-.1-.04-.23-.1-.47-.19-.71-.29-.03-.01-.07-.03-.1-.04-.24-.09-.49-.19-.74-.28-.03-.01-.06-.02-.09-.03-.26-.09-.52-.18-.79-.27-.33-.11-.62-.2-.9-.29-5.08-1.56-11.05-1.94-17.92-1.15-6.83.79-11.63,2.13-14.44,4.02-2.85,1.89-4.17,5-3.93,9.3Zm-20.95,16.84c2.49-1.98,3.53-4.9,3.09-8.75l-47.6,5.5c2.94,3.25,6.8,5.53,11.64,6.82,4.84,1.29,10.94,1.5,18.37.65,7.19-.84,12.02-2.24,14.51-4.22Z"/></g><path class="cls-119" d="m633.29,446.77c64.82,79.76,45.91,183.05-19.44,250-29.65,30.38-70.18,51.24-114.93,51.23-17.07,0-34.36-3.09-50.83-9.21-16.93-6.28-26.89-7.38-42.21-17.22-15.57-10.01-35.5-26.64-45.71-42.67-5.88-9.23-10.8-19.02-14.67-29.14-7.72-20.15-11.24-41.42-11.3-62.34-.11-43.78,14.28-85.98,37.08-121.09,8.08-12.43,17.3-24.07,27.62-34.64,39.36-40.33,79.02-67.19,129.49-55.48,33.32,7.73,79.13,38.84,104.91,70.55Z"/><path class="cls-142" d="m629.77,505.26c16.21,104.09-44.37,188.62-125.75,217.45-81.38,28.83-161.98-15.03-178.19-119.13-16.21-104.09,43.32-197.78,124.7-226.61,81.38-28.83,163.04,24.19,179.24,128.29Z"/><path class="cls-100" d="m483.37,677.62c-35.87,12.57-71.02,8.92-96.47-10-20.99-15.6-34.12-40.13-39.01-72.9-13.01-87.25,44.38-157.84,104.99-179.96l1.66-.6c33.07-11.58,66.79-7.22,92.58,11.95,23.5,17.46,38.69,45.29,43.94,80.49,12.8,85.83-45.8,148.45-105.67,170.3l-2.01.72Z"/><path class="cls-68" d="m488.49,676.13c-33.72,11.94-66.69,8.39-90.46-9.76-19.08-14.56-31.19-37.56-35.99-68.37-13.18-84.64,40.93-152.92,98.54-174.18l1.65-.6c30.85-10.93,62.38-6.64,86.5,11.77,21.69,16.56,35.9,42.95,41.1,76.34,12.89,82.78-42.47,143.08-99.35,164.08l-1.99.72Z"/><polygon class="cls-32" points="500.54 452.11 493.88 447.76 489.85 476.36 496.51 480.7 500.54 452.11"/><path class="cls-146" d="m448.09,521.81c.2,8.03,6.11,11.01,12.1,14.91-.87-.57-1.61-1.18-2.21-1.84-5.71-6.26-3.28-17.65.99-23.96,4.68-6.91,12.68-11.25,20.67-13.11.37-.08.73-.16,1.21-.26.27-.05.53-.11.8-.16-2.74-1.79-5.14-4.22-8.3-3.97-6.61.52-14.07,4.75-18.41,9.65-4.5,5.08-7,11.89-6.86,18.74Z"/><path class="cls-30" d="m459.85,557.3c1.78.36,3.95.74,6.55,1.06,1.3.16,2.5.32,3.6.46,1.1.14,2.1.28,2.99.39h0s0,0,0,0l-6.66-4.34c-1.79-.23-4-.53-6.59-.85-2.6-.32-4.77-.7-6.55-1.06-7-1.16-12.55-3.09-16.67-5.77l6.66,4.34c4.12,2.69,9.67,4.62,16.67,5.77Z"/><path class="cls-75" d="m527.57,480.41l-2.95,20.94-1.66.18c-4.74-2.85-10.05-5.25-15.89-7.18-5.84-1.93-12.28-2.81-19.35-2.65l-6.36,45.49,6.66,4.34,6.36-45.49c7.07-.16,13.51.72,19.35,2.65,5.84,1.93,11.15,4.33,15.89,7.18h0s0,0,0,0l1.66-.18,2.95-20.94-6.66-4.34Z"/><path class="cls-51" d="m464.41,620.59h0,0l-6.66-4.34c-8.03.72-15.99.67-23.9-.2-7.88-.89-14.65-2.43-20.29-4.66l6.66,4.34c5.65,2.23,12.41,3.78,20.29,4.66,5.93.66,11.89.85,17.89.6,2-.08,4-.22,6.01-.4Z"/><path class="cls-84" d="m472.69,599.11l6.66,4.34,6.13-43.93c6.84.7,11.9,2.1,15.18,4.24l-6.66-4.34c-3.28-2.14-8.34-3.54-15.18-4.24l-6.13,43.93Z"/><path class="cls-86" d="m527.02,564.26c-1.54-9.33-8.82-14.61-16.16-19.52,6.77,3.61,9.82,11.9,9.84,19.58.03,11.84-5.84,23.21-14.3,31.5-9.36,9.15-21.89,15.43-34.57,18.34-.44.1-.86.22-1.3.32l-5.37,38.31-12.71,1.26,6.66,4.34,12.71-1.26s5.37-38.31,5.37-38.31c12.59-2.67,25.21-8.71,34.7-17.49,9.05-8.37,15.41-20.13,15.48-32.45.01-1.64-.11-3.17-.34-4.6Z"/><path class="cls-61" d="m489.85,476.36c6.75-.46,13.62-.26,20.66.6,7.01.83,12.69,2.01,17.05,3.45l-2.95,20.94-1.66.18c-4.74-2.85-10.05-5.25-15.89-7.18-5.84-1.93-12.28-2.81-19.35-2.65l-6.36,45.49c2.36.27,4.6.54,6.62.85,2.05.34,3.81.6,5.33.78,9.78,1.25,17.06,4.4,21.83,9.41,4.74,5.02,6.48,12.26,5.15,21.71-1.47,10.37-6.9,19.68-16.31,27.95-9.41,8.31-20.55,13.82-33.47,16.56l-5.37,38.31-12.71,1.26,5.31-37.77c-8.03.72-15.99.67-23.9-.21-7.88-.89-14.65-2.43-20.29-4.66l3-21.38,1.69-.18c5.27,3.59,11.4,6.32,18.42,8.17,6.99,1.89,14.75,2.74,23.26,2.61l6.41-45.73c-1.79-.23-4-.53-6.59-.85-2.6-.32-4.77-.7-6.55-1.06-10.75-1.78-18.09-5.38-22.06-10.75-3.97-5.37-5.36-12.32-4.18-20.86,2.61-18.73,19.16-32.83,35.89-39.47,4.08-1.62,8.3-2.8,12.59-3.7.76-.16,1.23-.25,1.69-.34l4.04-28.79,12.72-1.29-4.03,28.59Zm-21,60.53l6.15-43.84c-.27.05-.54.1-.8.16-12.08,2.49-23.98,10.27-25.8,23.29-.85,6.26.09,10.97,2.93,14.04,2.83,3.1,8.67,5.2,17.53,6.35Zm26.7,23.72c-3.12-2.82-8.7-4.6-16.73-5.42l-6.13,43.93c7.69-1.61,13.73-4.36,18.11-8.22,4.39-3.89,7.08-9.25,8.03-16.09.93-6.64-.16-11.38-3.28-14.2Z"/><path class="cls-95" d="m1226.55,734.42c-10.72,15.52-25.66,29.17-39.13,39.32-44.37,33.43-139.26-1.27-224.87-71.26-43.01-35.16-74.71-79.95-90.85-133.82-5.95-19.85-9.13-41.44-5.07-61.98,4.77-24.13,14.55-40.2,31.44-56.98,5.2-5.16,10.51-10.16,15.83-15.19,43.64-34.43,133.92-4.8,219.73,65.33,43.99,35.95,81.91,83.96,99.63,138.49,6.55,20.16,10.64,42.16,7.38,63.34-1.76,11.43-7,22.51-14.09,32.77Z"/><g class="cls-96"><path class="cls-37" d="m1226.55,734.42c-10.72,15.52-25.66,29.17-39.13,39.32-44.37,33.43-139.26-1.27-224.87-71.26-43.01-35.16-74.71-79.95-90.85-133.82-5.95-19.85-9.13-41.44-5.07-61.98,4.77-24.13,14.55-40.2,31.44-56.98,5.2-5.16,10.51-10.16,15.83-15.19,43.64-34.43,133.92-4.8,219.73,65.33,43.99,35.95,81.91,83.96,99.63,138.49,6.55,20.16,10.64,42.16,7.38,63.34-1.76,11.43-7,22.51-14.09,32.77Z"/></g><path class="cls-63" d="m1142.52,490.89c92.32,75.44,132.22,187.15,93.27,234.82-38.95,47.67-141.99,13.23-234.31-62.21-92.32-75.44-126.73-181.32-87.79-228.99,38.95-47.67,136.51-19.06,228.83,56.37Z"/><path class="cls-105" d="m1176.16,719.29c-43.47,0-95.27-21.79-154.79-72.66-85.27-72.87-110.96-150.32-80.22-189.67,9.1-11.64,23.33-17.55,42.32-17.55,42.41,0,89.96,19.44,147.08,68.25,40.35,34.49,70.17,68.15,86.47,112.51,14.51,39.5,13.27,64.57-1.17,83.05-8.33,10.66-21.68,16.06-39.68,16.06Z"/><path class="cls-134" d="m1156.14,713.73c-26.65.1-51.61-12.41-74.25-25.28-29.9-16.99-56.69-39.24-81.38-63.02-21.97-21.17-40.3-44.88-54.32-72.14-11.04-21.47-25.6-56.23-6.3-77.03,11.63-12.53,28.35-13.49,45.1-12.94,63.7,2.1,124.34,46.67,164.18,93.69,21.9,25.85,43.01,52.73,50.35,86.37,5.35,24.54,1.49,59.33-26.48,67.95-5.42,1.67-11.11,2.38-16.88,2.4Z"/><path class="cls-113" d="m1007.95,535.68c6.03,5.74,12.07,11.48,18.1,17.22,5.77,5.49,11.54,10.98,17.31,16.47,1.76,1.67,3.52,3.35,5.28,5.02l9.65-10.93s-36.86-35.07-36.86-35.07c4.26-.84,8.65-.84,12.96-.45,2.1.19,4.19.48,6.27.83.9.15,4.57,1.35,5.29.97l.86-.56,8.89-10.17-.86.56c-.08-.02-.15-.03-.23-.05-9.93-2.08-21.26-3.71-30.8.76l-4.95,5.66-1.27-1.21c-3.43,3.4-6.46,7.3-9.65,10.93Z"/><path class="cls-62" d="m1117.49,619.79c-11.93-11.35-23.86-22.7-35.8-34.06,4.27-.18,8.5,1.17,12.23,3.24,3.74,2.07,7.03,4.84,10.2,7.71,6.89,6.23,19.69,19.03,10.68,28.64,0,0,8.89-10.17,8.89-10.17,3.18-3.64,3.65-8.59,1.87-13.02-1.45-3.62-3.99-6.88-6.58-9.76-4.83-5.37-10.6-10.69-17.06-13.99-5.98-3.05-12.62-3.55-19.1-1.94l-4.94,5.65s-2.87-2.73-2.87-2.73c-13.23,2.84-25.99,2.72-38.1-3.84-9.04-4.9-17.08-11.6-24-19.17-5.2-5.69-9.75-12.22-12.47-19.47-3.27-8.71-3.42-18.25,3.01-25.61l-26.75-25.46-8.89,10.17,26.72,25.44-.79.91c-.05.06-.11.12-.18.2-.13.16-.26.32-.45.55-2.96,3.67-4.16,8.55-3.93,13.2.66,13.75,9.76,25.85,19.41,34.96.06.06.13.12.19.18,7.7,7.27,16.46,13.84,26.5,17.47,10.36,3.75,20.26,2.93,30.82.66l42.48,40.43c2.96-3.39,5.93-6.78,8.89-10.17Z"/><path class="cls-85" d="m1167.14,667.05s-35.11-33.41-35.12-33.41c.03.03-5.06,2.77-5.52,2.96-2.28.99-4.63,1.82-7.03,2.48-6.09,1.68-12.51,2.28-18.81,1.77l-19.85-18.9-8.89,10.17s19.85,18.9,19.85,18.9c.41.38,2.77.16,3.42.17,1.43.03,2.85,0,4.27-.09,2.84-.17,5.68-.57,8.46-1.19,5.31-1.18,10.67-3.07,15.21-6.11l35.12,33.42,6.31-4.36,8.89-10.17-6.3,4.36Z"/><path class="cls-31" d="m1009.56,506.73c3.57-2.13,7.89-3.72,12.96-4.78,5.09-1.08,9.64-1.57,13.7-1.46l19.49,18.53-.86.56c-5.71-1.21-11.31-1.88-16.76-2.02-5.42-.11-10.18.81-14.26,2.72l42.28,40.26c1.67-.42,3.26-.75,4.83-1,1.54-.27,2.86-.5,3.95-.74,7.12-1.45,14.67-.65,22.59,2.38,7.93,3.02,16.29,8.73,25.07,17.09,9.63,9.16,15.84,18.48,18.59,27.91,2.75,9.44,1.66,16.97-3.29,22.62l35.59,33.87-6.3,4.36-35.12-33.41c-4.03,2.69-8.87,4.67-14.5,5.95-5.63,1.29-11.24,1.72-16.86,1.26l-19.85-18.9.85-.55c6.77,1.65,13.2,2.39,19.3,2.2,6.08-.23,11.6-1.47,16.54-3.81l-42.48-40.43c-1.31.28-2.9.61-4.81.97-1.88.39-3.53.66-4.99.78-8.23,1.25-16.25.13-24.1-3.43-7.82-3.53-15.69-9.07-23.61-16.63-11.61-11.08-29.03-34.5-14.04-49.79l-26.75-25.46,6.33-4.32,26.53,25.24Zm48.74,56.73s-40.69-38.72-40.69-38.71c-8.45,8.34,1.56,20.74,7.81,26.68,5.85,5.57,11.17,9.28,15.97,11.16,4.84,1.9,10.49,2.21,16.91.88Zm40.03,13.28c-4.72-1.59-9.9-1.7-15.51-.3l40.78,38.81c2.98-3.35,3.84-7.21,2.53-11.64-1.32-4.43-5.14-9.65-11.49-15.71-6.17-5.87-11.59-9.59-16.31-11.17Z"/><path class="cls-106" d="m1899.22,1540.94c-20.44,107.41-125.05,162.76-233.21,155.4-49.07-3.34-98.1-22.05-132.1-58.51-12.96-13.9-23.4-30.1-30.58-47.7-7.38-18.09-13.99-26.95-17.03-46.18-3.09-19.54-3.69-47.16,2.55-66.44,3.6-11.11,8.42-21.82,14.31-31.91,11.74-20.09,27.65-37.53,45.89-51.9,38.17-30.08,85.97-47.26,133.99-52.74,17-1.94,34.18-2.39,51.25-1.23,65.15,4.43,118.75,18.34,146.86,67.46,18.56,32.43,26.19,91.04,18.06,133.76Z"/><g class="cls-27"><path class="cls-58" d="m1899.22,1540.94c-20.44,107.41-125.05,162.76-233.21,155.4-49.07-3.34-98.1-22.05-132.1-58.51-12.96-13.9-23.4-30.1-30.58-47.7-7.38-18.09-13.99-26.95-17.03-46.18-3.09-19.54-3.69-47.16,2.55-66.44,3.6-11.11,8.42-21.82,14.31-31.91,11.74-20.09,27.65-37.53,45.89-51.9,38.17-30.08,85.97-47.26,133.99-52.74,17-1.94,34.18-2.39,51.25-1.23,65.15,4.43,118.75,18.34,146.86,67.46,18.56,32.43,26.19,91.04,18.06,133.76Z"/></g><path class="cls-60" d="m1888.68,1500.52c-20.44,107.41-150.08,157.37-233.21,155.4-108.16-7.36-187.61-84.51-167.17-191.92,20.44-107.41,127.3-172.05,235.45-164.69,108.16,7.36,185.37,93.8,164.93,201.21Z"/><path class="cls-137" d="m1653.21,1614.46c-47.28-3.23-87.56-22.41-110.58-52.63-18.98-24.91-25.26-55.31-18.66-90.34,17.59-93.26,112.33-138.72,192.54-134.14l2.19.13c43.58,2.98,81.9,22.25,105.23,52.87,21.25,27.89,28.73,62.51,21.63,100.13-17.29,91.74-110.46,128.67-189.7,124.15l-2.65-.16Z"/><path class="cls-79" d="m1657.03,1605.26c-44.81-3.05-82.81-20.73-104.25-48.51-17.21-22.29-22.87-49.71-16.82-81.5,16.62-87.34,107.3-129.81,184.19-125.43l2.21.13c41,2.79,77,20.56,98.75,48.74,19.56,25.34,26.43,56.94,19.88,91.4-16.26,85.41-105.37,119.66-181.3,115.33l-2.66-.16Z"/><polygon class="cls-91" points="1743.66 1380.24 1739.04 1371.41 1727.16 1399.11 1731.78 1407.94 1743.66 1380.24"/><path class="cls-117" d="m1665.43,1440.24c.04.44.09.88.18,1.3,0,0,0,0,0,0,0,0,0,0,0,0,.07.38.17.75.28,1.11.11.34.23.68.37,1.01.1.22.2.44.31.65l4.62,8.83c-.45-.86-.77-1.78-.96-2.77,0,0,0,0,0,0-.19-.96-.24-1.98-.19-3.05,0-.13.04-.27.05-.39.07-.87.22-1.78.45-2.73.07-.29.14-.58.22-.88.31-1.1.68-2.23,1.18-3.42.58-1.35,1.31-2.59,2.1-3.79.34-.51.73-.99,1.1-1.47.72-.92,1.44-1.84,2.3-2.67.07-.06.13-.13.2-.2,1.17-1.09,2.46-2.09,3.88-3.01.07-.04.13-.09.2-.13,1.46-.93,3.05-1.76,4.78-2.5.4-.17.81-.34,1.3-.54.39-.16.78-.31,1.17-.45.04-.02.09-.03.13-.05.38-.14.77-.28,1.15-.41.06-.02.11-.04.17-.06.38-.13.76-.25,1.14-.37.07-.02.13-.04.2-.06.38-.12.76-.23,1.14-.34.07-.02.14-.04.21-.06.38-.11.76-.21,1.14-.31.07-.02.15-.04.22-.06.38-.1.77-.19,1.16-.28.07-.02.15-.03.22-.05.39-.09.78-.17,1.18-.25.07-.01.14-.03.21-.04.4-.08.81-.16,1.21-.23.06,0,.12-.02.17-.03.42-.07.84-.14,1.39-.22.44-.06.88-.12,1.39-.19.92-.11,1.86-.21,2.87-.29.46-.03.92-.06,1.49-.1.46-.02.92-.04,1.5-.06.46-.01.92-.02,1.54-.03.33,0,.66,0,1,0l-4.62-8.83c-.33,0-.66,0-1,0-.62,0-1.08.01-1.54.03-.58.02-1.04.04-1.5.06-.57.03-1.03.06-1.49.1-.37.03-.72.06-1.07.09-.62.06-1.21.12-1.8.19-.51.06-.95.12-1.39.19-.55.08-.97.15-1.39.22-.06.01-.12.02-.17.03-.28.05-.56.1-.85.16-.12.02-.24.05-.36.07-.07.01-.14.03-.21.04-.39.08-.79.16-1.18.25-.07.02-.15.03-.22.05-.39.09-.77.18-1.16.28-.07.02-.15.04-.22.06-.23.06-.45.12-.68.18-.16.04-.31.08-.47.13-.07.02-.14.04-.21.06-.38.11-.76.22-1.14.34-.07.02-.13.04-.2.06-.38.12-.76.24-1.14.37,0,0,0,0-.01,0-.05.02-.1.04-.16.05-.39.13-.77.27-1.15.41-.04.02-.09.03-.13.05-.39.15-.78.3-1.17.45-.09.04-.18.07-.27.11-.38.15-.71.29-1.03.43-.43.18-.85.37-1.27.57-.57.27-1.13.55-1.67.84-.52.28-1.02.57-1.51.87-.11.07-.22.15-.33.22-.06.04-.13.08-.19.12-.3.2-.61.39-.9.59-.48.33-.94.68-1.39,1.03-.5.39-.97.8-1.43,1.22-.05.05-.1.11-.16.16-.07.06-.13.13-.2.2-.43.41-.85.82-1.25,1.26-.4.44-.7.94-1.06,1.41-.38.48-.76.96-1.1,1.47-.13.2-.31.38-.44.59-.58.94-1.1,1.93-1.55,2.96-.04.08-.07.16-.11.24-.51,1.19-.87,2.32-1.18,3.43-.08.3-.15.59-.22.87-.07.32-.18.65-.24.95-.11.62-.16,1.2-.21,1.78,0,.13-.04.26-.05.38,0,.04-.01.09-.02.14-.02.55-.01,1.09.03,1.61Z"/><path class="cls-121" d="m1644.47,1461.56c.1.2.21.4.32.6,3.47,6.12,11.44,11.12,23.95,14.98,2.06.7,4.59,1.5,7.64,2.32,3.05.82,5.63,1.56,7.74,2.13l-4.62-8.83c-2.1-.57-4.69-1.3-7.74-2.13-3.05-.83-5.58-1.62-7.64-2.32-12.52-3.85-20.49-8.86-23.95-14.98-.11-.2-.22-.4-.32-.6h0s0,0,0,0l4.62,8.83Z"/><path class="cls-2" d="m1771.63,1410.45l-8.7,20.28-2.05-.15c-5.02-3.75-10.82-7.17-17.39-10.22-1.64-.76-3.35-1.47-5.11-2.12-5.29-1.94-11.14-3.36-17.57-4.27h0,0l-18.85,44.07,4.62,8.83,18.85-44.07c8.56,1.2,16.11,3.33,22.68,6.38,6.57,3.05,12.37,6.47,17.39,10.22l2.05.15,8.7-20.28-4.62-8.83Z"/><path class="cls-88" d="m1714.64,1486.02c-.36-.68-.8-1.31-1.33-1.9-3.07-3.41-9.36-6.27-18.84-8.64l-18.19,42.57,4.62,8.83,18.19-42.57c9.48,2.37,15.77,5.23,18.84,8.64.53.59.97,1.22,1.33,1.9h0s0,0,0,0l-4.62-8.83Z"/><path class="cls-139" d="m1658.69,1541.05h0l-4.62-8.83c-9.86-.83-19.44-2.42-28.76-4.83-6.96-1.81-13.08-3.86-18.34-6.17-1.75-.77-3.41-1.57-4.98-2.4h0l4.62,8.83c6.26,3.32,14.03,6.16,23.32,8.57,2.33.6,4.68,1.15,7.04,1.65,7.09,1.5,14.33,2.55,21.72,3.18Z"/><path class="cls-43" d="m1748.17,1494.7c0-.32,0-.65-.02-.96,0-.02,0-.03,0-.05-.01-.15-.05-.3-.06-.45-.06-.53-.11-1.06-.21-1.58-.01-.07-.04-.13-.05-.2-.04-.21-.11-.42-.16-.63-.08-.34-.15-.69-.26-1.02-.05-.15-.11-.29-.16-.43-.08-.23-.16-.45-.25-.67-.08-.2-.14-.41-.23-.61-.17-.38-.35-.76-.54-1.13l-4.62-8.83c.3.57.54,1.15.77,1.74.09.22.17.45.25.68.16.48.3.96.42,1.45.05.21.11.42.16.63.12.58.2,1.17.26,1.78.02.15.05.3.06.45.03.33.01.67.02,1.01.02.49.04.97.02,1.48,0,.13-.03.27-.04.4-.05.88-.16,1.78-.31,2.7-.06.33-.13.66-.2,1-.16.77-.36,1.56-.59,2.35-.1.33-.19.66-.3,1-.36,1.12-.77,2.25-1.27,3.42-.1.23-.23.45-.34.67-.57,1.25-1.21,2.48-1.93,3.67-.39.65-.81,1.3-1.24,1.93-.28.41-.54.82-.83,1.22-.57.78-1.19,1.53-1.83,2.28-.24.29-.46.59-.72.87-.54.6-1.14,1.18-1.72,1.76-.46.46-.89.93-1.37,1.38-1.02.95-2.11,1.87-3.25,2.77-.27.21-.56.41-.83.62-.89.67-1.81,1.34-2.76,1.98-.41.28-.84.55-1.27.83-.89.57-1.8,1.13-2.74,1.67-.48.28-.95.56-1.44.83-1.37.76-2.78,1.5-4.26,2.22-1.1.53-2.22,1-3.34,1.49-.66.29-1.31.59-1.97.86-.76.31-1.53.58-2.3.87-1,.38-1.99.77-3,1.11-.59.2-1.19.37-1.78.56-1.32.42-2.64.84-3.98,1.21-.61.17-1.22.31-1.84.47-1.68.43-3.37.82-5.09,1.17-.61.12-1.23.25-1.84.36-2.98.55-6.01.98-9.1,1.28-.57.06-1.15.1-1.73.15-2.77.23-5.58.41-8.44.45l-15.89,37.12-15.64-1.21,4.62,8.83,15.64,1.21,15.89-37.12c2.86-.04,5.67-.21,8.44-.45.34-.03.69-.02,1.02-.05.24-.02.46-.07.7-.1,3.09-.31,6.12-.73,9.1-1.28.23-.04.47-.05.69-.1.39-.07.76-.19,1.15-.26,1.71-.35,3.41-.74,5.09-1.17.4-.1.82-.17,1.23-.28.21-.06.41-.13.61-.19,1.34-.37,2.65-.78,3.96-1.2.5-.16,1.02-.29,1.51-.46.1-.03.2-.08.29-.11,1-.34,1.98-.73,2.97-1.1.7-.26,1.4-.5,2.09-.78.08-.03.16-.07.23-.1.66-.27,1.3-.57,1.95-.85.89-.39,1.79-.75,2.66-1.16.23-.11.47-.22.7-.33,1.23-.6,2.43-1.2,3.58-1.83.24-.13.45-.26.68-.39.49-.27.95-.55,1.43-.82.52-.3,1.07-.6,1.57-.91.41-.25.78-.52,1.18-.77.42-.27.85-.55,1.26-.82.27-.18.56-.35.82-.54.68-.47,1.31-.97,1.95-1.45.27-.21.56-.4.82-.61.08-.06.16-.12.24-.18,1.02-.81,1.99-1.64,2.92-2.49.03-.03.06-.07.1-.1.48-.45.9-.91,1.36-1.37.54-.54,1.12-1.08,1.62-1.64.04-.05.08-.09.12-.14.25-.28.47-.58.72-.87.64-.75,1.26-1.5,1.83-2.28.29-.4.56-.81.83-1.22.33-.48.68-.95.98-1.44.1-.16.16-.33.26-.49.71-1.2,1.36-2.42,1.93-3.67.07-.16.18-.31.25-.48.03-.07.06-.13.09-.2.5-1.17.91-2.3,1.27-3.42.11-.34.2-.67.3-1,.23-.8.43-1.59.59-2.36.04-.2.11-.41.15-.6.02-.13.02-.26.05-.39.16-.92.26-1.82.31-2.7,0-.11.03-.22.04-.33,0-.03,0-.05,0-.07.02-.5,0-.99-.02-1.48Z"/><path class="cls-108" d="m1727.16,1399.11c8.26.85,16.48,2.38,24.76,4.6,8.25,2.19,14.8,4.46,19.71,6.74l-8.7,20.28-2.05-.15c-5.02-3.75-10.82-7.17-17.39-10.22-6.57-3.05-14.11-5.18-22.68-6.38l-18.85,44.08c2.78.73,5.41,1.43,7.77,2.13,2.39.73,4.45,1.34,6.24,1.81,11.49,3.14,19.49,7.69,24.01,13.6,4.48,5.91,4.8,13.47.87,22.62-4.32,10.04-13.16,18.26-26.54,24.71-13.37,6.42-28.16,9.75-44.41,9.98l-15.89,37.12-15.64-1.21,15.69-36.59c-9.86-.83-19.44-2.42-28.76-4.83-9.28-2.41-17.06-5.25-23.32-8.57l8.87-20.71,2.05.15c5.51,4.6,12.23,8.5,20.23,11.7,7.96,3.24,17.11,5.58,27.4,7.1l18.96-44.31c-2.1-.57-4.69-1.3-7.74-2.13-3.05-.83-5.58-1.62-7.64-2.32-12.52-3.85-20.49-8.86-23.95-14.97-3.47-6.12-3.44-13.31.09-21.58,4.14-9.71,12.85-17.77,26.06-24.16.41-.2.81-.39,1.22-.58.69-.32.96-.44,1.23-.56.8-.35,1.02-.45,1.24-.54.2-.09.41-.17.61-.26.21-.09.43-.18.64-.27.2-.08.41-.16.61-.25.22-.09.44-.18.66-.26.21-.08.41-.16.62-.24.22-.08.43-.17.65-.25.21-.08.43-.16.64-.24.21-.08.43-.16.64-.23.21-.08.43-.15.65-.23.22-.08.43-.15.65-.23.21-.07.43-.14.64-.21.22-.07.44-.15.66-.22.22-.07.44-.14.66-.21.22-.07.44-.14.66-.21.22-.07.43-.13.65-.2.23-.07.45-.14.68-.2.22-.06.43-.13.65-.19.23-.06.45-.13.68-.19.22-.06.44-.12.66-.18.23-.06.46-.12.69-.18.22-.06.43-.11.65-.17.23-.06.47-.12.71-.17.22-.05.44-.11.66-.16.24-.06.47-.11.71-.16.22-.05.44-.1.66-.15.24-.05.49-.11.73-.16.22-.05.43-.09.65-.14.25-.05.49-.1.74-.15.22-.04.44-.09.66-.13.25-.05.5-.09.75-.14.21-.04.43-.08.64-.12.26-.05.52-.09.78-.14.21-.04.42-.07.63-.11.27-.04.54-.09.8-.13.21-.03.41-.06.62-.1.27-.04.55-.08.83-.12.89-.12,1.18-.16,1.46-.2.89-.11,1.19-.14,1.49-.18.88-.1,1.21-.13,1.53-.16.84-.08,1.21-.11,1.57-.15.8-.07,1.22-.1,1.64-.13,1.73-.12,3.26-.2,4.8-.25.64-.02,1.08-.03,1.52-.04.78-.01,1.15-.02,1.52-.02.55,0,1.11,0,1.66,0l11.95-27.9,15.65,1.18-11.88,27.7Zm-40.2,56.22l18.19-42.47c-.33,0-.66,0-1,0-.62,0-1.08.01-1.54.03-.58.02-1.04.04-1.5.06-.57.03-1.03.06-1.49.1-1.01.08-1.95.17-2.87.28-.51.06-.95.12-1.39.19-.55.08-.97.15-1.39.22-.06.01-.12.02-.17.03-.41.07-.81.15-1.21.23-.07.01-.14.03-.21.04-.39.08-.79.16-1.18.25-.07.02-.15.03-.22.05-.39.09-.77.18-1.16.28-.07.02-.15.04-.22.06-.38.1-.76.2-1.14.31-.07.02-.14.04-.21.06-.38.11-.76.22-1.14.34-.07.02-.13.04-.2.06-.38.12-.76.24-1.14.37-.06.02-.11.04-.17.06-.39.13-.77.27-1.15.41-.04.02-.09.03-.13.05-.39.15-.78.3-1.17.45-.49.2-.9.36-1.3.54-7.04,3-11.91,7.59-14.55,13.76-2.57,6.07-2.59,10.94.08,14.55,2.65,3.64,9.17,6.86,19.57,9.71Zm26.36,28.79c-3.07-3.41-9.36-6.27-18.84-8.64l-18.19,42.57c9.66-.11,17.62-1.68,23.85-4.68,6.25-3.03,10.81-7.84,13.63-14.47,2.76-6.43,2.61-11.37-.46-14.78Z"/></g></g></g></svg>