<?xml version="1.0" encoding="UTF-8"?><svg xmlns="http://www.w3.org/2000/svg" xmlns:xlink="http://www.w3.org/1999/xlink" viewBox="0 0 44.53 48.33"><defs><style>.cls-1{fill:#fff;}.cls-2{isolation:isolate;}.cls-3{fill:url(#Degradado_sin_nombre_3);}.cls-4{fill:url(#radial-gradient);mix-blend-mode:multiply;opacity:.8;}</style><radialGradient id="radial-gradient" cx="23.53" cy="27.33" fx="23.53" fy="27.33" r="21" gradientUnits="userSpaceOnUse"><stop offset="0" stop-color="#000056"/><stop offset=".39" stop-color="#7373a2" stop-opacity=".55"/><stop offset=".78" stop-color="#d8d8e5" stop-opacity=".15"/><stop offset="1" stop-color="#fff" stop-opacity="0"/></radialGradient><linearGradient id="Degradado_sin_nombre_3" x1="5.53" y1="7.36" x2="29.3" y2="31.12" gradientUnits="userSpaceOnUse"><stop offset="0" stop-color="#fbe18a"/><stop offset=".21" stop-color="#fcbb45"/><stop offset=".38" stop-color="#f75274"/><stop offset=".52" stop-color="#d53692"/><stop offset=".74" stop-color="#8f39ce"/><stop offset="1" stop-color="#5b4fe9"/></linearGradient></defs><g class="cls-2"><g id="Layer_2"><g id="ELEMENTS"><circle class="cls-4" cx="23.53" cy="27.33" r="21"/><path class="cls-3" d="m33.13,14.15c1.2-1.98-1.2-4.85-3.42-3.42-.02.01-.04.02-.05.03.13-.12.25-.24.37-.36,2.05-1.94-.6-5.43-3.03-3.93-1.52.94-3.02,1.92-4.51,2.9,1.23-1.19,2.47-2.37,3.74-3.52,2.17-1.96-.59-5.23-3.03-3.93-.58.31-1.15.65-1.72.97.36-1.84-1.67-3.58-3.71-2.64C12.25,2.8,7.18,6.18,2.66,10.23c-1.96,1.75.04,4.42,2.14,4.18-1.51,1.81-2.98,3.66-4.37,5.56-1.41,1.93.93,4.15,2.86,3.65-.44.58-.88,1.15-1.31,1.74-.73.99-.26,2.55.64,3.23,1.03.77,2.33.65,3.28-.2.27-.24.55-.47.82-.71-.45.53-.91,1.04-1.36,1.57-.87,1.03-1.01,2.52,0,3.54.81.81,2.15.95,3.1.35.13.62.47,1.2.94,1.55.97.72,2.02.62,2.95.03-.07,1.83,1.97,3.71,3.71,2.39,1.03-.78,2.05-1.56,3.08-2.33.69,1.31,2.48,2.03,3.94.71,2.28-2.07,4.7-3.92,7.3-5.57,1.33-.85,1.4-2.32.8-3.39l2.52-2.79c.83-.92.99-2.28.2-3.28-.15-.19-.34-.35-.55-.5.55-.51,1.11-1.02,1.66-1.53,1.75-1.62.11-4.35-1.89-4.28Z"/><path class="cls-1" d="m22.42,13.25c-.56,0-1.01.45-1.01,1.01s.45,1.01,1.01,1.01,1.01-.45,1.01-1.01-.45-1.01-1.01-1.01Z"/><path class="cls-1" d="m17.95,14.54c-2.33,0-4.22,1.89-4.22,4.22s1.89,4.22,4.22,4.22,4.22-1.89,4.22-4.22-1.89-4.22-4.22-4.22Zm0,6.93c-1.49,0-2.7-1.21-2.7-2.7s1.21-2.7,2.7-2.7,2.7,1.21,2.7,2.7-1.21,2.7-2.7,2.7Z"/><path class="cls-1" d="m21.3,27.33h-6.84c-2.84,0-5.15-2.31-5.15-5.15v-6.84c0-2.84,2.31-5.15,5.15-5.15h6.84c2.84,0,5.15,2.31,5.15,5.15v6.84c0,2.84-2.31,5.15-5.15,5.15Zm-6.84-15.53c-1.95,0-3.54,1.59-3.54,3.54v6.84c0,1.95,1.59,3.54,3.54,3.54h6.84c1.95,0,3.54-1.59,3.54-3.54v-6.84c0-1.95-1.59-3.54-3.54-3.54h-6.84Z"/></g></g></g></svg>